<ttFont>
    <TTGlyph name=".notdef" xMin="50" yMin="0" xMax="450" yMax="750">
      <contour>
        <pt x="50" y="0" on="1"/>
        <pt x="50" y="750" on="1"/>
        <pt x="450" y="750" on="1"/>
        <pt x="450" y="0" on="1"/>
      </contour>
      <contour>
        <pt x="400" y="50" on="1"/>
        <pt x="400" y="700" on="1"/>
        <pt x="100" y="700" on="1"/>
        <pt x="100" y="50" on="1"/>
      </contour>
    </TTGlyph>
    <TTGlyph name="A" xMin="10" yMin="0" xMax="711" yMax="693">
      <contour>
        <pt x="544" y="0" on="1"/>
        <pt x="533" y="36" on="0"/>
        <pt x="506" y="112" on="0"/>
        <pt x="493" y="150" on="1"/>
        <pt x="223" y="150" on="1"/>
        <pt x="210" y="112" on="0"/>
        <pt x="183" y="36" on="0"/>
        <pt x="172" y="0" on="1"/>
        <pt x="10" y="0" on="1"/>
        <pt x="49" y="112" on="0"/>
        <pt x="119" y="302" on="0"/>
        <pt x="186" y="470" on="0"/>
        <pt x="251" y="621" on="0"/>
        <pt x="286" y="693" on="1"/>
        <pt x="435" y="693" on="1"/>
        <pt x="469" y="621" on="0"/>
        <pt x="535" y="470" on="0"/>
        <pt x="602" y="302" on="0"/>
        <pt x="672" y="112" on="0"/>
        <pt x="711" y="0" on="1"/>
      </contour>
      <contour>
        <pt x="357" y="536" on="1"/>
        <pt x="352" y="521" on="0"/>
        <pt x="332" y="469" on="0"/>
        <pt x="306" y="401" on="0"/>
        <pt x="275" y="319" on="0"/>
        <pt x="259" y="274" on="1"/>
        <pt x="456" y="274" on="1"/>
        <pt x="440" y="319" on="0"/>
        <pt x="410" y="401" on="0"/>
        <pt x="383" y="469" on="0"/>
        <pt x="363" y="521" on="0"/>
      </contour>
    </TTGlyph>
    <TTGlyph name="AE" xMin="10" yMin="0" xMax="959" yMax="693">
      <contour>
        <pt x="490" y="164" on="1"/>
        <pt x="270" y="164" on="1"/>
        <pt x="249" y="126" on="0"/>
        <pt x="199" y="38" on="0"/>
        <pt x="181" y="0" on="1"/>
        <pt x="10" y="0" on="1"/>
        <pt x="132" y="219" on="0"/>
        <pt x="342" y="562" on="0"/>
        <pt x="436" y="693" on="1"/>
        <pt x="936" y="693" on="1"/>
        <pt x="936" y="562" on="1"/>
        <pt x="641" y="562" on="1"/>
        <pt x="641" y="426" on="1"/>
        <pt x="901" y="426" on="1"/>
        <pt x="901" y="298" on="1"/>
        <pt x="641" y="298" on="1"/>
        <pt x="641" y="131" on="1"/>
        <pt x="959" y="131" on="1"/>
        <pt x="959" y="0" on="1"/>
        <pt x="490" y="0" on="1"/>
      </contour>
      <contour>
        <pt x="490" y="542" on="1"/>
        <pt x="474" y="519" on="0"/>
        <pt x="434" y="455" on="0"/>
        <pt x="391" y="386" on="0"/>
        <pt x="350" y="316" on="0"/>
        <pt x="333" y="288" on="1"/>
        <pt x="490" y="288" on="1"/>
      </contour>
    </TTGlyph>
    <TTGlyph name="AEacute" xMin="10" yMin="0" xMax="959" yMax="959">
      <component glyphName="AE" x="0" y="0" flags="0x204"/>
      <component glyphName="acute" x="485" y="160" flags="0x4"/>
    </TTGlyph>
    <TTGlyph name="Aacute" xMin="10" yMin="0" xMax="711" yMax="959">
      <component glyphName="A" x="0" y="0" flags="0x204"/>
      <component glyphName="acute" x="217" y="160" flags="0x4"/>
    </TTGlyph>
    <TTGlyph name="Abreve" xMin="10" yMin="0" xMax="711" yMax="917">
      <component glyphName="A" x="0" y="0" flags="0x204"/>
      <component glyphName="breve" x="165" y="153" flags="0x4"/>
    </TTGlyph>
    <TTGlyph name="Acircumflex" xMin="10" yMin="0" xMax="711" yMax="948">
      <component glyphName="A" x="0" y="0" flags="0x204"/>
      <component glyphName="circumflex" x="161" y="166" flags="0x4"/>
    </TTGlyph>
    <TTGlyph name="Adieresis" xMin="10" yMin="0" xMax="711" yMax="914">
      <component glyphName="A" x="0" y="0" flags="0x204"/>
      <component glyphName="dieresis" x="86" y="160" flags="0x4"/>
    </TTGlyph>
    <TTGlyph name="Agrave" xMin="10" yMin="0" xMax="711" yMax="959">
      <component glyphName="A" x="0" y="0" flags="0x204"/>
      <component glyphName="grave" x="217" y="160" flags="0x4"/>
    </TTGlyph>
    <TTGlyph name="Alpha" xMin="10" yMin="0" xMax="711" yMax="693">
      <component glyphName="A" x="0" y="0" flags="0x204"/>
    </TTGlyph>
    <TTGlyph name="Alphatonos" xMin="6" yMin="0" xMax="711" yMax="717">
      <component glyphName="A" x="0" y="0" flags="0x204"/>
      <component glyphName="tonos.cap" x="-99" y="0" flags="0x4"/>
    </TTGlyph>
    <TTGlyph name="Amacron" xMin="10" yMin="0" xMax="711" yMax="878">
      <component glyphName="A" x="0" y="0" flags="0x204"/>
      <component glyphName="macron" x="172" y="153" flags="0x4"/>
    </TTGlyph>
    <TTGlyph name="Aogonek" xMin="10" yMin="-221" xMax="731" yMax="693">
      <contour>
        <pt x="632" y="-221" on="1"/>
        <pt x="565" y="-221" on="0"/>
        <pt x="507" y="-171" on="0"/>
        <pt x="507" y="-130" on="1"/>
        <pt x="507" y="-109" on="0"/>
        <pt x="525" y="-69" on="0"/>
        <pt x="540" y="-50" on="1"/>
        <pt x="552" y="-35" on="0"/>
        <pt x="579" y="-10" on="0"/>
        <pt x="592" y="0" on="1"/>
        <pt x="544" y="0" on="1"/>
        <pt x="533" y="36" on="0"/>
        <pt x="506" y="112" on="0"/>
        <pt x="493" y="150" on="1"/>
        <pt x="223" y="150" on="1"/>
        <pt x="210" y="112" on="0"/>
        <pt x="183" y="36" on="0"/>
        <pt x="172" y="0" on="1"/>
        <pt x="10" y="0" on="1"/>
        <pt x="49" y="112" on="0"/>
        <pt x="119" y="302" on="0"/>
        <pt x="186" y="470" on="0"/>
        <pt x="251" y="621" on="0"/>
        <pt x="286" y="693" on="1"/>
        <pt x="435" y="693" on="1"/>
        <pt x="469" y="622" on="0"/>
        <pt x="534" y="473" on="0"/>
        <pt x="601" y="306" on="0"/>
        <pt x="671" y="114" on="0"/>
        <pt x="711" y="0" on="1"/>
        <pt x="700" y="-8" on="0"/>
        <pt x="677" y="-30" on="0"/>
        <pt x="666" y="-41" on="1"/>
        <pt x="653" y="-54" on="0"/>
        <pt x="638" y="-77" on="0"/>
        <pt x="638" y="-88" on="1"/>
        <pt x="638" y="-99" on="0"/>
        <pt x="651" y="-113" on="0"/>
        <pt x="668" y="-113" on="1"/>
        <pt x="677" y="-113" on="0"/>
        <pt x="702" y="-110" on="0"/>
        <pt x="719" y="-105" on="1"/>
        <pt x="731" y="-205" on="1"/>
        <pt x="711" y="-213" on="0"/>
        <pt x="655" y="-221" on="0"/>
      </contour>
      <contour>
        <pt x="357" y="536" on="1"/>
        <pt x="352" y="521" on="0"/>
        <pt x="332" y="469" on="0"/>
        <pt x="306" y="401" on="0"/>
        <pt x="275" y="319" on="0"/>
        <pt x="259" y="274" on="1"/>
        <pt x="456" y="274" on="1"/>
        <pt x="440" y="319" on="0"/>
        <pt x="410" y="401" on="0"/>
        <pt x="383" y="469" on="0"/>
        <pt x="363" y="521" on="0"/>
      </contour>
    </TTGlyph>
    <TTGlyph name="Aring" xMin="10" yMin="0" xMax="711" yMax="882">
      <contour>
        <pt x="544" y="0" on="1"/>
        <pt x="533" y="36" on="0"/>
        <pt x="506" y="112" on="0"/>
        <pt x="493" y="150" on="1"/>
        <pt x="223" y="150" on="1"/>
        <pt x="210" y="112" on="0"/>
        <pt x="183" y="36" on="0"/>
        <pt x="172" y="0" on="1"/>
        <pt x="10" y="0" on="1"/>
        <pt x="48" y="109" on="0"/>
        <pt x="116" y="296" on="0"/>
        <pt x="182" y="461" on="0"/>
        <pt x="246" y="609" on="0"/>
        <pt x="280" y="680" on="1"/>
        <pt x="263" y="695" on="0"/>
        <pt x="243" y="738" on="0"/>
        <pt x="243" y="767" on="1"/>
        <pt x="243" y="795" on="0"/>
        <pt x="262" y="838" on="0"/>
        <pt x="295" y="867" on="0"/>
        <pt x="337" y="882" on="0"/>
        <pt x="360" y="882" on="1"/>
        <pt x="384" y="882" on="0"/>
        <pt x="427" y="867" on="0"/>
        <pt x="460" y="838" on="0"/>
        <pt x="479" y="795" on="0"/>
        <pt x="479" y="767" on="1"/>
        <pt x="479" y="738" on="0"/>
        <pt x="458" y="694" on="0"/>
        <pt x="441" y="680" on="1"/>
        <pt x="474" y="609" on="0"/>
        <pt x="539" y="461" on="0"/>
        <pt x="604" y="296" on="0"/>
        <pt x="673" y="109" on="0"/>
        <pt x="711" y="0" on="1"/>
      </contour>
      <contour>
        <pt x="357" y="536" on="1"/>
        <pt x="352" y="521" on="0"/>
        <pt x="332" y="469" on="0"/>
        <pt x="306" y="401" on="0"/>
        <pt x="275" y="319" on="0"/>
        <pt x="259" y="274" on="1"/>
        <pt x="456" y="274" on="1"/>
        <pt x="440" y="319" on="0"/>
        <pt x="410" y="401" on="0"/>
        <pt x="383" y="469" on="0"/>
        <pt x="363" y="521" on="0"/>
      </contour>
      <contour>
        <pt x="406" y="767" on="1"/>
        <pt x="406" y="790" on="0"/>
        <pt x="378" y="814" on="0"/>
        <pt x="360" y="814" on="1"/>
        <pt x="343" y="814" on="0"/>
        <pt x="315" y="790" on="0"/>
        <pt x="315" y="767" on="1"/>
        <pt x="315" y="744" on="0"/>
        <pt x="343" y="720" on="0"/>
        <pt x="360" y="720" on="1"/>
        <pt x="378" y="720" on="0"/>
        <pt x="406" y="744" on="0"/>
      </contour>
    </TTGlyph>
    <TTGlyph name="Aringacute" xMin="10" yMin="0" xMax="711" yMax="962">
      <contour>
        <pt x="544" y="0" on="1"/>
        <pt x="533" y="36" on="0"/>
        <pt x="506" y="112" on="0"/>
        <pt x="493" y="150" on="1"/>
        <pt x="223" y="150" on="1"/>
        <pt x="210" y="112" on="0"/>
        <pt x="183" y="36" on="0"/>
        <pt x="172" y="0" on="1"/>
        <pt x="10" y="0" on="1"/>
        <pt x="46" y="105" on="0"/>
        <pt x="112" y="285" on="0"/>
        <pt x="175" y="444" on="0"/>
        <pt x="236" y="588" on="0"/>
        <pt x="268" y="656" on="1"/>
        <pt x="254" y="679" on="0"/>
        <pt x="254" y="711" on="1"/>
        <pt x="254" y="736" on="0"/>
        <pt x="271" y="774" on="0"/>
        <pt x="299" y="800" on="0"/>
        <pt x="336" y="813" on="0"/>
        <pt x="357" y="813" on="1"/>
        <pt x="399" y="813" on="0"/>
        <pt x="462" y="762" on="0"/>
        <pt x="462" y="711" on="1"/>
        <pt x="462" y="696" on="0"/>
        <pt x="455" y="672" on="0"/>
        <pt x="450" y="661" on="1"/>
        <pt x="482" y="592" on="0"/>
        <pt x="544" y="447" on="0"/>
        <pt x="607" y="287" on="0"/>
        <pt x="674" y="105" on="0"/>
        <pt x="711" y="0" on="1"/>
      </contour>
      <contour>
        <pt x="357" y="536" on="1"/>
        <pt x="352" y="521" on="0"/>
        <pt x="332" y="469" on="0"/>
        <pt x="306" y="401" on="0"/>
        <pt x="275" y="319" on="0"/>
        <pt x="259" y="274" on="1"/>
        <pt x="456" y="274" on="1"/>
        <pt x="440" y="319" on="0"/>
        <pt x="409" y="401" on="0"/>
        <pt x="383" y="469" on="0"/>
        <pt x="363" y="521" on="0"/>
      </contour>
      <contour>
        <pt x="394" y="711" on="1"/>
        <pt x="394" y="729" on="0"/>
        <pt x="371" y="749" on="0"/>
        <pt x="357" y="749" on="1"/>
        <pt x="344" y="749" on="0"/>
        <pt x="321" y="729" on="0"/>
        <pt x="321" y="711" on="1"/>
        <pt x="321" y="693" on="0"/>
        <pt x="344" y="674" on="0"/>
        <pt x="357" y="674" on="1"/>
        <pt x="371" y="674" on="0"/>
        <pt x="394" y="693" on="0"/>
      </contour>
      <contour>
        <pt x="456" y="882" on="1"/>
        <pt x="287" y="818" on="1"/>
        <pt x="255" y="878" on="1"/>
        <pt x="417" y="962" on="1"/>
      </contour>
    </TTGlyph>
    <TTGlyph name="At" xMin="50" yMin="-95" xMax="924" yMax="787">
      <component glyphName="at" x="0" y="69" flags="0x214"/>
    </TTGlyph>
    <TTGlyph name="Atilde" xMin="10" yMin="0" xMax="711" yMax="920">
      <component glyphName="A" x="0" y="0" flags="0x204"/>
      <component glyphName="tilde" x="174" y="163" flags="0x4"/>
    </TTGlyph>
    <TTGlyph name="B" xMin="80" yMin="-9" xMax="627" yMax="701">
      <contour>
        <pt x="311" y="-9" on="1"/>
        <pt x="254" y="-9" on="0"/>
        <pt x="141" y="-2" on="0"/>
        <pt x="80" y="11" on="1"/>
        <pt x="80" y="683" on="1"/>
        <pt x="128" y="692" on="0"/>
        <pt x="242" y="701" on="0"/>
        <pt x="291" y="701" on="1"/>
        <pt x="357" y="701" on="0"/>
        <pt x="468" y="682" on="0"/>
        <pt x="548" y="636" on="0"/>
        <pt x="593" y="561" on="0"/>
        <pt x="593" y="506" on="1"/>
        <pt x="593" y="423" on="0"/>
        <pt x="513" y="375" on="1"/>
        <pt x="579" y="350" on="0"/>
        <pt x="627" y="264" on="0"/>
        <pt x="627" y="210" on="1"/>
        <pt x="627" y="101" on="0"/>
        <pt x="468" y="-9" on="0"/>
      </contour>
      <contour>
        <pt x="232" y="302" on="1"/>
        <pt x="232" y="123" on="1"/>
        <pt x="249" y="121" on="0"/>
        <pt x="289" y="119" on="0"/>
        <pt x="313" y="119" on="1"/>
        <pt x="383" y="119" on="0"/>
        <pt x="469" y="159" on="0"/>
        <pt x="469" y="213" on="1"/>
        <pt x="469" y="261" on="0"/>
        <pt x="397" y="302" on="0"/>
        <pt x="330" y="302" on="1"/>
      </contour>
      <contour>
        <pt x="232" y="421" on="1"/>
        <pt x="308" y="421" on="1"/>
        <pt x="380" y="421" on="0"/>
        <pt x="442" y="458" on="0"/>
        <pt x="442" y="499" on="1"/>
        <pt x="442" y="541" on="0"/>
        <pt x="378" y="575" on="0"/>
        <pt x="316" y="575" on="1"/>
        <pt x="296" y="575" on="0"/>
        <pt x="250" y="574" on="0"/>
        <pt x="232" y="572" on="1"/>
      </contour>
    </TTGlyph>
    <TTGlyph name="Backslash" xMin="-25" yMin="-138" xMax="462" yMax="830">
      <component glyphName="backslash" x="0" y="47" flags="0x214"/>
    </TTGlyph>
    <TTGlyph name="Beta" xMin="80" yMin="-9" xMax="627" yMax="701">
      <component glyphName="B" x="0" y="0" flags="0x204"/>
    </TTGlyph>
    <TTGlyph name="Braceleft" xMin="35" yMin="-138" xMax="361" yMax="830">
      <component glyphName="braceleft" x="0" y="47" flags="0x214"/>
    </TTGlyph>
    <TTGlyph name="Braceright" xMin="10" yMin="-138" xMax="336" yMax="830">
      <component glyphName="braceright" x="0" y="47" flags="0x214"/>
    </TTGlyph>
    <TTGlyph name="Bracketleft" xMin="90" yMin="-138" xMax="361" yMax="830">
      <component glyphName="bracketleft" x="0" y="47" flags="0x214"/>
    </TTGlyph>
    <TTGlyph name="Bracketright" xMin="10" yMin="-138" xMax="281" yMax="830">
      <component glyphName="bracketright" x="0" y="47" flags="0x214"/>
    </TTGlyph>
    <TTGlyph name="Bullet" xMin="38" yMin="211" xMax="326" yMax="495">
      <component glyphName="bullet" x="0" y="0" flags="0x204"/>
    </TTGlyph>
    <TTGlyph name="C" xMin="50" yMin="-14" xMax="628" yMax="709">
      <contour>
        <pt x="396" y="-14" on="1"/>
        <pt x="227" y="-14" on="0"/>
        <pt x="50" y="174" on="0"/>
        <pt x="50" y="347" on="1"/>
        <pt x="50" y="433" on="0"/>
        <pt x="104" y="568" on="0"/>
        <pt x="198" y="661" on="0"/>
        <pt x="328" y="709" on="0"/>
        <pt x="404" y="709" on="1"/>
        <pt x="448" y="709" on="0"/>
        <pt x="520" y="696" on="0"/>
        <pt x="574" y="679" on="0"/>
        <pt x="610" y="661" on="0"/>
        <pt x="618" y="656" on="1"/>
        <pt x="573" y="530" on="1"/>
        <pt x="541" y="547" on="0"/>
        <pt x="456" y="571" on="0"/>
        <pt x="402" y="571" on="1"/>
        <pt x="366" y="571" on="0"/>
        <pt x="297" y="547" on="0"/>
        <pt x="244" y="494" on="0"/>
        <pt x="212" y="410" on="0"/>
        <pt x="212" y="350" on="1"/>
        <pt x="212" y="302" on="0"/>
        <pt x="233" y="219" on="0"/>
        <pt x="280" y="159" on="0"/>
        <pt x="356" y="124" on="0"/>
        <pt x="410" y="124" on="1"/>
        <pt x="444" y="124" on="0"/>
        <pt x="498" y="132" on="0"/>
        <pt x="540" y="143" on="0"/>
        <pt x="572" y="157" on="0"/>
        <pt x="585" y="163" on="1"/>
        <pt x="628" y="38" on="1"/>
        <pt x="595" y="18" on="0"/>
        <pt x="475" y="-14" on="0"/>
      </contour>
    </TTGlyph>
    <TTGlyph name="Cacute" xMin="50" yMin="-14" xMax="628" yMax="959">
      <component glyphName="C" x="0" y="0" flags="0x204"/>
      <component glyphName="acute" x="260" y="160" flags="0x4"/>
    </TTGlyph>
    <TTGlyph name="Ccaron" xMin="50" yMin="-14" xMax="628" yMax="950">
      <component glyphName="C" x="0" y="0" flags="0x204"/>
      <component glyphName="caron" x="191" y="161" flags="0x4"/>
    </TTGlyph>
    <TTGlyph name="Ccedilla" xMin="50" yMin="-221" xMax="628" yMax="709">
      <contour>
        <pt x="432" y="-13" on="1"/>
        <pt x="428" y="-21" on="0"/>
        <pt x="422" y="-35" on="0"/>
        <pt x="420" y="-40" on="1"/>
        <pt x="452" y="-56" on="0"/>
        <pt x="476" y="-100" on="0"/>
        <pt x="476" y="-123" on="1"/>
        <pt x="476" y="-171" on="0"/>
        <pt x="400" y="-221" on="0"/>
        <pt x="338" y="-221" on="1"/>
        <pt x="316" y="-221" on="0"/>
        <pt x="272" y="-214" on="0"/>
        <pt x="250" y="-208" on="1"/>
        <pt x="268" y="-121" on="1"/>
        <pt x="275" y="-123" on="0"/>
        <pt x="312" y="-132" on="0"/>
        <pt x="330" y="-132" on="1"/>
        <pt x="344" y="-132" on="0"/>
        <pt x="365" y="-121" on="0"/>
        <pt x="366" y="-107" on="1"/>
        <pt x="367" y="-95" on="0"/>
        <pt x="346" y="-75" on="0"/>
        <pt x="323" y="-70" on="1"/>
        <pt x="311" y="-67" on="1"/>
        <pt x="315" y="-55" on="0"/>
        <pt x="328" y="-24" on="0"/>
        <pt x="334" y="-10" on="1"/>
        <pt x="194" y="7" on="0"/>
        <pt x="50" y="190" on="0"/>
        <pt x="50" y="347" on="1"/>
        <pt x="50" y="433" on="0"/>
        <pt x="104" y="568" on="0"/>
        <pt x="198" y="661" on="0"/>
        <pt x="328" y="709" on="0"/>
        <pt x="404" y="709" on="1"/>
        <pt x="448" y="709" on="0"/>
        <pt x="520" y="696" on="0"/>
        <pt x="574" y="679" on="0"/>
        <pt x="610" y="661" on="0"/>
        <pt x="618" y="656" on="1"/>
        <pt x="573" y="530" on="1"/>
        <pt x="541" y="547" on="0"/>
        <pt x="456" y="571" on="0"/>
        <pt x="402" y="571" on="1"/>
        <pt x="366" y="571" on="0"/>
        <pt x="297" y="547" on="0"/>
        <pt x="244" y="494" on="0"/>
        <pt x="212" y="410" on="0"/>
        <pt x="212" y="350" on="1"/>
        <pt x="212" y="302" on="0"/>
        <pt x="233" y="219" on="0"/>
        <pt x="280" y="159" on="0"/>
        <pt x="356" y="124" on="0"/>
        <pt x="410" y="124" on="1"/>
        <pt x="444" y="124" on="0"/>
        <pt x="498" y="132" on="0"/>
        <pt x="540" y="143" on="0"/>
        <pt x="572" y="157" on="0"/>
        <pt x="585" y="163" on="1"/>
        <pt x="628" y="38" on="1"/>
        <pt x="599" y="20" on="0"/>
        <pt x="498" y="-9" on="0"/>
      </contour>
    </TTGlyph>
    <TTGlyph name="Ccircumflex" xMin="50" yMin="-14" xMax="628" yMax="948">
      <component glyphName="C" x="0" y="0" flags="0x204"/>
      <component glyphName="circumflex" x="195" y="166" flags="0x4"/>
    </TTGlyph>
    <TTGlyph name="Cdotaccent" xMin="50" yMin="-14" xMax="628" yMax="916">
      <component glyphName="C" x="0" y="0" flags="0x204"/>
      <component glyphName="dotaccent" x="269" y="160" flags="0x4"/>
    </TTGlyph>
    <TTGlyph name="Chi" xMin="10" yMin="0" xMax="665" yMax="693">
      <component glyphName="X" x="0" y="0" flags="0x204"/>
    </TTGlyph>
    <TTGlyph name="D" xMin="80" yMin="-9" xMax="687" yMax="701">
      <contour>
        <pt x="236" y="127" on="1"/>
        <pt x="247" y="126" on="0"/>
        <pt x="276" y="125" on="0"/>
        <pt x="296" y="125" on="1"/>
        <pt x="413" y="125" on="0"/>
        <pt x="526" y="243" on="0"/>
        <pt x="526" y="347" on="1"/>
        <pt x="526" y="456" on="0"/>
        <pt x="418" y="568" on="0"/>
        <pt x="301" y="568" on="1"/>
        <pt x="285" y="568" on="0"/>
        <pt x="251" y="567" on="0"/>
        <pt x="236" y="565" on="1"/>
      </contour>
      <contour>
        <pt x="687" y="347" on="1"/>
        <pt x="687" y="257" on="0"/>
        <pt x="631" y="123" on="0"/>
        <pt x="528" y="35" on="0"/>
        <pt x="380" y="-9" on="0"/>
        <pt x="288" y="-9" on="1"/>
        <pt x="246" y="-9" on="0"/>
        <pt x="134" y="-2" on="0"/>
        <pt x="80" y="9" on="1"/>
        <pt x="80" y="684" on="1"/>
        <pt x="134" y="694" on="0"/>
        <pt x="251" y="701" on="0"/>
        <pt x="293" y="701" on="1"/>
        <pt x="382" y="701" on="0"/>
        <pt x="527" y="661" on="0"/>
        <pt x="631" y="575" on="0"/>
        <pt x="687" y="441" on="0"/>
      </contour>
    </TTGlyph>
    <TTGlyph name="Dcaron" xMin="80" yMin="-9" xMax="687" yMax="950">
      <component glyphName="D" x="0" y="0" flags="0x204"/>
      <component glyphName="caron" x="153" y="161" flags="0x4"/>
    </TTGlyph>
    <TTGlyph name="Dcroat" xMin="10" yMin="-9" xMax="698" yMax="701">
      <component glyphName="Eth" x="0" y="0" flags="0x204"/>
    </TTGlyph>
    <TTGlyph name="Delta" xMin="10" yMin="0" xMax="683" yMax="693">
      <contour>
        <pt x="10" y="0" on="1"/>
        <pt x="45" y="110" on="0"/>
        <pt x="111" y="294" on="0"/>
        <pt x="176" y="459" on="0"/>
        <pt x="243" y="613" on="0"/>
        <pt x="281" y="693" on="1"/>
        <pt x="411" y="693" on="1"/>
        <pt x="448" y="613" on="0"/>
        <pt x="517" y="458" on="0"/>
        <pt x="583" y="293" on="0"/>
        <pt x="648" y="109" on="0"/>
        <pt x="683" y="0" on="1"/>
      </contour>
      <contour>
        <pt x="483" y="130" on="1"/>
        <pt x="440" y="255" on="0"/>
        <pt x="369" y="455" on="0"/>
        <pt x="344" y="508" on="1"/>
        <pt x="332" y="481" on="0"/>
        <pt x="302" y="403" on="0"/>
        <pt x="267" y="305" on="0"/>
        <pt x="228" y="192" on="0"/>
        <pt x="207" y="130" on="1"/>
      </contour>
    </TTGlyph>
    <TTGlyph name="E" xMin="80" yMin="0" xMax="571" yMax="693">
      <contour>
        <pt x="80" y="0" on="1"/>
        <pt x="80" y="693" on="1"/>
        <pt x="548" y="693" on="1"/>
        <pt x="548" y="562" on="1"/>
        <pt x="236" y="562" on="1"/>
        <pt x="236" y="426" on="1"/>
        <pt x="513" y="426" on="1"/>
        <pt x="513" y="298" on="1"/>
        <pt x="236" y="298" on="1"/>
        <pt x="236" y="131" on="1"/>
        <pt x="571" y="131" on="1"/>
        <pt x="571" y="0" on="1"/>
      </contour>
    </TTGlyph>
    <TTGlyph name="Eacute" xMin="80" yMin="0" xMax="571" yMax="959">
      <component glyphName="E" x="0" y="0" flags="0x204"/>
      <component glyphName="acute" x="181" y="160" flags="0x4"/>
    </TTGlyph>
    <TTGlyph name="Ebreve" xMin="80" yMin="0" xMax="571" yMax="917">
      <component glyphName="E" x="0" y="0" flags="0x204"/>
      <component glyphName="breve" x="115" y="153" flags="0x4"/>
    </TTGlyph>
    <TTGlyph name="Ecaron" xMin="80" yMin="0" xMax="571" yMax="950">
      <component glyphName="E" x="0" y="0" flags="0x204"/>
      <component glyphName="caron" x="117" y="161" flags="0x4"/>
    </TTGlyph>
    <TTGlyph name="Ecircumflex" xMin="80" yMin="0" xMax="571" yMax="948">
      <component glyphName="E" x="0" y="0" flags="0x204"/>
      <component glyphName="circumflex" x="117" y="166" flags="0x4"/>
    </TTGlyph>
    <TTGlyph name="Edieresis" xMin="80" yMin="0" xMax="571" yMax="914">
      <component glyphName="E" x="0" y="0" flags="0x204"/>
      <component glyphName="dieresis" x="44" y="160" flags="0x4"/>
    </TTGlyph>
    <TTGlyph name="Edotaccent" xMin="80" yMin="0" xMax="571" yMax="916">
      <component glyphName="E" x="0" y="0" flags="0x204"/>
      <component glyphName="dotaccent" x="200" y="160" flags="0x4"/>
    </TTGlyph>
    <TTGlyph name="Egrave" xMin="80" yMin="0" xMax="571" yMax="959">
      <component glyphName="E" x="0" y="0" flags="0x204"/>
      <component glyphName="grave" x="171" y="160" flags="0x4"/>
    </TTGlyph>
    <TTGlyph name="Emacron" xMin="80" yMin="0" xMax="571" yMax="878">
      <component glyphName="E" x="0" y="0" flags="0x204"/>
      <component glyphName="macron" x="128" y="153" flags="0x4"/>
    </TTGlyph>
    <TTGlyph name="Emdash" xMin="0" yMin="284" xMax="1000" yMax="408">
      <component glyphName="emdash" x="0" y="47" flags="0x214"/>
    </TTGlyph>
    <TTGlyph name="Endash" xMin="0" yMin="284" xMax="500" yMax="408">
      <component glyphName="endash" x="0" y="47" flags="0x214"/>
    </TTGlyph>
    <TTGlyph name="Eng" xMin="80" yMin="-187" xMax="676" yMax="693">
      <contour>
        <pt x="521" y="42" on="1"/>
        <pt x="458" y="151" on="0"/>
        <pt x="313" y="360" on="0"/>
        <pt x="234" y="454" on="1"/>
        <pt x="234" y="0" on="1"/>
        <pt x="80" y="0" on="1"/>
        <pt x="80" y="693" on="1"/>
        <pt x="207" y="693" on="1"/>
        <pt x="240" y="660" on="0"/>
        <pt x="320" y="564" on="0"/>
        <pt x="403" y="455" on="0"/>
        <pt x="485" y="338" on="0"/>
        <pt x="521" y="284" on="1"/>
        <pt x="521" y="693" on="1"/>
        <pt x="676" y="693" on="1"/>
        <pt x="676" y="17" on="1"/>
        <pt x="676" y="-87" on="0"/>
        <pt x="582" y="-187" on="0"/>
        <pt x="479" y="-187" on="1"/>
        <pt x="465" y="-187" on="0"/>
        <pt x="416" y="-182" on="0"/>
        <pt x="392" y="-174" on="1"/>
        <pt x="412" y="-53" on="1"/>
        <pt x="427" y="-58" on="0"/>
        <pt x="446" y="-61" on="0"/>
        <pt x="465" y="-61" on="1"/>
        <pt x="497" y="-61" on="0"/>
        <pt x="521" y="-19" on="0"/>
        <pt x="521" y="21" on="1"/>
      </contour>
    </TTGlyph>
    <TTGlyph name="Eogonek" xMin="80" yMin="-221" xMax="591" yMax="693">
      <contour>
        <pt x="492" y="-221" on="1"/>
        <pt x="425" y="-221" on="0"/>
        <pt x="367" y="-171" on="0"/>
        <pt x="367" y="-130" on="1"/>
        <pt x="367" y="-109" on="0"/>
        <pt x="385" y="-69" on="0"/>
        <pt x="400" y="-50" on="1"/>
        <pt x="412" y="-35" on="0"/>
        <pt x="439" y="-10" on="0"/>
        <pt x="452" y="0" on="1"/>
        <pt x="80" y="0" on="1"/>
        <pt x="80" y="693" on="1"/>
        <pt x="548" y="693" on="1"/>
        <pt x="548" y="562" on="1"/>
        <pt x="236" y="562" on="1"/>
        <pt x="236" y="426" on="1"/>
        <pt x="513" y="426" on="1"/>
        <pt x="513" y="298" on="1"/>
        <pt x="236" y="298" on="1"/>
        <pt x="236" y="131" on="1"/>
        <pt x="571" y="131" on="1"/>
        <pt x="571" y="0" on="1"/>
        <pt x="561" y="-8" on="0"/>
        <pt x="537" y="-30" on="0"/>
        <pt x="526" y="-41" on="1"/>
        <pt x="513" y="-54" on="0"/>
        <pt x="498" y="-77" on="0"/>
        <pt x="498" y="-88" on="1"/>
        <pt x="498" y="-99" on="0"/>
        <pt x="511" y="-113" on="0"/>
        <pt x="528" y="-113" on="1"/>
        <pt x="537" y="-113" on="0"/>
        <pt x="562" y="-110" on="0"/>
        <pt x="579" y="-105" on="1"/>
        <pt x="591" y="-205" on="1"/>
        <pt x="571" y="-213" on="0"/>
        <pt x="515" y="-221" on="0"/>
      </contour>
    </TTGlyph>
    <TTGlyph name="Epsilon" xMin="80" yMin="0" xMax="571" yMax="693">
      <component glyphName="E" x="0" y="0" flags="0x204"/>
    </TTGlyph>
    <TTGlyph name="Epsilontonos" xMin="-3" yMin="0" xMax="712" yMax="717">
      <component glyphName="E" x="141" y="0" flags="0x4"/>
      <component glyphName="tonos.cap" x="-108" y="0" flags="0x4"/>
    </TTGlyph>
    <TTGlyph name="Eta" xMin="80" yMin="0" xMax="654" yMax="693">
      <component glyphName="H" x="0" y="0" flags="0x204"/>
    </TTGlyph>
    <TTGlyph name="Etatonos" xMin="-3" yMin="0" xMax="795" yMax="717">
      <component glyphName="H" x="141" y="0" flags="0x4"/>
      <component glyphName="tonos.cap" x="-108" y="0" flags="0x4"/>
    </TTGlyph>
    <TTGlyph name="Eth" xMin="10" yMin="-9" xMax="698" yMax="701">
      <contour>
        <pt x="247" y="127" on="1"/>
        <pt x="258" y="126" on="0"/>
        <pt x="287" y="125" on="0"/>
        <pt x="307" y="125" on="1"/>
        <pt x="424" y="125" on="0"/>
        <pt x="537" y="243" on="0"/>
        <pt x="537" y="347" on="1"/>
        <pt x="537" y="456" on="0"/>
        <pt x="429" y="568" on="0"/>
        <pt x="312" y="568" on="1"/>
        <pt x="296" y="568" on="0"/>
        <pt x="262" y="567" on="0"/>
        <pt x="247" y="565" on="1"/>
        <pt x="247" y="417" on="1"/>
        <pt x="373" y="417" on="1"/>
        <pt x="373" y="302" on="1"/>
        <pt x="247" y="302" on="1"/>
      </contour>
      <contour>
        <pt x="698" y="347" on="1"/>
        <pt x="698" y="257" on="0"/>
        <pt x="642" y="123" on="0"/>
        <pt x="539" y="35" on="0"/>
        <pt x="391" y="-9" on="0"/>
        <pt x="299" y="-9" on="1"/>
        <pt x="257" y="-9" on="0"/>
        <pt x="145" y="-2" on="0"/>
        <pt x="91" y="9" on="1"/>
        <pt x="91" y="302" on="1"/>
        <pt x="10" y="302" on="1"/>
        <pt x="10" y="417" on="1"/>
        <pt x="91" y="417" on="1"/>
        <pt x="91" y="684" on="1"/>
        <pt x="145" y="694" on="0"/>
        <pt x="262" y="701" on="0"/>
        <pt x="304" y="701" on="1"/>
        <pt x="393" y="701" on="0"/>
        <pt x="538" y="661" on="0"/>
        <pt x="642" y="575" on="0"/>
        <pt x="698" y="441" on="0"/>
      </contour>
    </TTGlyph>
    <TTGlyph name="Euro" xMin="46" yMin="-13" xMax="565" yMax="707">
      <contour>
        <pt x="122" y="481" on="1"/>
        <pt x="148" y="593" on="0"/>
        <pt x="294" y="707" on="0"/>
        <pt x="408" y="707" on="1"/>
        <pt x="453" y="707" on="0"/>
        <pt x="517" y="693" on="0"/>
        <pt x="549" y="681" on="1"/>
        <pt x="518" y="565" on="1"/>
        <pt x="494" y="573" on="0"/>
        <pt x="444" y="584" on="0"/>
        <pt x="407" y="584" on="1"/>
        <pt x="347" y="584" on="0"/>
        <pt x="280" y="532" on="0"/>
        <pt x="265" y="481" on="1"/>
        <pt x="487" y="481" on="1"/>
        <pt x="468" y="382" on="1"/>
        <pt x="252" y="382" on="1"/>
        <pt x="251" y="371" on="0"/>
        <pt x="251" y="356" on="0"/>
        <pt x="251" y="348" on="1"/>
        <pt x="251" y="340" on="0"/>
        <pt x="251" y="328" on="0"/>
        <pt x="252" y="317" on="1"/>
        <pt x="456" y="317" on="1"/>
        <pt x="437" y="218" on="1"/>
        <pt x="265" y="218" on="1"/>
        <pt x="282" y="158" on="0"/>
        <pt x="350" y="111" on="0"/>
        <pt x="401" y="111" on="1"/>
        <pt x="434" y="111" on="0"/>
        <pt x="502" y="123" on="0"/>
        <pt x="536" y="137" on="1"/>
        <pt x="565" y="22" on="1"/>
        <pt x="538" y="8" on="0"/>
        <pt x="453" y="-13" on="0"/>
        <pt x="396" y="-13" on="1"/>
        <pt x="271" y="-13" on="0"/>
        <pt x="139" y="108" on="0"/>
        <pt x="118" y="218" on="1"/>
        <pt x="46" y="218" on="1"/>
        <pt x="46" y="317" on="1"/>
        <pt x="109" y="317" on="1"/>
        <pt x="108" y="328" on="0"/>
        <pt x="108" y="340" on="0"/>
        <pt x="108" y="348" on="1"/>
        <pt x="108" y="356" on="0"/>
        <pt x="108" y="374" on="0"/>
        <pt x="109" y="382" on="1"/>
        <pt x="46" y="382" on="1"/>
        <pt x="46" y="481" on="1"/>
      </contour>
    </TTGlyph>
    <TTGlyph name="Exclamdown" xMin="50" yMin="0" xMax="236" yMax="706">
      <component glyphName="exclamdown" x="0" y="180" flags="0x214"/>
    </TTGlyph>
    <TTGlyph name="F" xMin="80" yMin="0" xMax="544" yMax="693">
      <contour>
        <pt x="80" y="0" on="1"/>
        <pt x="80" y="693" on="1"/>
        <pt x="544" y="693" on="1"/>
        <pt x="544" y="562" on="1"/>
        <pt x="236" y="562" on="1"/>
        <pt x="236" y="417" on="1"/>
        <pt x="510" y="417" on="1"/>
        <pt x="510" y="286" on="1"/>
        <pt x="236" y="286" on="1"/>
        <pt x="236" y="0" on="1"/>
      </contour>
    </TTGlyph>
    <TTGlyph name="G" xMin="50" yMin="-13" xMax="637" yMax="709">
      <contour>
        <pt x="418" y="573" on="1"/>
        <pt x="309" y="573" on="0"/>
        <pt x="212" y="452" on="0"/>
        <pt x="212" y="347" on="1"/>
        <pt x="212" y="296" on="0"/>
        <pt x="236" y="213" on="0"/>
        <pt x="284" y="153" on="0"/>
        <pt x="356" y="120" on="0"/>
        <pt x="404" y="120" on="1"/>
        <pt x="430" y="120" on="0"/>
        <pt x="467" y="122" on="0"/>
        <pt x="481" y="125" on="1"/>
        <pt x="481" y="366" on="1"/>
        <pt x="637" y="366" on="1"/>
        <pt x="637" y="23" on="1"/>
        <pt x="609" y="12" on="0"/>
        <pt x="485" y="-13" on="0"/>
        <pt x="394" y="-13" on="1"/>
        <pt x="316" y="-13" on="0"/>
        <pt x="189" y="35" on="0"/>
        <pt x="99" y="127" on="0"/>
        <pt x="50" y="261" on="0"/>
        <pt x="50" y="347" on="1"/>
        <pt x="50" y="434" on="0"/>
        <pt x="104" y="568" on="0"/>
        <pt x="198" y="661" on="0"/>
        <pt x="325" y="709" on="0"/>
        <pt x="397" y="709" on="1"/>
        <pt x="446" y="709" on="0"/>
        <pt x="525" y="696" on="0"/>
        <pt x="582" y="679" on="0"/>
        <pt x="619" y="661" on="0"/>
        <pt x="627" y="656" on="1"/>
        <pt x="582" y="531" on="1"/>
        <pt x="550" y="548" on="0"/>
        <pt x="467" y="573" on="0"/>
      </contour>
    </TTGlyph>
    <TTGlyph name="Gamma" xMin="80" yMin="0" xMax="553" yMax="693">
      <component glyphName="afii10020" x="0" y="0" flags="0x204"/>
    </TTGlyph>
    <TTGlyph name="Gbreve" xMin="50" yMin="-13" xMax="637" yMax="917">
      <component glyphName="G" x="0" y="0" flags="0x204"/>
      <component glyphName="breve" x="184" y="153" flags="0x4"/>
    </TTGlyph>
    <TTGlyph name="Gcaron" xMin="50" yMin="-13" xMax="637" yMax="950">
      <component glyphName="G" x="0" y="0" flags="0x204"/>
      <component glyphName="caron" x="200" y="161" flags="0x4"/>
    </TTGlyph>
    <TTGlyph name="Gcircumflex" xMin="50" yMin="-13" xMax="637" yMax="948">
      <component glyphName="G" x="0" y="0" flags="0x204"/>
      <component glyphName="circumflex" x="194" y="166" flags="0x4"/>
    </TTGlyph>
    <TTGlyph name="Gcommaaccent" xMin="50" yMin="-220" xMax="637" yMax="709">
      <component glyphName="G" x="0" y="0" flags="0x204"/>
      <component glyphName="commaaccent" x="261" y="0" flags="0x4"/>
    </TTGlyph>
    <TTGlyph name="Gdotaccent" xMin="50" yMin="-13" xMax="637" yMax="916">
      <component glyphName="G" x="0" y="0" flags="0x204"/>
      <component glyphName="dotaccent" x="269" y="160" flags="0x4"/>
    </TTGlyph>
    <TTGlyph name="Guillemotleft" xMin="20" yMin="106" xMax="567" yMax="586">
      <component glyphName="guilsinglleft" x="0" y="62" flags="0x4"/>
      <component glyphName="guilsinglleft" x="270" y="62" flags="0x4"/>
    </TTGlyph>
    <TTGlyph name="Guillemotright" xMin="30" yMin="106" xMax="577" yMax="586">
      <component glyphName="guilsinglright" x="0" y="62" flags="0x4"/>
      <component glyphName="guilsinglright" x="270" y="62" flags="0x4"/>
    </TTGlyph>
    <TTGlyph name="Guilsinglleft" xMin="20" yMin="106" xMax="297" yMax="586">
      <component glyphName="guilsinglleft" x="0" y="62" flags="0x214"/>
    </TTGlyph>
    <TTGlyph name="Guilsinglright" xMin="30" yMin="106" xMax="307" yMax="586">
      <component glyphName="guilsinglright" x="0" y="62" flags="0x214"/>
    </TTGlyph>
    <TTGlyph name="H" xMin="80" yMin="0" xMax="654" yMax="693">
      <contour>
        <pt x="498" y="693" on="1"/>
        <pt x="654" y="693" on="1"/>
        <pt x="654" y="0" on="1"/>
        <pt x="498" y="0" on="1"/>
        <pt x="498" y="294" on="1"/>
        <pt x="236" y="294" on="1"/>
        <pt x="236" y="0" on="1"/>
        <pt x="80" y="0" on="1"/>
        <pt x="80" y="693" on="1"/>
        <pt x="236" y="693" on="1"/>
        <pt x="236" y="428" on="1"/>
        <pt x="498" y="428" on="1"/>
      </contour>
    </TTGlyph>
    <TTGlyph name="Hbar" xMin="10" yMin="0" xMax="746" yMax="693">
      <contour>
        <pt x="10" y="612" on="1"/>
        <pt x="91" y="612" on="1"/>
        <pt x="91" y="693" on="1"/>
        <pt x="247" y="693" on="1"/>
        <pt x="247" y="612" on="1"/>
        <pt x="509" y="612" on="1"/>
        <pt x="509" y="693" on="1"/>
        <pt x="665" y="693" on="1"/>
        <pt x="665" y="612" on="1"/>
        <pt x="746" y="612" on="1"/>
        <pt x="746" y="502" on="1"/>
        <pt x="665" y="502" on="1"/>
        <pt x="665" y="0" on="1"/>
        <pt x="509" y="0" on="1"/>
        <pt x="509" y="284" on="1"/>
        <pt x="247" y="284" on="1"/>
        <pt x="247" y="0" on="1"/>
        <pt x="91" y="0" on="1"/>
        <pt x="91" y="502" on="1"/>
        <pt x="10" y="502" on="1"/>
      </contour>
      <contour>
        <pt x="509" y="502" on="1"/>
        <pt x="247" y="502" on="1"/>
        <pt x="247" y="418" on="1"/>
        <pt x="509" y="418" on="1"/>
      </contour>
    </TTGlyph>
    <TTGlyph name="Hcircumflex" xMin="80" yMin="0" xMax="654" yMax="948">
      <component glyphName="H" x="0" y="0" flags="0x204"/>
      <component glyphName="circumflex" x="168" y="166" flags="0x4"/>
    </TTGlyph>
    <TTGlyph name="Hyphen" xMin="25" yMin="279" xMax="315" yMax="414">
      <component glyphName="hyphen" x="0" y="48" flags="0x214"/>
    </TTGlyph>
    <TTGlyph name="I" xMin="80" yMin="0" xMax="236" yMax="693">
      <contour>
        <pt x="80" y="693" on="1"/>
        <pt x="236" y="693" on="1"/>
        <pt x="236" y="0" on="1"/>
        <pt x="80" y="0" on="1"/>
      </contour>
    </TTGlyph>
    <TTGlyph name="IJ" xMin="80" yMin="-14" xMax="771" yMax="693">
      <component glyphName="I" x="0" y="0" flags="0x4"/>
      <component glyphName="J" x="312" y="0" flags="0x4"/>
    </TTGlyph>
    <TTGlyph name="Iacute" xMin="50" yMin="0" xMax="283" yMax="959">
      <component glyphName="I" x="0" y="0" flags="0x204"/>
      <component glyphName="acute" x="24" y="160" flags="0x4"/>
    </TTGlyph>
    <TTGlyph name="Ibreve" xMin="8" yMin="0" xMax="332" yMax="917">
      <component glyphName="I" x="0" y="0" flags="0x204"/>
      <component glyphName="breve" x="-35" y="153" flags="0x4"/>
    </TTGlyph>
    <TTGlyph name="Icircumflex" xMin="4" yMin="0" xMax="316" yMax="948">
      <component glyphName="I" x="0" y="0" flags="0x204"/>
      <component glyphName="circumflex" x="-38" y="166" flags="0x4"/>
    </TTGlyph>
    <TTGlyph name="Idieresis" xMin="-28" yMin="0" xMax="349" yMax="914">
      <component glyphName="I" x="0" y="0" flags="0x204"/>
      <component glyphName="dieresis" x="-107" y="160" flags="0x4"/>
    </TTGlyph>
    <TTGlyph name="Idotaccent" xMin="78" yMin="0" xMax="236" yMax="916">
      <component glyphName="I" x="0" y="0" flags="0x204"/>
      <component glyphName="dotaccent" x="34" y="160" flags="0x4"/>
    </TTGlyph>
    <TTGlyph name="Igrave" xMin="35" yMin="0" xMax="268" yMax="959">
      <component glyphName="I" x="0" y="0" flags="0x204"/>
      <component glyphName="grave" x="15" y="160" flags="0x4"/>
    </TTGlyph>
    <TTGlyph name="Imacron" xMin="-1" yMin="0" xMax="321" yMax="878">
      <component glyphName="I" x="0" y="0" flags="0x204"/>
      <component glyphName="macron" x="-28" y="153" flags="0x4"/>
    </TTGlyph>
    <TTGlyph name="Iogonek" xMin="32" yMin="-221" xMax="256" yMax="693">
      <contour>
        <pt x="80" y="693" on="1"/>
        <pt x="236" y="693" on="1"/>
        <pt x="236" y="0" on="1"/>
        <pt x="226" y="-8" on="0"/>
        <pt x="202" y="-30" on="0"/>
        <pt x="191" y="-41" on="1"/>
        <pt x="178" y="-54" on="0"/>
        <pt x="163" y="-77" on="0"/>
        <pt x="163" y="-88" on="1"/>
        <pt x="163" y="-99" on="0"/>
        <pt x="176" y="-113" on="0"/>
        <pt x="193" y="-113" on="1"/>
        <pt x="202" y="-113" on="0"/>
        <pt x="227" y="-110" on="0"/>
        <pt x="244" y="-105" on="1"/>
        <pt x="256" y="-205" on="1"/>
        <pt x="236" y="-213" on="0"/>
        <pt x="180" y="-221" on="0"/>
        <pt x="157" y="-221" on="1"/>
        <pt x="90" y="-221" on="0"/>
        <pt x="32" y="-171" on="0"/>
        <pt x="32" y="-130" on="1"/>
        <pt x="32" y="-109" on="0"/>
        <pt x="50" y="-69" on="0"/>
        <pt x="65" y="-50" on="1"/>
        <pt x="77" y="-35" on="0"/>
        <pt x="104" y="-10" on="0"/>
        <pt x="117" y="0" on="1"/>
        <pt x="80" y="0" on="1"/>
      </contour>
    </TTGlyph>
    <TTGlyph name="Iota" xMin="80" yMin="0" xMax="236" yMax="693">
      <component glyphName="I" x="0" y="0" flags="0x204"/>
    </TTGlyph>
    <TTGlyph name="Iotadieresis" xMin="-28" yMin="0" xMax="349" yMax="921">
      <component glyphName="I" x="0" y="0" flags="0x204"/>
      <component glyphName="dieresis" x="-107" y="167" flags="0x4"/>
    </TTGlyph>
    <TTGlyph name="Iotatonos" xMin="-3" yMin="0" xMax="377" yMax="717">
      <component glyphName="I" x="141" y="0" flags="0x4"/>
      <component glyphName="tonos.cap" x="-108" y="0" flags="0x4"/>
    </TTGlyph>
    <TTGlyph name="Itilde" xMin="-25" yMin="0" xMax="345" yMax="920">
      <component glyphName="I" x="0" y="0" flags="0x204"/>
      <component glyphName="tilde" x="-29" y="163" flags="0x4"/>
    </TTGlyph>
    <TTGlyph name="J" xMin="10" yMin="-14" xMax="459" yMax="693">
      <contour>
        <pt x="459" y="233" on="1"/>
        <pt x="459" y="182" on="0"/>
        <pt x="436" y="92" on="0"/>
        <pt x="379" y="25" on="0"/>
        <pt x="282" y="-14" on="0"/>
        <pt x="208" y="-14" on="1"/>
        <pt x="140" y="-14" on="0"/>
        <pt x="42" y="19" on="0"/>
        <pt x="10" y="41" on="1"/>
        <pt x="62" y="162" on="1"/>
        <pt x="91" y="145" on="0"/>
        <pt x="157" y="119" on="0"/>
        <pt x="196" y="119" on="1"/>
        <pt x="253" y="119" on="0"/>
        <pt x="303" y="175" on="0"/>
        <pt x="303" y="241" on="1"/>
        <pt x="303" y="693" on="1"/>
        <pt x="459" y="693" on="1"/>
      </contour>
    </TTGlyph>
    <TTGlyph name="Jcircumflex" xMin="10" yMin="-14" xMax="534" yMax="948">
      <component glyphName="J" x="0" y="0" flags="0x204"/>
      <component glyphName="circumflex" x="180" y="166" flags="0x4"/>
    </TTGlyph>
    <TTGlyph name="K" xMin="80" yMin="0" xMax="674" yMax="693">
      <contour>
        <pt x="489" y="0" on="1"/>
        <pt x="468" y="34" on="0"/>
        <pt x="411" y="113" on="0"/>
        <pt x="344" y="192" on="0"/>
        <pt x="272" y="265" on="0"/>
        <pt x="236" y="293" on="1"/>
        <pt x="236" y="0" on="1"/>
        <pt x="80" y="0" on="1"/>
        <pt x="80" y="693" on="1"/>
        <pt x="236" y="693" on="1"/>
        <pt x="236" y="431" on="1"/>
        <pt x="297" y="495" on="0"/>
        <pt x="420" y="634" on="0"/>
        <pt x="473" y="693" on="1"/>
        <pt x="658" y="693" on="1"/>
        <pt x="587" y="609" on="0"/>
        <pt x="444" y="453" on="0"/>
        <pt x="365" y="374" on="1"/>
        <pt x="448" y="305" on="0"/>
        <pt x="603" y="115" on="0"/>
        <pt x="674" y="0" on="1"/>
      </contour>
    </TTGlyph>
    <TTGlyph name="Kappa" xMin="80" yMin="0" xMax="674" yMax="693">
      <component glyphName="K" x="0" y="0" flags="0x204"/>
    </TTGlyph>
    <TTGlyph name="Kcommaaccent" xMin="80" yMin="-220" xMax="674" yMax="693">
      <component glyphName="K" x="0" y="0" flags="0x204"/>
      <component glyphName="commaaccent" x="222" y="0" flags="0x4"/>
    </TTGlyph>
    <TTGlyph name="L" xMin="80" yMin="0" xMax="543" yMax="693">
      <contour>
        <pt x="543" y="134" on="1"/>
        <pt x="543" y="0" on="1"/>
        <pt x="80" y="0" on="1"/>
        <pt x="80" y="693" on="1"/>
        <pt x="236" y="693" on="1"/>
        <pt x="236" y="134" on="1"/>
      </contour>
    </TTGlyph>
    <TTGlyph name="Lacute" xMin="74" yMin="0" xMax="543" yMax="959">
      <component glyphName="L" x="0" y="0" flags="0x204"/>
      <component glyphName="acute" x="48" y="160" flags="0x4"/>
    </TTGlyph>
    <TTGlyph name="Lambda" xMin="10" yMin="0" xMax="712" yMax="693">
      <contour>
        <pt x="436" y="693" on="1"/>
        <pt x="477" y="606" on="0"/>
        <pt x="556" y="417" on="0"/>
        <pt x="628" y="234" on="0"/>
        <pt x="689" y="66" on="0"/>
        <pt x="712" y="0" on="1"/>
        <pt x="540" y="0" on="1"/>
        <pt x="520" y="60" on="0"/>
        <pt x="473" y="199" on="0"/>
        <pt x="424" y="337" on="0"/>
        <pt x="377" y="463" on="0"/>
        <pt x="358" y="509" on="1"/>
        <pt x="338" y="463" on="0"/>
        <pt x="291" y="337" on="0"/>
        <pt x="243" y="199" on="0"/>
        <pt x="196" y="60" on="0"/>
        <pt x="176" y="0" on="1"/>
        <pt x="10" y="0" on="1"/>
        <pt x="32" y="66" on="0"/>
        <pt x="93" y="234" on="0"/>
        <pt x="165" y="418" on="0"/>
        <pt x="245" y="606" on="0"/>
        <pt x="286" y="693" on="1"/>
      </contour>
    </TTGlyph>
    <TTGlyph name="Lcaron" xMin="80" yMin="0" xMax="543" yMax="695">
      <component glyphName="L" x="0" y="0" flags="0x204"/>
      <component glyphName="caron.alt" x="297" y="-81" flags="0x4"/>
    </TTGlyph>
    <TTGlyph name="Lcommaaccent" xMin="80" yMin="-220" xMax="543" yMax="693">
      <component glyphName="L" x="0" y="0" flags="0x204"/>
      <component glyphName="commaaccent" x="190" y="0" flags="0x4"/>
    </TTGlyph>
    <TTGlyph name="Ldot" xMin="80" yMin="0" xMax="543" yMax="693">
      <component glyphName="L" x="0" y="0" flags="0x204"/>
      <component glyphName="period" x="315" y="324" flags="0x4"/>
    </TTGlyph>
    <TTGlyph name="Lslash" xMin="0" yMin="0" xMax="574" yMax="693">
      <contour>
        <pt x="0" y="324" on="1"/>
        <pt x="111" y="380" on="1"/>
        <pt x="111" y="693" on="1"/>
        <pt x="267" y="693" on="1"/>
        <pt x="267" y="458" on="1"/>
        <pt x="389" y="520" on="1"/>
        <pt x="438" y="419" on="1"/>
        <pt x="267" y="332" on="1"/>
        <pt x="267" y="134" on="1"/>
        <pt x="574" y="134" on="1"/>
        <pt x="574" y="0" on="1"/>
        <pt x="111" y="0" on="1"/>
        <pt x="111" y="254" on="1"/>
        <pt x="49" y="223" on="1"/>
      </contour>
    </TTGlyph>
    <TTGlyph name="M" xMin="60" yMin="0" xMax="837" yMax="693">
      <contour>
        <pt x="264" y="693" on="1"/>
        <pt x="282" y="660" on="0"/>
        <pt x="329" y="563" on="0"/>
        <pt x="380" y="450" on="0"/>
        <pt x="430" y="332" on="0"/>
        <pt x="452" y="280" on="1"/>
        <pt x="474" y="332" on="0"/>
        <pt x="524" y="450" on="0"/>
        <pt x="575" y="563" on="0"/>
        <pt x="622" y="660" on="0"/>
        <pt x="640" y="693" on="1"/>
        <pt x="782" y="693" on="1"/>
        <pt x="792" y="624" on="0"/>
        <pt x="809" y="453" on="0"/>
        <pt x="822" y="268" on="0"/>
        <pt x="833" y="82" on="0"/>
        <pt x="837" y="0" on="1"/>
        <pt x="685" y="0" on="1"/>
        <pt x="682" y="101" on="0"/>
        <pt x="672" y="339" on="0"/>
        <pt x="662" y="460" on="1"/>
        <pt x="644" y="418" on="0"/>
        <pt x="600" y="316" on="0"/>
        <pt x="557" y="214" on="0"/>
        <pt x="517" y="121" on="0"/>
        <pt x="503" y="88" on="1"/>
        <pt x="394" y="88" on="1"/>
        <pt x="380" y="121" on="0"/>
        <pt x="340" y="214" on="0"/>
        <pt x="297" y="316" on="0"/>
        <pt x="253" y="418" on="0"/>
        <pt x="235" y="460" on="1"/>
        <pt x="225" y="339" on="0"/>
        <pt x="215" y="101" on="0"/>
        <pt x="212" y="0" on="1"/>
        <pt x="60" y="0" on="1"/>
        <pt x="64" y="82" on="0"/>
        <pt x="75" y="268" on="0"/>
        <pt x="88" y="453" on="0"/>
        <pt x="105" y="624" on="0"/>
        <pt x="115" y="693" on="1"/>
      </contour>
    </TTGlyph>
    <TTGlyph name="Mu" xMin="60" yMin="0" xMax="837" yMax="693">
      <component glyphName="M" x="0" y="0" flags="0x204"/>
    </TTGlyph>
    <TTGlyph name="N" xMin="80" yMin="0" xMax="676" yMax="693">
      <contour>
        <pt x="545" y="0" on="1"/>
        <pt x="478" y="119" on="0"/>
        <pt x="322" y="351" on="0"/>
        <pt x="234" y="454" on="1"/>
        <pt x="234" y="0" on="1"/>
        <pt x="80" y="0" on="1"/>
        <pt x="80" y="693" on="1"/>
        <pt x="207" y="693" on="1"/>
        <pt x="240" y="660" on="0"/>
        <pt x="320" y="564" on="0"/>
        <pt x="403" y="455" on="0"/>
        <pt x="485" y="338" on="0"/>
        <pt x="521" y="284" on="1"/>
        <pt x="521" y="693" on="1"/>
        <pt x="676" y="693" on="1"/>
        <pt x="676" y="0" on="1"/>
      </contour>
    </TTGlyph>
    <TTGlyph name="Nacute" xMin="80" yMin="0" xMax="676" yMax="959">
      <component glyphName="N" x="0" y="0" flags="0x204"/>
      <component glyphName="acute" x="245" y="160" flags="0x4"/>
    </TTGlyph>
    <TTGlyph name="Ncaron" xMin="80" yMin="0" xMax="676" yMax="950">
      <component glyphName="N" x="0" y="0" flags="0x204"/>
      <component glyphName="caron" x="165" y="161" flags="0x4"/>
    </TTGlyph>
    <TTGlyph name="Ncommaaccent" xMin="80" yMin="-220" xMax="676" yMax="693">
      <component glyphName="N" x="0" y="0" flags="0x204"/>
      <component glyphName="commaaccent" x="248" y="0" flags="0x4"/>
    </TTGlyph>
    <TTGlyph name="Ntilde" xMin="80" yMin="0" xMax="676" yMax="920">
      <component glyphName="N" x="0" y="0" flags="0x204"/>
      <component glyphName="tilde" x="191" y="163" flags="0x4"/>
    </TTGlyph>
    <TTGlyph name="Nu" xMin="80" yMin="0" xMax="676" yMax="693">
      <component glyphName="N" x="0" y="0" flags="0x204"/>
    </TTGlyph>
    <TTGlyph name="O" xMin="50" yMin="-14" xMax="740" yMax="709">
      <contour>
        <pt x="211" y="347" on="1"/>
        <pt x="211" y="296" on="0"/>
        <pt x="236" y="214" on="0"/>
        <pt x="283" y="155" on="0"/>
        <pt x="351" y="123" on="0"/>
        <pt x="395" y="123" on="1"/>
        <pt x="438" y="123" on="0"/>
        <pt x="507" y="155" on="0"/>
        <pt x="554" y="214" on="0"/>
        <pt x="579" y="296" on="0"/>
        <pt x="579" y="347" on="1"/>
        <pt x="579" y="398" on="0"/>
        <pt x="554" y="481" on="0"/>
        <pt x="507" y="540" on="0"/>
        <pt x="438" y="572" on="0"/>
        <pt x="395" y="572" on="1"/>
        <pt x="351" y="572" on="0"/>
        <pt x="283" y="539" on="0"/>
        <pt x="236" y="480" on="0"/>
        <pt x="211" y="397" on="0"/>
      </contour>
      <contour>
        <pt x="740" y="347" on="1"/>
        <pt x="740" y="258" on="0"/>
        <pt x="687" y="123" on="0"/>
        <pt x="595" y="32" on="0"/>
        <pt x="468" y="-14" on="0"/>
        <pt x="395" y="-14" on="1"/>
        <pt x="324" y="-14" on="0"/>
        <pt x="198" y="32" on="0"/>
        <pt x="104" y="123" on="0"/>
        <pt x="50" y="258" on="0"/>
        <pt x="50" y="347" on="1"/>
        <pt x="50" y="436" on="0"/>
        <pt x="106" y="571" on="0"/>
        <pt x="201" y="663" on="0"/>
        <pt x="326" y="709" on="0"/>
        <pt x="395" y="709" on="1"/>
        <pt x="466" y="709" on="0"/>
        <pt x="592" y="663" on="0"/>
        <pt x="686" y="571" on="0"/>
        <pt x="740" y="436" on="0"/>
      </contour>
    </TTGlyph>
    <TTGlyph name="OE" xMin="50" yMin="-6" xMax="962" yMax="699">
      <contour>
        <pt x="546" y="0" on="1"/>
        <pt x="523" y="-3" on="0"/>
        <pt x="466" y="-6" on="0"/>
        <pt x="443" y="-6" on="1"/>
        <pt x="355" y="-6" on="0"/>
        <pt x="210" y="36" on="0"/>
        <pt x="107" y="123" on="0"/>
        <pt x="50" y="256" on="0"/>
        <pt x="50" y="347" on="1"/>
        <pt x="50" y="438" on="0"/>
        <pt x="107" y="570" on="0"/>
        <pt x="210" y="657" on="0"/>
        <pt x="355" y="699" on="0"/>
        <pt x="443" y="699" on="1"/>
        <pt x="466" y="699" on="0"/>
        <pt x="523" y="696" on="0"/>
        <pt x="546" y="693" on="1"/>
        <pt x="939" y="693" on="1"/>
        <pt x="939" y="562" on="1"/>
        <pt x="644" y="562" on="1"/>
        <pt x="644" y="426" on="1"/>
        <pt x="904" y="426" on="1"/>
        <pt x="904" y="298" on="1"/>
        <pt x="644" y="298" on="1"/>
        <pt x="644" y="131" on="1"/>
        <pt x="962" y="131" on="1"/>
        <pt x="962" y="0" on="1"/>
      </contour>
      <contour>
        <pt x="441" y="126" on="1"/>
        <pt x="453" y="126" on="0"/>
        <pt x="474" y="126" on="0"/>
        <pt x="493" y="127" on="1"/>
        <pt x="493" y="566" on="1"/>
        <pt x="473" y="567" on="0"/>
        <pt x="455" y="567" on="0"/>
        <pt x="441" y="567" on="1"/>
        <pt x="324" y="567" on="0"/>
        <pt x="210" y="454" on="0"/>
        <pt x="210" y="347" on="1"/>
        <pt x="210" y="240" on="0"/>
        <pt x="324" y="126" on="0"/>
      </contour>
    </TTGlyph>
    <TTGlyph name="Oacute" xMin="50" yMin="-14" xMax="740" yMax="959">
      <component glyphName="O" x="0" y="0" flags="0x204"/>
      <component glyphName="acute" x="254" y="160" flags="0x4"/>
    </TTGlyph>
    <TTGlyph name="Obreve" xMin="50" yMin="-14" xMax="740" yMax="917">
      <component glyphName="O" x="0" y="0" flags="0x204"/>
      <component glyphName="breve" x="190" y="153" flags="0x4"/>
    </TTGlyph>
    <TTGlyph name="Ocircumflex" xMin="50" yMin="-14" xMax="740" yMax="948">
      <component glyphName="O" x="0" y="0" flags="0x204"/>
      <component glyphName="circumflex" x="197" y="166" flags="0x4"/>
    </TTGlyph>
    <TTGlyph name="Odieresis" xMin="50" yMin="-14" xMax="740" yMax="914">
      <component glyphName="O" x="0" y="0" flags="0x204"/>
      <component glyphName="dieresis" x="121" y="160" flags="0x4"/>
    </TTGlyph>
    <TTGlyph name="Ograve" xMin="50" yMin="-14" xMax="740" yMax="959">
      <component glyphName="O" x="0" y="0" flags="0x204"/>
      <component glyphName="grave" x="252" y="160" flags="0x4"/>
    </TTGlyph>
    <TTGlyph name="Ohorn" xMin="50" yMin="-14" xMax="740" yMax="801">
      <contour>
        <pt x="740" y="347" on="1"/>
        <pt x="740" y="258" on="0"/>
        <pt x="687" y="123" on="0"/>
        <pt x="595" y="32" on="0"/>
        <pt x="468" y="-14" on="0"/>
        <pt x="395" y="-14" on="1"/>
        <pt x="324" y="-14" on="0"/>
        <pt x="198" y="32" on="0"/>
        <pt x="104" y="123" on="0"/>
        <pt x="50" y="258" on="0"/>
        <pt x="50" y="347" on="1"/>
        <pt x="50" y="436" on="0"/>
        <pt x="106" y="571" on="0"/>
        <pt x="201" y="663" on="0"/>
        <pt x="326" y="709" on="0"/>
        <pt x="395" y="709" on="1"/>
        <pt x="501" y="709" on="0"/>
        <pt x="583" y="659" on="1"/>
        <pt x="592" y="680" on="0"/>
        <pt x="599" y="727" on="0"/>
        <pt x="599" y="752" on="1"/>
        <pt x="599" y="764" on="0"/>
        <pt x="598" y="788" on="0"/>
        <pt x="597" y="801" on="1"/>
        <pt x="735" y="801" on="1"/>
        <pt x="737" y="787" on="0"/>
        <pt x="739" y="761" on="0"/>
        <pt x="739" y="747" on="1"/>
        <pt x="739" y="700" on="0"/>
        <pt x="708" y="617" on="0"/>
        <pt x="670" y="581" on="1"/>
        <pt x="703" y="536" on="0"/>
        <pt x="740" y="420" on="0"/>
      </contour>
      <contour>
        <pt x="211" y="347" on="1"/>
        <pt x="211" y="296" on="0"/>
        <pt x="236" y="214" on="0"/>
        <pt x="283" y="155" on="0"/>
        <pt x="351" y="123" on="0"/>
        <pt x="395" y="123" on="1"/>
        <pt x="438" y="123" on="0"/>
        <pt x="507" y="155" on="0"/>
        <pt x="554" y="214" on="0"/>
        <pt x="579" y="296" on="0"/>
        <pt x="579" y="347" on="1"/>
        <pt x="579" y="398" on="0"/>
        <pt x="554" y="481" on="0"/>
        <pt x="507" y="540" on="0"/>
        <pt x="438" y="572" on="0"/>
        <pt x="395" y="572" on="1"/>
        <pt x="351" y="572" on="0"/>
        <pt x="283" y="539" on="0"/>
        <pt x="236" y="480" on="0"/>
        <pt x="211" y="397" on="0"/>
      </contour>
    </TTGlyph>
    <TTGlyph name="Ohungarumlaut" xMin="50" yMin="-14" xMax="740" yMax="961">
      <component glyphName="O" x="0" y="0" flags="0x204"/>
      <component glyphName="hungarumlaut" x="193" y="162" flags="0x4"/>
    </TTGlyph>
    <TTGlyph name="Omacron" xMin="50" yMin="-14" xMax="740" yMax="878">
      <component glyphName="O" x="0" y="0" flags="0x204"/>
      <component glyphName="macron" x="207" y="153" flags="0x4"/>
    </TTGlyph>
    <TTGlyph name="Omega" xMin="40" yMin="0" xMax="743" yMax="709">
      <contour>
        <pt x="392" y="709" on="1"/>
        <pt x="464" y="709" on="0"/>
        <pt x="587" y="666" on="0"/>
        <pt x="677" y="582" on="0"/>
        <pt x="728" y="459" on="0"/>
        <pt x="728" y="380" on="1"/>
        <pt x="728" y="236" on="0"/>
        <pt x="624" y="129" on="1"/>
        <pt x="743" y="129" on="1"/>
        <pt x="743" y="0" on="1"/>
        <pt x="440" y="0" on="1"/>
        <pt x="440" y="116" on="1"/>
        <pt x="466" y="138" on="0"/>
        <pt x="512" y="191" on="0"/>
        <pt x="547" y="254" on="0"/>
        <pt x="567" y="330" on="0"/>
        <pt x="567" y="375" on="1"/>
        <pt x="567" y="472" on="0"/>
        <pt x="473" y="574" on="0"/>
        <pt x="392" y="574" on="1"/>
        <pt x="311" y="574" on="0"/>
        <pt x="217" y="472" on="0"/>
        <pt x="217" y="375" on="1"/>
        <pt x="217" y="330" on="0"/>
        <pt x="237" y="254" on="0"/>
        <pt x="271" y="191" on="0"/>
        <pt x="317" y="138" on="0"/>
        <pt x="343" y="116" on="1"/>
        <pt x="343" y="0" on="1"/>
        <pt x="40" y="0" on="1"/>
        <pt x="40" y="129" on="1"/>
        <pt x="159" y="129" on="1"/>
        <pt x="56" y="237" on="0"/>
        <pt x="56" y="380" on="1"/>
        <pt x="56" y="459" on="0"/>
        <pt x="107" y="582" on="0"/>
        <pt x="197" y="666" on="0"/>
        <pt x="320" y="709" on="0"/>
      </contour>
    </TTGlyph>
    <TTGlyph name="Omegatonos" xMin="-3" yMin="0" xMax="831" yMax="717">
      <component glyphName="Omega" x="88" y="0" flags="0x4"/>
      <component glyphName="tonos.cap" x="-108" y="0" flags="0x4"/>
    </TTGlyph>
    <TTGlyph name="Omicron" xMin="50" yMin="-14" xMax="740" yMax="709">
      <component glyphName="O" x="0" y="0" flags="0x204"/>
    </TTGlyph>
    <TTGlyph name="Omicrontonos" xMin="-3" yMin="-14" xMax="839" yMax="717">
      <component glyphName="O" x="99" y="0" flags="0x4"/>
      <component glyphName="tonos.cap" x="-108" y="0" flags="0x4"/>
    </TTGlyph>
    <TTGlyph name="Oslash" xMin="50" yMin="-45" xMax="740" yMax="738">
      <contour>
        <pt x="740" y="347" on="1"/>
        <pt x="740" y="258" on="0"/>
        <pt x="687" y="123" on="0"/>
        <pt x="595" y="32" on="0"/>
        <pt x="468" y="-14" on="0"/>
        <pt x="395" y="-14" on="1"/>
        <pt x="345" y="-14" on="0"/>
        <pt x="254" y="7" on="0"/>
        <pt x="215" y="30" on="1"/>
        <pt x="157" y="-45" on="1"/>
        <pt x="72" y="18" on="1"/>
        <pt x="133" y="96" on="1"/>
        <pt x="94" y="141" on="0"/>
        <pt x="50" y="266" on="0"/>
        <pt x="50" y="347" on="1"/>
        <pt x="50" y="436" on="0"/>
        <pt x="106" y="571" on="0"/>
        <pt x="201" y="663" on="0"/>
        <pt x="326" y="709" on="0"/>
        <pt x="395" y="709" on="1"/>
        <pt x="494" y="709" on="0"/>
        <pt x="573" y="665" on="1"/>
        <pt x="629" y="738" on="1"/>
        <pt x="714" y="675" on="1"/>
        <pt x="655" y="599" on="1"/>
        <pt x="695" y="554" on="0"/>
        <pt x="740" y="428" on="0"/>
      </contour>
      <contour>
        <pt x="579" y="347" on="1"/>
        <pt x="579" y="419" on="0"/>
        <pt x="555" y="470" on="1"/>
        <pt x="304" y="145" on="1"/>
        <pt x="345" y="123" on="0"/>
        <pt x="395" y="123" on="1"/>
        <pt x="438" y="123" on="0"/>
        <pt x="507" y="155" on="0"/>
        <pt x="554" y="214" on="0"/>
        <pt x="579" y="296" on="0"/>
      </contour>
      <contour>
        <pt x="211" y="347" on="1"/>
        <pt x="211" y="278" on="0"/>
        <pt x="234" y="227" on="1"/>
        <pt x="484" y="550" on="1"/>
        <pt x="445" y="572" on="0"/>
        <pt x="395" y="572" on="1"/>
        <pt x="351" y="572" on="0"/>
        <pt x="283" y="539" on="0"/>
        <pt x="236" y="480" on="0"/>
        <pt x="211" y="397" on="0"/>
      </contour>
    </TTGlyph>
    <TTGlyph name="Oslashacute" xMin="50" yMin="-45" xMax="740" yMax="959">
      <component glyphName="Oslash" x="0" y="0" flags="0x204"/>
      <component glyphName="acute" x="254" y="160" flags="0x4"/>
    </TTGlyph>
    <TTGlyph name="Otilde" xMin="50" yMin="-14" xMax="740" yMax="920">
      <component glyphName="O" x="0" y="0" flags="0x204"/>
      <component glyphName="tilde" x="208" y="163" flags="0x4"/>
    </TTGlyph>
    <TTGlyph name="P" xMin="80" yMin="0" xMax="609" yMax="701">
      <contour>
        <pt x="288" y="701" on="1"/>
        <pt x="443" y="701" on="0"/>
        <pt x="609" y="592" on="0"/>
        <pt x="609" y="468" on="1"/>
        <pt x="609" y="343" on="0"/>
        <pt x="441" y="232" on="0"/>
        <pt x="285" y="232" on="1"/>
        <pt x="236" y="232" on="1"/>
        <pt x="236" y="0" on="1"/>
        <pt x="80" y="0" on="1"/>
        <pt x="80" y="683" on="1"/>
        <pt x="131" y="693" on="0"/>
        <pt x="245" y="701" on="0"/>
      </contour>
      <contour>
        <pt x="298" y="568" on="1"/>
        <pt x="281" y="568" on="0"/>
        <pt x="248" y="566" on="0"/>
        <pt x="236" y="565" on="1"/>
        <pt x="236" y="365" on="1"/>
        <pt x="285" y="365" on="1"/>
        <pt x="366" y="365" on="0"/>
        <pt x="448" y="409" on="0"/>
        <pt x="448" y="469" on="1"/>
        <pt x="448" y="498" on="0"/>
        <pt x="427" y="536" on="0"/>
        <pt x="388" y="559" on="0"/>
        <pt x="332" y="568" on="0"/>
      </contour>
    </TTGlyph>
    <TTGlyph name="Parenleft" xMin="70" yMin="-138" xMax="351" yMax="830">
      <component glyphName="parenleft" x="0" y="47" flags="0x214"/>
    </TTGlyph>
    <TTGlyph name="Parenright" xMin="5" yMin="-138" xMax="286" yMax="830">
      <component glyphName="parenright" x="0" y="47" flags="0x214"/>
    </TTGlyph>
    <TTGlyph name="Phi" xMin="46" yMin="0" xMax="824" yMax="738">
      <contour>
        <pt x="511" y="212" on="1"/>
        <pt x="551" y="215" on="0"/>
        <pt x="610" y="241" on="0"/>
        <pt x="649" y="283" on="0"/>
        <pt x="669" y="338" on="0"/>
        <pt x="669" y="369" on="1"/>
        <pt x="669" y="400" on="0"/>
        <pt x="650" y="455" on="0"/>
        <pt x="611" y="498" on="0"/>
        <pt x="551" y="526" on="0"/>
        <pt x="511" y="530" on="1"/>
      </contour>
      <contour>
        <pt x="511" y="0" on="1"/>
        <pt x="359" y="0" on="1"/>
        <pt x="359" y="82" on="1"/>
        <pt x="279" y="86" on="0"/>
        <pt x="161" y="136" on="0"/>
        <pt x="84" y="215" on="0"/>
        <pt x="46" y="314" on="0"/>
        <pt x="46" y="367" on="1"/>
        <pt x="46" y="419" on="0"/>
        <pt x="84" y="519" on="0"/>
        <pt x="161" y="600" on="0"/>
        <pt x="279" y="654" on="0"/>
        <pt x="359" y="660" on="1"/>
        <pt x="359" y="738" on="1"/>
        <pt x="511" y="738" on="1"/>
        <pt x="511" y="660" on="1"/>
        <pt x="591" y="654" on="0"/>
        <pt x="709" y="600" on="0"/>
        <pt x="786" y="519" on="0"/>
        <pt x="824" y="419" on="0"/>
        <pt x="824" y="367" on="1"/>
        <pt x="824" y="314" on="0"/>
        <pt x="786" y="215" on="0"/>
        <pt x="709" y="136" on="0"/>
        <pt x="591" y="86" on="0"/>
        <pt x="511" y="82" on="1"/>
      </contour>
      <contour>
        <pt x="359" y="530" on="1"/>
        <pt x="319" y="526" on="0"/>
        <pt x="259" y="498" on="0"/>
        <pt x="220" y="455" on="0"/>
        <pt x="201" y="400" on="0"/>
        <pt x="201" y="369" on="1"/>
        <pt x="201" y="338" on="0"/>
        <pt x="221" y="283" on="0"/>
        <pt x="260" y="241" on="0"/>
        <pt x="319" y="215" on="0"/>
        <pt x="359" y="212" on="1"/>
      </contour>
    </TTGlyph>
    <TTGlyph name="Pi" xMin="80" yMin="0" xMax="650" yMax="693">
      <contour>
        <pt x="650" y="693" on="1"/>
        <pt x="650" y="0" on="1"/>
        <pt x="494" y="0" on="1"/>
        <pt x="494" y="561" on="1"/>
        <pt x="236" y="561" on="1"/>
        <pt x="236" y="0" on="1"/>
        <pt x="80" y="0" on="1"/>
        <pt x="80" y="693" on="1"/>
      </contour>
    </TTGlyph>
    <TTGlyph name="Psi" xMin="65" yMin="0" xMax="780" yMax="693">
      <contour>
        <pt x="496" y="0" on="1"/>
        <pt x="349" y="0" on="1"/>
        <pt x="349" y="165" on="1"/>
        <pt x="276" y="169" on="0"/>
        <pt x="169" y="213" on="0"/>
        <pt x="99" y="288" on="0"/>
        <pt x="65" y="391" on="0"/>
        <pt x="65" y="453" on="1"/>
        <pt x="65" y="693" on="1"/>
        <pt x="216" y="693" on="1"/>
        <pt x="216" y="471" on="1"/>
        <pt x="216" y="381" on="0"/>
        <pt x="282" y="297" on="0"/>
        <pt x="347" y="291" on="1"/>
        <pt x="347" y="693" on="1"/>
        <pt x="498" y="693" on="1"/>
        <pt x="498" y="291" on="1"/>
        <pt x="563" y="297" on="0"/>
        <pt x="629" y="381" on="0"/>
        <pt x="629" y="471" on="1"/>
        <pt x="629" y="693" on="1"/>
        <pt x="780" y="693" on="1"/>
        <pt x="780" y="453" on="1"/>
        <pt x="780" y="391" on="0"/>
        <pt x="746" y="288" on="0"/>
        <pt x="676" y="213" on="0"/>
        <pt x="569" y="169" on="0"/>
        <pt x="496" y="165" on="1"/>
      </contour>
    </TTGlyph>
    <TTGlyph name="Q" xMin="50" yMin="-188" xMax="740" yMax="709">
      <contour>
        <pt x="211" y="347" on="1"/>
        <pt x="211" y="296" on="0"/>
        <pt x="236" y="214" on="0"/>
        <pt x="283" y="155" on="0"/>
        <pt x="351" y="123" on="0"/>
        <pt x="395" y="123" on="1"/>
        <pt x="438" y="123" on="0"/>
        <pt x="507" y="155" on="0"/>
        <pt x="554" y="214" on="0"/>
        <pt x="579" y="296" on="0"/>
        <pt x="579" y="347" on="1"/>
        <pt x="579" y="398" on="0"/>
        <pt x="554" y="481" on="0"/>
        <pt x="507" y="540" on="0"/>
        <pt x="438" y="572" on="0"/>
        <pt x="395" y="572" on="1"/>
        <pt x="351" y="572" on="0"/>
        <pt x="283" y="539" on="0"/>
        <pt x="236" y="480" on="0"/>
        <pt x="211" y="397" on="0"/>
      </contour>
      <contour>
        <pt x="740" y="347" on="1"/>
        <pt x="740" y="274" on="0"/>
        <pt x="704" y="157" on="0"/>
        <pt x="639" y="69" on="0"/>
        <pt x="549" y="11" on="0"/>
        <pt x="495" y="-2" on="1"/>
        <pt x="500" y="-22" on="0"/>
        <pt x="534" y="-47" on="0"/>
        <pt x="586" y="-63" on="0"/>
        <pt x="655" y="-71" on="0"/>
        <pt x="695" y="-74" on="1"/>
        <pt x="663" y="-188" on="1"/>
        <pt x="585" y="-185" on="0"/>
        <pt x="474" y="-160" on="0"/>
        <pt x="397" y="-116" on="0"/>
        <pt x="352" y="-52" on="0"/>
        <pt x="340" y="-10" on="1"/>
        <pt x="278" y="-2" on="0"/>
        <pt x="172" y="51" on="0"/>
        <pt x="94" y="141" on="0"/>
        <pt x="50" y="267" on="0"/>
        <pt x="50" y="347" on="1"/>
        <pt x="50" y="436" on="0"/>
        <pt x="106" y="571" on="0"/>
        <pt x="201" y="663" on="0"/>
        <pt x="326" y="709" on="0"/>
        <pt x="395" y="709" on="1"/>
        <pt x="466" y="709" on="0"/>
        <pt x="592" y="663" on="0"/>
        <pt x="686" y="571" on="0"/>
        <pt x="740" y="436" on="0"/>
      </contour>
    </TTGlyph>
    <TTGlyph name="Questiondown" xMin="25" yMin="-16" xMax="435" yMax="706">
      <component glyphName="questiondown" x="0" y="181" flags="0x214"/>
    </TTGlyph>
    <TTGlyph name="R" xMin="80" yMin="0" xMax="647" yMax="701">
      <contour>
        <pt x="283" y="701" on="1"/>
        <pt x="439" y="701" on="0"/>
        <pt x="605" y="590" on="0"/>
        <pt x="605" y="473" on="1"/>
        <pt x="605" y="400" on="0"/>
        <pt x="538" y="309" on="0"/>
        <pt x="475" y="283" on="1"/>
        <pt x="496" y="257" on="0"/>
        <pt x="542" y="190" on="0"/>
        <pt x="587" y="117" on="0"/>
        <pt x="629" y="38" on="0"/>
        <pt x="647" y="0" on="1"/>
        <pt x="472" y="0" on="1"/>
        <pt x="453" y="34" on="0"/>
        <pt x="414" y="104" on="0"/>
        <pt x="373" y="170" on="0"/>
        <pt x="333" y="229" on="0"/>
        <pt x="313" y="253" on="1"/>
        <pt x="236" y="253" on="1"/>
        <pt x="236" y="0" on="1"/>
        <pt x="80" y="0" on="1"/>
        <pt x="80" y="683" on="1"/>
        <pt x="131" y="693" on="0"/>
        <pt x="240" y="701" on="0"/>
      </contour>
      <contour>
        <pt x="292" y="568" on="1"/>
        <pt x="275" y="568" on="0"/>
        <pt x="248" y="566" on="0"/>
        <pt x="236" y="565" on="1"/>
        <pt x="236" y="377" on="1"/>
        <pt x="280" y="377" on="1"/>
        <pt x="368" y="377" on="0"/>
        <pt x="444" y="421" on="0"/>
        <pt x="444" y="474" on="1"/>
        <pt x="444" y="525" on="0"/>
        <pt x="367" y="568" on="0"/>
      </contour>
    </TTGlyph>
    <TTGlyph name="Racute" xMin="80" yMin="0" xMax="647" yMax="959">
      <component glyphName="R" x="0" y="0" flags="0x204"/>
      <component glyphName="acute" x="190" y="160" flags="0x4"/>
    </TTGlyph>
    <TTGlyph name="Rcaron" xMin="80" yMin="0" xMax="647" yMax="950">
      <component glyphName="R" x="0" y="0" flags="0x204"/>
      <component glyphName="caron" x="119" y="161" flags="0x4"/>
    </TTGlyph>
    <TTGlyph name="Rcommaaccent" xMin="80" yMin="-220" xMax="647" yMax="701">
      <component glyphName="R" x="0" y="0" flags="0x204"/>
      <component glyphName="commaaccent" x="212" y="0" flags="0x4"/>
    </TTGlyph>
    <TTGlyph name="Rho" xMin="80" yMin="0" xMax="609" yMax="701">
      <component glyphName="P" x="0" y="0" flags="0x204"/>
    </TTGlyph>
    <TTGlyph name="S" xMin="37" yMin="-14" xMax="542" yMax="709">
      <contour>
        <pt x="269" y="119" on="1"/>
        <pt x="302" y="119" on="0"/>
        <pt x="345" y="130" on="0"/>
        <pt x="371" y="149" on="0"/>
        <pt x="381" y="175" on="0"/>
        <pt x="381" y="191" on="1"/>
        <pt x="381" y="225" on="0"/>
        <pt x="317" y="270" on="0"/>
        <pt x="239" y="296" on="1"/>
        <pt x="205" y="308" on="0"/>
        <pt x="137" y="339" on="0"/>
        <pt x="83" y="386" on="0"/>
        <pt x="49" y="453" on="0"/>
        <pt x="49" y="501" on="1"/>
        <pt x="49" y="549" on="0"/>
        <pt x="85" y="626" on="0"/>
        <pt x="151" y="680" on="0"/>
        <pt x="245" y="709" on="0"/>
        <pt x="304" y="709" on="1"/>
        <pt x="374" y="709" on="0"/>
        <pt x="476" y="679" on="0"/>
        <pt x="509" y="661" on="1"/>
        <pt x="464" y="538" on="1"/>
        <pt x="435" y="553" on="0"/>
        <pt x="364" y="576" on="0"/>
        <pt x="314" y="576" on="1"/>
        <pt x="258" y="576" on="0"/>
        <pt x="209" y="545" on="0"/>
        <pt x="209" y="513" on="1"/>
        <pt x="209" y="494" on="0"/>
        <pt x="227" y="468" on="0"/>
        <pt x="260" y="447" on="0"/>
        <pt x="303" y="430" on="0"/>
        <pt x="329" y="421" on="1"/>
        <pt x="383" y="401" on="0"/>
        <pt x="463" y="362" on="0"/>
        <pt x="516" y="310" on="0"/>
        <pt x="542" y="240" on="0"/>
        <pt x="542" y="190" on="1"/>
        <pt x="542" y="93" on="0"/>
        <pt x="406" y="-14" on="0"/>
        <pt x="269" y="-14" on="1"/>
        <pt x="223" y="-14" on="0"/>
        <pt x="149" y="-3" on="0"/>
        <pt x="92" y="13" on="0"/>
        <pt x="51" y="31" on="0"/>
        <pt x="37" y="39" on="1"/>
        <pt x="81" y="163" on="1"/>
        <pt x="112" y="146" on="0"/>
        <pt x="203" y="119" on="0"/>
      </contour>
    </TTGlyph>
    <TTGlyph name="Sacute" xMin="37" yMin="-14" xMax="542" yMax="959">
      <component glyphName="S" x="0" y="0" flags="0x204"/>
      <component glyphName="acute" x="175" y="160" flags="0x4"/>
    </TTGlyph>
    <TTGlyph name="Scaron" xMin="37" yMin="-14" xMax="542" yMax="950">
      <component glyphName="S" x="0" y="0" flags="0x204"/>
      <component glyphName="caron" x="105" y="161" flags="0x4"/>
    </TTGlyph>
    <TTGlyph name="Scedilla" xMin="37" yMin="-221" xMax="542" yMax="709">
      <contour>
        <pt x="269" y="119" on="1"/>
        <pt x="302" y="119" on="0"/>
        <pt x="345" y="130" on="0"/>
        <pt x="371" y="149" on="0"/>
        <pt x="381" y="175" on="0"/>
        <pt x="381" y="191" on="1"/>
        <pt x="381" y="225" on="0"/>
        <pt x="317" y="270" on="0"/>
        <pt x="239" y="296" on="1"/>
        <pt x="205" y="308" on="0"/>
        <pt x="137" y="339" on="0"/>
        <pt x="83" y="386" on="0"/>
        <pt x="49" y="453" on="0"/>
        <pt x="49" y="501" on="1"/>
        <pt x="49" y="549" on="0"/>
        <pt x="85" y="626" on="0"/>
        <pt x="151" y="680" on="0"/>
        <pt x="245" y="709" on="0"/>
        <pt x="304" y="709" on="1"/>
        <pt x="374" y="709" on="0"/>
        <pt x="476" y="679" on="0"/>
        <pt x="509" y="661" on="1"/>
        <pt x="464" y="538" on="1"/>
        <pt x="435" y="553" on="0"/>
        <pt x="364" y="576" on="0"/>
        <pt x="314" y="576" on="1"/>
        <pt x="258" y="576" on="0"/>
        <pt x="209" y="545" on="0"/>
        <pt x="209" y="513" on="1"/>
        <pt x="209" y="494" on="0"/>
        <pt x="227" y="468" on="0"/>
        <pt x="260" y="447" on="0"/>
        <pt x="303" y="430" on="0"/>
        <pt x="329" y="421" on="1"/>
        <pt x="383" y="401" on="0"/>
        <pt x="463" y="362" on="0"/>
        <pt x="516" y="310" on="0"/>
        <pt x="542" y="240" on="0"/>
        <pt x="542" y="190" on="1"/>
        <pt x="542" y="106" on="0"/>
        <pt x="440" y="3" on="0"/>
        <pt x="338" y="-10" on="1"/>
        <pt x="329" y="-26" on="0"/>
        <pt x="324" y="-40" on="1"/>
        <pt x="356" y="-56" on="0"/>
        <pt x="380" y="-100" on="0"/>
        <pt x="380" y="-123" on="1"/>
        <pt x="380" y="-171" on="0"/>
        <pt x="304" y="-221" on="0"/>
        <pt x="242" y="-221" on="1"/>
        <pt x="220" y="-221" on="0"/>
        <pt x="176" y="-214" on="0"/>
        <pt x="154" y="-208" on="1"/>
        <pt x="172" y="-121" on="1"/>
        <pt x="179" y="-123" on="0"/>
        <pt x="216" y="-132" on="0"/>
        <pt x="234" y="-132" on="1"/>
        <pt x="248" y="-132" on="0"/>
        <pt x="269" y="-121" on="0"/>
        <pt x="270" y="-107" on="1"/>
        <pt x="271" y="-95" on="0"/>
        <pt x="250" y="-75" on="0"/>
        <pt x="227" y="-70" on="1"/>
        <pt x="215" y="-67" on="1"/>
        <pt x="219" y="-56" on="0"/>
        <pt x="231" y="-27" on="0"/>
        <pt x="237" y="-13" on="1"/>
        <pt x="159" y="-9" on="0"/>
        <pt x="62" y="25" on="0"/>
        <pt x="37" y="39" on="1"/>
        <pt x="81" y="163" on="1"/>
        <pt x="112" y="146" on="0"/>
        <pt x="203" y="119" on="0"/>
      </contour>
    </TTGlyph>
    <TTGlyph name="Scircumflex" xMin="37" yMin="-14" xMax="542" yMax="948">
      <component glyphName="S" x="0" y="0" flags="0x204"/>
      <component glyphName="circumflex" x="105" y="166" flags="0x4"/>
    </TTGlyph>
    <TTGlyph name="Scommaaccent" xMin="37" yMin="-220" xMax="542" yMax="709">
      <component glyphName="S" x="0" y="0" flags="0x204"/>
      <component glyphName="commaaccent" x="151" y="0" flags="0x4"/>
    </TTGlyph>
    <TTGlyph name="Sigma" xMin="31" yMin="0" xMax="555" yMax="693">
      <contour>
        <pt x="247" y="350" on="1"/>
        <pt x="224" y="381" on="0"/>
        <pt x="170" y="447" on="0"/>
        <pt x="116" y="510" on="0"/>
        <pt x="66" y="569" on="0"/>
        <pt x="46" y="592" on="1"/>
        <pt x="46" y="693" on="1"/>
        <pt x="555" y="693" on="1"/>
        <pt x="555" y="562" on="1"/>
        <pt x="253" y="562" on="1"/>
        <pt x="295" y="511" on="0"/>
        <pt x="385" y="401" on="0"/>
        <pt x="423" y="350" on="1"/>
        <pt x="408" y="332" on="0"/>
        <pt x="355" y="275" on="0"/>
        <pt x="297" y="212" on="0"/>
        <pt x="243" y="152" on="0"/>
        <pt x="226" y="131" on="1"/>
        <pt x="555" y="131" on="1"/>
        <pt x="555" y="0" on="1"/>
        <pt x="31" y="0" on="1"/>
        <pt x="31" y="108" on="1"/>
        <pt x="79" y="165" on="0"/>
        <pt x="193" y="290" on="0"/>
      </contour>
    </TTGlyph>
    <TTGlyph name="Slash" xMin="-25" yMin="-138" xMax="462" yMax="830">
      <component glyphName="slash" x="0" y="47" flags="0x214"/>
    </TTGlyph>
    <TTGlyph name="T" xMin="20" yMin="0" xMax="594" yMax="693">
      <contour>
        <pt x="594" y="693" on="1"/>
        <pt x="594" y="560" on="1"/>
        <pt x="385" y="560" on="1"/>
        <pt x="385" y="0" on="1"/>
        <pt x="229" y="0" on="1"/>
        <pt x="229" y="560" on="1"/>
        <pt x="20" y="560" on="1"/>
        <pt x="20" y="693" on="1"/>
      </contour>
    </TTGlyph>
    <TTGlyph name="Tau" xMin="20" yMin="0" xMax="594" yMax="693">
      <component glyphName="T" x="0" y="0" flags="0x204"/>
    </TTGlyph>
    <TTGlyph name="Tbar" xMin="20" yMin="0" xMax="594" yMax="693">
      <contour>
        <pt x="594" y="693" on="1"/>
        <pt x="594" y="560" on="1"/>
        <pt x="385" y="560" on="1"/>
        <pt x="385" y="377" on="1"/>
        <pt x="526" y="377" on="1"/>
        <pt x="526" y="267" on="1"/>
        <pt x="385" y="267" on="1"/>
        <pt x="385" y="0" on="1"/>
        <pt x="229" y="0" on="1"/>
        <pt x="229" y="267" on="1"/>
        <pt x="88" y="267" on="1"/>
        <pt x="88" y="377" on="1"/>
        <pt x="229" y="377" on="1"/>
        <pt x="229" y="560" on="1"/>
        <pt x="20" y="560" on="1"/>
        <pt x="20" y="693" on="1"/>
      </contour>
    </TTGlyph>
    <TTGlyph name="Tcaron" xMin="20" yMin="0" xMax="594" yMax="950">
      <component glyphName="T" x="0" y="0" flags="0x204"/>
      <component glyphName="caron" x="106" y="161" flags="0x4"/>
    </TTGlyph>
    <TTGlyph name="Theta" xMin="50" yMin="-14" xMax="740" yMax="709">
      <contour>
        <pt x="211" y="347" on="1"/>
        <pt x="211" y="296" on="0"/>
        <pt x="236" y="214" on="0"/>
        <pt x="283" y="155" on="0"/>
        <pt x="351" y="123" on="0"/>
        <pt x="395" y="123" on="1"/>
        <pt x="438" y="123" on="0"/>
        <pt x="507" y="155" on="0"/>
        <pt x="554" y="214" on="0"/>
        <pt x="579" y="296" on="0"/>
        <pt x="579" y="347" on="1"/>
        <pt x="579" y="398" on="0"/>
        <pt x="554" y="481" on="0"/>
        <pt x="507" y="540" on="0"/>
        <pt x="438" y="572" on="0"/>
        <pt x="395" y="572" on="1"/>
        <pt x="351" y="572" on="0"/>
        <pt x="283" y="539" on="0"/>
        <pt x="236" y="480" on="0"/>
        <pt x="211" y="397" on="0"/>
      </contour>
      <contour>
        <pt x="740" y="347" on="1"/>
        <pt x="740" y="258" on="0"/>
        <pt x="687" y="123" on="0"/>
        <pt x="595" y="32" on="0"/>
        <pt x="468" y="-14" on="0"/>
        <pt x="395" y="-14" on="1"/>
        <pt x="324" y="-14" on="0"/>
        <pt x="198" y="32" on="0"/>
        <pt x="104" y="123" on="0"/>
        <pt x="50" y="258" on="0"/>
        <pt x="50" y="347" on="1"/>
        <pt x="50" y="436" on="0"/>
        <pt x="106" y="571" on="0"/>
        <pt x="201" y="663" on="0"/>
        <pt x="326" y="709" on="0"/>
        <pt x="395" y="709" on="1"/>
        <pt x="466" y="709" on="0"/>
        <pt x="592" y="663" on="0"/>
        <pt x="686" y="571" on="0"/>
        <pt x="740" y="436" on="0"/>
      </contour>
      <contour>
        <pt x="284" y="410" on="1"/>
        <pt x="507" y="410" on="1"/>
        <pt x="507" y="286" on="1"/>
        <pt x="284" y="286" on="1"/>
      </contour>
    </TTGlyph>
    <TTGlyph name="Thorn" xMin="80" yMin="0" xMax="609" yMax="693">
      <contour>
        <pt x="308" y="596" on="1"/>
        <pt x="374" y="596" on="0"/>
        <pt x="485" y="571" on="0"/>
        <pt x="565" y="515" on="0"/>
        <pt x="609" y="427" on="0"/>
        <pt x="609" y="364" on="1"/>
        <pt x="609" y="239" on="0"/>
        <pt x="441" y="128" on="0"/>
        <pt x="285" y="128" on="1"/>
        <pt x="236" y="128" on="1"/>
        <pt x="236" y="0" on="1"/>
        <pt x="80" y="0" on="1"/>
        <pt x="80" y="693" on="1"/>
        <pt x="236" y="693" on="1"/>
        <pt x="236" y="593" on="1"/>
        <pt x="243" y="594" on="0"/>
        <pt x="263" y="595" on="0"/>
        <pt x="283" y="596" on="0"/>
        <pt x="302" y="596" on="0"/>
      </contour>
      <contour>
        <pt x="298" y="464" on="1"/>
        <pt x="281" y="464" on="0"/>
        <pt x="248" y="462" on="0"/>
        <pt x="236" y="461" on="1"/>
        <pt x="236" y="261" on="1"/>
        <pt x="285" y="261" on="1"/>
        <pt x="366" y="261" on="0"/>
        <pt x="448" y="305" on="0"/>
        <pt x="448" y="365" on="1"/>
        <pt x="448" y="394" on="0"/>
        <pt x="427" y="432" on="0"/>
        <pt x="388" y="455" on="0"/>
        <pt x="332" y="464" on="0"/>
      </contour>
    </TTGlyph>
    <TTGlyph name="U" xMin="70" yMin="-14" xMax="637" yMax="693">
      <contour>
        <pt x="351" y="-14" on="1"/>
        <pt x="278" y="-14" on="0"/>
        <pt x="172" y="27" on="0"/>
        <pt x="103" y="100" on="0"/>
        <pt x="70" y="201" on="0"/>
        <pt x="70" y="262" on="1"/>
        <pt x="70" y="693" on="1"/>
        <pt x="226" y="693" on="1"/>
        <pt x="226" y="275" on="1"/>
        <pt x="226" y="233" on="0"/>
        <pt x="245" y="174" on="0"/>
        <pt x="278" y="137" on="0"/>
        <pt x="325" y="121" on="0"/>
        <pt x="353" y="121" on="1"/>
        <pt x="410" y="121" on="0"/>
        <pt x="481" y="191" on="0"/>
        <pt x="481" y="275" on="1"/>
        <pt x="481" y="693" on="1"/>
        <pt x="637" y="693" on="1"/>
        <pt x="637" y="262" on="1"/>
        <pt x="637" y="201" on="0"/>
        <pt x="603" y="99" on="0"/>
        <pt x="533" y="26" on="0"/>
        <pt x="425" y="-14" on="0"/>
      </contour>
    </TTGlyph>
    <TTGlyph name="Uacute" xMin="70" yMin="-14" xMax="637" yMax="959">
      <component glyphName="U" x="0" y="0" flags="0x204"/>
      <component glyphName="acute" x="230" y="160" flags="0x4"/>
    </TTGlyph>
    <TTGlyph name="Ubreve" xMin="70" yMin="-14" xMax="637" yMax="917">
      <component glyphName="U" x="0" y="0" flags="0x204"/>
      <component glyphName="breve" x="148" y="153" flags="0x4"/>
    </TTGlyph>
    <TTGlyph name="Ucircumflex" xMin="70" yMin="-14" xMax="637" yMax="948">
      <component glyphName="U" x="0" y="0" flags="0x204"/>
      <component glyphName="circumflex" x="154" y="166" flags="0x4"/>
    </TTGlyph>
    <TTGlyph name="Udieresis" xMin="70" yMin="-14" xMax="637" yMax="914">
      <component glyphName="U" x="0" y="0" flags="0x204"/>
      <component glyphName="dieresis" x="86" y="160" flags="0x4"/>
    </TTGlyph>
    <TTGlyph name="Ugrave" xMin="70" yMin="-14" xMax="637" yMax="959">
      <component glyphName="U" x="0" y="0" flags="0x204"/>
      <component glyphName="grave" x="190" y="160" flags="0x4"/>
    </TTGlyph>
    <TTGlyph name="Uhorn" xMin="70" yMin="-14" xMax="757" yMax="801">
      <contour>
        <pt x="351" y="-14" on="1"/>
        <pt x="278" y="-14" on="0"/>
        <pt x="172" y="27" on="0"/>
        <pt x="103" y="100" on="0"/>
        <pt x="70" y="201" on="0"/>
        <pt x="70" y="262" on="1"/>
        <pt x="70" y="693" on="1"/>
        <pt x="226" y="693" on="1"/>
        <pt x="226" y="275" on="1"/>
        <pt x="226" y="233" on="0"/>
        <pt x="245" y="174" on="0"/>
        <pt x="278" y="137" on="0"/>
        <pt x="325" y="121" on="0"/>
        <pt x="353" y="121" on="1"/>
        <pt x="410" y="121" on="0"/>
        <pt x="481" y="191" on="0"/>
        <pt x="481" y="275" on="1"/>
        <pt x="481" y="693" on="1"/>
        <pt x="538" y="693" on="1"/>
        <pt x="585" y="693" on="0"/>
        <pt x="621" y="731" on="0"/>
        <pt x="621" y="756" on="1"/>
        <pt x="621" y="768" on="0"/>
        <pt x="620" y="788" on="0"/>
        <pt x="619" y="801" on="1"/>
        <pt x="753" y="801" on="1"/>
        <pt x="755" y="787" on="0"/>
        <pt x="757" y="761" on="0"/>
        <pt x="757" y="747" on="1"/>
        <pt x="757" y="724" on="0"/>
        <pt x="747" y="678" on="0"/>
        <pt x="720" y="637" on="0"/>
        <pt x="674" y="606" on="0"/>
        <pt x="637" y="598" on="1"/>
        <pt x="637" y="262" on="1"/>
        <pt x="637" y="201" on="0"/>
        <pt x="603" y="99" on="0"/>
        <pt x="533" y="26" on="0"/>
        <pt x="425" y="-14" on="0"/>
      </contour>
    </TTGlyph>
    <TTGlyph name="Uhungarumlaut" xMin="70" yMin="-14" xMax="637" yMax="961">
      <component glyphName="U" x="0" y="0" flags="0x204"/>
      <component glyphName="hungarumlaut" x="151" y="162" flags="0x4"/>
    </TTGlyph>
    <TTGlyph name="Umacron" xMin="70" yMin="-14" xMax="637" yMax="878">
      <component glyphName="U" x="0" y="0" flags="0x204"/>
      <component glyphName="macron" x="165" y="153" flags="0x4"/>
    </TTGlyph>
    <TTGlyph name="Uogonek" xMin="70" yMin="-221" xMax="637" yMax="693">
      <contour>
        <pt x="345" y="-14" on="1"/>
        <pt x="273" y="-13" on="0"/>
        <pt x="169" y="29" on="0"/>
        <pt x="102" y="102" on="0"/>
        <pt x="70" y="202" on="0"/>
        <pt x="70" y="262" on="1"/>
        <pt x="70" y="693" on="1"/>
        <pt x="226" y="693" on="1"/>
        <pt x="226" y="275" on="1"/>
        <pt x="226" y="233" on="0"/>
        <pt x="245" y="174" on="0"/>
        <pt x="278" y="137" on="0"/>
        <pt x="325" y="121" on="0"/>
        <pt x="353" y="121" on="1"/>
        <pt x="410" y="121" on="0"/>
        <pt x="481" y="191" on="0"/>
        <pt x="481" y="275" on="1"/>
        <pt x="481" y="693" on="1"/>
        <pt x="637" y="693" on="1"/>
        <pt x="637" y="262" on="1"/>
        <pt x="637" y="183" on="0"/>
        <pt x="583" y="63" on="0"/>
        <pt x="520" y="25" on="1"/>
        <pt x="506" y="17" on="0"/>
        <pt x="485" y="2" on="0"/>
        <pt x="466" y="-13" on="0"/>
        <pt x="448" y="-30" on="0"/>
        <pt x="437" y="-41" on="1"/>
        <pt x="424" y="-54" on="0"/>
        <pt x="409" y="-77" on="0"/>
        <pt x="409" y="-88" on="1"/>
        <pt x="409" y="-99" on="0"/>
        <pt x="422" y="-113" on="0"/>
        <pt x="439" y="-113" on="1"/>
        <pt x="448" y="-113" on="0"/>
        <pt x="473" y="-110" on="0"/>
        <pt x="490" y="-105" on="1"/>
        <pt x="502" y="-205" on="1"/>
        <pt x="482" y="-213" on="0"/>
        <pt x="426" y="-221" on="0"/>
        <pt x="403" y="-221" on="1"/>
        <pt x="336" y="-221" on="0"/>
        <pt x="278" y="-171" on="0"/>
        <pt x="278" y="-130" on="1"/>
        <pt x="278" y="-109" on="0"/>
        <pt x="296" y="-69" on="0"/>
        <pt x="311" y="-50" on="1"/>
        <pt x="328" y="-28" on="0"/>
      </contour>
    </TTGlyph>
    <TTGlyph name="Upsilon" xMin="5" yMin="0" xMax="656" yMax="693">
      <component glyphName="Y" x="0" y="0" flags="0x204"/>
    </TTGlyph>
    <TTGlyph name="Upsilondieresis" xMin="5" yMin="0" xMax="656" yMax="921">
      <component glyphName="Y" x="0" y="0" flags="0x204"/>
      <component glyphName="dieresis" x="56" y="167" flags="0x4"/>
    </TTGlyph>
    <TTGlyph name="Upsilontonos" xMin="-3" yMin="0" xMax="856" yMax="717">
      <component glyphName="Y" x="200" y="0" flags="0x4"/>
      <component glyphName="tonos.cap" x="-108" y="0" flags="0x4"/>
    </TTGlyph>
    <TTGlyph name="Uring" xMin="70" yMin="-14" xMax="637" yMax="949">
      <component glyphName="U" x="0" y="0" flags="0x204"/>
      <component glyphName="ring" x="191" y="135" flags="0x4"/>
    </TTGlyph>
    <TTGlyph name="Utilde" xMin="70" yMin="-14" xMax="637" yMax="920">
      <component glyphName="U" x="0" y="0" flags="0x204"/>
      <component glyphName="tilde" x="167" y="163" flags="0x4"/>
    </TTGlyph>
    <TTGlyph name="V" xMin="10" yMin="0" xMax="712" yMax="693">
      <contour>
        <pt x="286" y="0" on="1"/>
        <pt x="245" y="87" on="0"/>
        <pt x="165" y="275" on="0"/>
        <pt x="93" y="459" on="0"/>
        <pt x="32" y="627" on="0"/>
        <pt x="10" y="693" on="1"/>
        <pt x="182" y="693" on="1"/>
        <pt x="202" y="633" on="0"/>
        <pt x="249" y="494" on="0"/>
        <pt x="298" y="356" on="0"/>
        <pt x="344" y="230" on="0"/>
        <pt x="364" y="184" on="1"/>
        <pt x="383" y="230" on="0"/>
        <pt x="430" y="356" on="0"/>
        <pt x="479" y="494" on="0"/>
        <pt x="526" y="633" on="0"/>
        <pt x="546" y="693" on="1"/>
        <pt x="712" y="693" on="1"/>
        <pt x="689" y="627" on="0"/>
        <pt x="629" y="459" on="0"/>
        <pt x="557" y="275" on="0"/>
        <pt x="477" y="87" on="0"/>
        <pt x="436" y="0" on="1"/>
      </contour>
    </TTGlyph>
    <TTGlyph name="W" xMin="20" yMin="0" xMax="928" yMax="693">
      <contour>
        <pt x="545" y="619" on="1"/>
        <pt x="557" y="578" on="0"/>
        <pt x="586" y="475" on="0"/>
        <pt x="619" y="365" on="0"/>
        <pt x="653" y="255" on="0"/>
        <pt x="669" y="208" on="1"/>
        <pt x="682" y="259" on="0"/>
        <pt x="709" y="379" on="0"/>
        <pt x="733" y="507" on="0"/>
        <pt x="756" y="634" on="0"/>
        <pt x="766" y="693" on="1"/>
        <pt x="928" y="693" on="1"/>
        <pt x="893" y="519" on="0"/>
        <pt x="802" y="161" on="0"/>
        <pt x="749" y="0" on="1"/>
        <pt x="606" y="0" on="1"/>
        <pt x="571" y="96" on="0"/>
        <pt x="505" y="307" on="0"/>
        <pt x="473" y="413" on="1"/>
        <pt x="441" y="307" on="0"/>
        <pt x="377" y="96" on="0"/>
        <pt x="342" y="0" on="1"/>
        <pt x="199" y="0" on="1"/>
        <pt x="146" y="161" on="0"/>
        <pt x="55" y="519" on="0"/>
        <pt x="20" y="693" on="1"/>
        <pt x="189" y="693" on="1"/>
        <pt x="199" y="634" on="0"/>
        <pt x="223" y="507" on="0"/>
        <pt x="249" y="379" on="0"/>
        <pt x="276" y="259" on="0"/>
        <pt x="290" y="208" on="1"/>
        <pt x="308" y="257" on="0"/>
        <pt x="342" y="367" on="0"/>
        <pt x="374" y="477" on="0"/>
        <pt x="401" y="579" on="0"/>
        <pt x="412" y="619" on="1"/>
      </contour>
    </TTGlyph>
    <TTGlyph name="Wacute" xMin="20" yMin="0" xMax="928" yMax="957">
      <component glyphName="W" x="0" y="0" flags="0x204"/>
      <component glyphName="acute" x="331" y="158" flags="0x4"/>
    </TTGlyph>
    <TTGlyph name="Wcircumflex" xMin="20" yMin="0" xMax="928" yMax="938">
      <component glyphName="W" x="0" y="0" flags="0x204"/>
      <component glyphName="circumflex" x="276" y="156" flags="0x4"/>
    </TTGlyph>
    <TTGlyph name="Wdieresis" xMin="20" yMin="0" xMax="928" yMax="904">
      <component glyphName="W" x="0" y="0" flags="0x204"/>
      <component glyphName="dieresis" x="207" y="150" flags="0x4"/>
    </TTGlyph>
    <TTGlyph name="Wgrave" xMin="20" yMin="0" xMax="928" yMax="957">
      <component glyphName="W" x="0" y="0" flags="0x204"/>
      <component glyphName="grave" x="331" y="158" flags="0x4"/>
    </TTGlyph>
    <TTGlyph name="X" xMin="10" yMin="0" xMax="665" yMax="693">
      <contour>
        <pt x="478" y="0" on="1"/>
        <pt x="449" y="58" on="0"/>
        <pt x="380" y="177" on="0"/>
        <pt x="335" y="239" on="1"/>
        <pt x="321" y="221" on="0"/>
        <pt x="278" y="157" on="0"/>
        <pt x="235" y="85" on="0"/>
        <pt x="197" y="19" on="0"/>
        <pt x="188" y="0" on="1"/>
        <pt x="10" y="0" on="1"/>
        <pt x="54" y="81" on="0"/>
        <pt x="171" y="259" on="0"/>
        <pt x="243" y="359" on="1"/>
        <pt x="20" y="693" on="1"/>
        <pt x="209" y="693" on="1"/>
        <pt x="344" y="477" on="1"/>
        <pt x="476" y="693" on="1"/>
        <pt x="654" y="693" on="1"/>
        <pt x="434" y="357" on="1"/>
        <pt x="518" y="248" on="0"/>
        <pt x="632" y="63" on="0"/>
        <pt x="665" y="0" on="1"/>
      </contour>
    </TTGlyph>
    <TTGlyph name="Xi" xMin="35" yMin="0" xMax="523" yMax="693">
      <contour>
        <pt x="35" y="693" on="1"/>
        <pt x="523" y="693" on="1"/>
        <pt x="523" y="560" on="1"/>
        <pt x="35" y="560" on="1"/>
      </contour>
      <contour>
        <pt x="78" y="297" on="1"/>
        <pt x="78" y="427" on="1"/>
        <pt x="480" y="427" on="1"/>
        <pt x="480" y="297" on="1"/>
      </contour>
      <contour>
        <pt x="35" y="133" on="1"/>
        <pt x="523" y="133" on="1"/>
        <pt x="523" y="0" on="1"/>
        <pt x="35" y="0" on="1"/>
      </contour>
    </TTGlyph>
    <TTGlyph name="Y" xMin="5" yMin="0" xMax="656" yMax="693">
      <contour>
        <pt x="334" y="408" on="1"/>
        <pt x="376" y="479" on="0"/>
        <pt x="452" y="621" on="0"/>
        <pt x="484" y="693" on="1"/>
        <pt x="656" y="693" on="1"/>
        <pt x="599" y="581" on="0"/>
        <pt x="477" y="371" on="0"/>
        <pt x="409" y="265" on="1"/>
        <pt x="409" y="0" on="1"/>
        <pt x="253" y="0" on="1"/>
        <pt x="253" y="263" on="1"/>
        <pt x="185" y="369" on="0"/>
        <pt x="62" y="581" on="0"/>
        <pt x="5" y="693" on="1"/>
        <pt x="186" y="693" on="1"/>
        <pt x="218" y="621" on="0"/>
        <pt x="292" y="479" on="0"/>
      </contour>
    </TTGlyph>
    <TTGlyph name="Yacute" xMin="5" yMin="0" xMax="656" yMax="959">
      <component glyphName="Y" x="0" y="0" flags="0x204"/>
      <component glyphName="acute" x="212" y="160" flags="0x4"/>
    </TTGlyph>
    <TTGlyph name="Ycircumflex" xMin="5" yMin="0" xMax="656" yMax="948">
      <component glyphName="Y" x="0" y="0" flags="0x204"/>
      <component glyphName="circumflex" x="133" y="166" flags="0x4"/>
    </TTGlyph>
    <TTGlyph name="Ydieresis" xMin="5" yMin="0" xMax="656" yMax="914">
      <component glyphName="Y" x="0" y="0" flags="0x204"/>
      <component glyphName="dieresis" x="63" y="160" flags="0x4"/>
    </TTGlyph>
    <TTGlyph name="Ygrave" xMin="5" yMin="0" xMax="656" yMax="959">
      <component glyphName="Y" x="0" y="0" flags="0x204"/>
      <component glyphName="grave" x="167" y="160" flags="0x4"/>
    </TTGlyph>
    <TTGlyph name="Z" xMin="35" yMin="0" xMax="580" yMax="693">
      <contour>
        <pt x="569" y="585" on="1"/>
        <pt x="537" y="552" on="0"/>
        <pt x="449" y="447" on="0"/>
        <pt x="355" y="323" on="0"/>
        <pt x="263" y="191" on="0"/>
        <pt x="227" y="131" on="1"/>
        <pt x="580" y="131" on="1"/>
        <pt x="580" y="0" on="1"/>
        <pt x="35" y="0" on="1"/>
        <pt x="35" y="93" on="1"/>
        <pt x="63" y="144" on="0"/>
        <pt x="144" y="269" on="0"/>
        <pt x="232" y="396" on="0"/>
        <pt x="323" y="515" on="0"/>
        <pt x="362" y="562" on="1"/>
        <pt x="51" y="562" on="1"/>
        <pt x="51" y="693" on="1"/>
        <pt x="569" y="693" on="1"/>
      </contour>
    </TTGlyph>
    <TTGlyph name="Zacute" xMin="35" yMin="0" xMax="580" yMax="959">
      <component glyphName="Z" x="0" y="0" flags="0x204"/>
      <component glyphName="acute" x="182" y="160" flags="0x4"/>
    </TTGlyph>
    <TTGlyph name="Zcaron" xMin="35" yMin="0" xMax="580" yMax="950">
      <component glyphName="Z" x="0" y="0" flags="0x204"/>
      <component glyphName="caron" x="111" y="161" flags="0x4"/>
    </TTGlyph>
    <TTGlyph name="Zdotaccent" xMin="35" yMin="0" xMax="580" yMax="916">
      <component glyphName="Z" x="0" y="0" flags="0x204"/>
      <component glyphName="dotaccent" x="182" y="160" flags="0x4"/>
    </TTGlyph>
    <TTGlyph name="Zeta" xMin="35" yMin="0" xMax="580" yMax="693">
      <component glyphName="Z" x="0" y="0" flags="0x204"/>
    </TTGlyph>
    <TTGlyph name="a" xMin="35" yMin="-11" xMax="488" yMax="540">
      <contour>
        <pt x="271" y="104" on="1"/>
        <pt x="293" y="104" on="0"/>
        <pt x="333" y="106" on="0"/>
        <pt x="345" y="108" on="1"/>
        <pt x="345" y="221" on="1"/>
        <pt x="336" y="223" on="0"/>
        <pt x="300" y="227" on="0"/>
        <pt x="285" y="227" on="1"/>
        <pt x="264" y="227" on="0"/>
        <pt x="227" y="222" on="0"/>
        <pt x="199" y="208" on="0"/>
        <pt x="183" y="184" on="0"/>
        <pt x="183" y="166" on="1"/>
        <pt x="183" y="131" on="0"/>
        <pt x="230" y="104" on="0"/>
      </contour>
      <contour>
        <pt x="259" y="540" on="1"/>
        <pt x="325" y="540" on="0"/>
        <pt x="413" y="510" on="0"/>
        <pt x="466" y="454" on="0"/>
        <pt x="488" y="374" on="0"/>
        <pt x="488" y="325" on="1"/>
        <pt x="488" y="15" on="1"/>
        <pt x="456" y="8" on="0"/>
        <pt x="342" y="-11" on="0"/>
        <pt x="261" y="-11" on="1"/>
        <pt x="210" y="-11" on="0"/>
        <pt x="127" y="7" on="0"/>
        <pt x="67" y="48" on="0"/>
        <pt x="35" y="114" on="0"/>
        <pt x="35" y="162" on="1"/>
        <pt x="35" y="208" on="0"/>
        <pt x="72" y="272" on="0"/>
        <pt x="134" y="310" on="0"/>
        <pt x="214" y="327" on="0"/>
        <pt x="257" y="327" on="1"/>
        <pt x="286" y="327" on="0"/>
        <pt x="331" y="322" on="0"/>
        <pt x="345" y="318" on="1"/>
        <pt x="345" y="332" on="1"/>
        <pt x="345" y="370" on="0"/>
        <pt x="299" y="416" on="0"/>
        <pt x="242" y="416" on="1"/>
        <pt x="204" y="416" on="0"/>
        <pt x="130" y="405" on="0"/>
        <pt x="103" y="395" on="1"/>
        <pt x="84" y="515" on="1"/>
        <pt x="97" y="519" on="0"/>
        <pt x="136" y="528" on="0"/>
        <pt x="182" y="535" on="0"/>
        <pt x="233" y="540" on="0"/>
      </contour>
    </TTGlyph>
    <TTGlyph name="aacute" xMin="35" yMin="-11" xMax="488" yMax="799">
      <component glyphName="a" x="0" y="0" flags="0x204"/>
      <component glyphName="acute" x="138" y="0" flags="0x4"/>
    </TTGlyph>
    <TTGlyph name="abreve" xMin="35" yMin="-11" xMax="488" yMax="764">
      <component glyphName="a" x="0" y="0" flags="0x204"/>
      <component glyphName="breve" x="72" y="0" flags="0x4"/>
    </TTGlyph>
    <TTGlyph name="acircumflex" xMin="35" yMin="-11" xMax="488" yMax="782">
      <component glyphName="a" x="0" y="0" flags="0x204"/>
      <component glyphName="circumflex" x="62" y="0" flags="0x4"/>
    </TTGlyph>
    <TTGlyph name="acute" xMin="26" yMin="576" xMax="259" yMax="799">
      <contour>
        <pt x="259" y="715" on="1"/>
        <pt x="94" y="576" on="1"/>
        <pt x="26" y="637" on="1"/>
        <pt x="168" y="799" on="1"/>
      </contour>
    </TTGlyph>
    <TTGlyph name="acute.asc" xMin="40" yMin="792" xMax="288" yMax="962">
      <contour>
        <pt x="288" y="861" on="1"/>
        <pt x="70" y="792" on="1"/>
        <pt x="40" y="861" on="1"/>
        <pt x="252" y="962" on="1"/>
      </contour>
    </TTGlyph>
    <TTGlyph name="adieresis" xMin="35" yMin="-11" xMax="488" yMax="754">
      <component glyphName="a" x="0" y="0" flags="0x204"/>
      <component glyphName="dieresis" x="-2" y="0" flags="0x4"/>
    </TTGlyph>
    <TTGlyph name="ae" xMin="35" yMin="-14" xMax="829" yMax="540">
      <contour>
        <pt x="259" y="540" on="1"/>
        <pt x="290" y="540" on="0"/>
        <pt x="340" y="532" on="0"/>
        <pt x="379" y="515" on="0"/>
        <pt x="411" y="488" on="0"/>
        <pt x="425" y="469" on="1"/>
        <pt x="459" y="507" on="0"/>
        <pt x="545" y="540" on="0"/>
        <pt x="594" y="540" on="1"/>
        <pt x="648" y="540" on="0"/>
        <pt x="734" y="505" on="0"/>
        <pt x="796" y="437" on="0"/>
        <pt x="829" y="336" on="0"/>
        <pt x="829" y="270" on="1"/>
        <pt x="829" y="257" on="0"/>
        <pt x="827" y="226" on="0"/>
        <pt x="826" y="214" on="1"/>
        <pt x="488" y="214" on="1"/>
        <pt x="493" y="168" on="0"/>
        <pt x="569" y="114" on="0"/>
        <pt x="633" y="114" on="1"/>
        <pt x="674" y="114" on="0"/>
        <pt x="753" y="129" on="0"/>
        <pt x="778" y="140" on="1"/>
        <pt x="798" y="19" on="1"/>
        <pt x="786" y="13" on="0"/>
        <pt x="746" y="1" on="0"/>
        <pt x="697" y="-8" on="0"/>
        <pt x="641" y="-14" on="0"/>
        <pt x="613" y="-14" on="1"/>
        <pt x="554" y="-14" on="0"/>
        <pt x="466" y="12" on="0"/>
        <pt x="435" y="33" on="1"/>
        <pt x="360" y="-11" on="0"/>
        <pt x="261" y="-11" on="1"/>
        <pt x="210" y="-11" on="0"/>
        <pt x="127" y="7" on="0"/>
        <pt x="67" y="48" on="0"/>
        <pt x="35" y="114" on="0"/>
        <pt x="35" y="162" on="1"/>
        <pt x="35" y="208" on="0"/>
        <pt x="72" y="272" on="0"/>
        <pt x="134" y="310" on="0"/>
        <pt x="214" y="327" on="0"/>
        <pt x="257" y="327" on="1"/>
        <pt x="286" y="327" on="0"/>
        <pt x="331" y="322" on="0"/>
        <pt x="345" y="318" on="1"/>
        <pt x="345" y="335" on="1"/>
        <pt x="345" y="373" on="0"/>
        <pt x="299" y="416" on="0"/>
        <pt x="242" y="416" on="1"/>
        <pt x="204" y="416" on="0"/>
        <pt x="130" y="405" on="0"/>
        <pt x="103" y="395" on="1"/>
        <pt x="84" y="515" on="1"/>
        <pt x="97" y="519" on="0"/>
        <pt x="136" y="528" on="0"/>
        <pt x="182" y="535" on="0"/>
        <pt x="233" y="540" on="0"/>
      </contour>
      <contour>
        <pt x="271" y="104" on="1"/>
        <pt x="302" y="104" on="0"/>
        <pt x="353" y="111" on="0"/>
        <pt x="372" y="119" on="1"/>
        <pt x="358" y="155" on="0"/>
        <pt x="348" y="200" on="0"/>
        <pt x="347" y="223" on="1"/>
        <pt x="333" y="225" on="0"/>
        <pt x="295" y="227" on="0"/>
        <pt x="285" y="227" on="1"/>
        <pt x="264" y="227" on="0"/>
        <pt x="227" y="222" on="0"/>
        <pt x="199" y="208" on="0"/>
        <pt x="183" y="184" on="0"/>
        <pt x="183" y="166" on="1"/>
        <pt x="183" y="131" on="0"/>
        <pt x="230" y="104" on="0"/>
      </contour>
      <contour>
        <pt x="684" y="316" on="1"/>
        <pt x="683" y="335" on="0"/>
        <pt x="672" y="371" on="0"/>
        <pt x="649" y="399" on="0"/>
        <pt x="614" y="417" on="0"/>
        <pt x="588" y="417" on="1"/>
        <pt x="563" y="417" on="0"/>
        <pt x="527" y="400" on="0"/>
        <pt x="503" y="372" on="0"/>
        <pt x="490" y="335" on="0"/>
        <pt x="487" y="316" on="1"/>
      </contour>
    </TTGlyph>
    <TTGlyph name="aeacute" xMin="35" yMin="-14" xMax="829" yMax="799">
      <component glyphName="ae" x="0" y="0" flags="0x204"/>
      <component glyphName="acute" x="338" y="0" flags="0x4"/>
    </TTGlyph>
    <TTGlyph name="afii00208" xMin="0" yMin="237" xMax="1000" yMax="361">
      <component glyphName="emdash" x="0" y="0" flags="0x204"/>
    </TTGlyph>
    <TTGlyph name="afii10017" xMin="10" yMin="0" xMax="711" yMax="693">
      <component glyphName="A" x="0" y="0" flags="0x204"/>
    </TTGlyph>
    <TTGlyph name="afii10018" xMin="80" yMin="-7" xMax="605" yMax="693">
      <component glyphName="uni0182" x="0" y="0" flags="0x204"/>
    </TTGlyph>
    <TTGlyph name="afii10019" xMin="80" yMin="-9" xMax="627" yMax="701">
      <component glyphName="B" x="0" y="0" flags="0x204"/>
    </TTGlyph>
    <TTGlyph name="afii10020" xMin="80" yMin="0" xMax="553" yMax="693">
      <contour>
        <pt x="236" y="0" on="1"/>
        <pt x="80" y="0" on="1"/>
        <pt x="80" y="693" on="1"/>
        <pt x="553" y="693" on="1"/>
        <pt x="553" y="561" on="1"/>
        <pt x="236" y="561" on="1"/>
      </contour>
    </TTGlyph>
    <TTGlyph name="afii10021" xMin="20" yMin="-185" xMax="802" yMax="693">
      <contour>
        <pt x="20" y="132" on="1"/>
        <pt x="120" y="132" on="1"/>
        <pt x="157" y="196" on="0"/>
        <pt x="199" y="322" on="0"/>
        <pt x="220" y="452" on="0"/>
        <pt x="225" y="590" on="0"/>
        <pt x="225" y="666" on="1"/>
        <pt x="225" y="693" on="1"/>
        <pt x="683" y="693" on="1"/>
        <pt x="683" y="132" on="1"/>
        <pt x="802" y="132" on="1"/>
        <pt x="802" y="-185" on="1"/>
        <pt x="652" y="-185" on="1"/>
        <pt x="652" y="0" on="1"/>
        <pt x="170" y="0" on="1"/>
        <pt x="170" y="-185" on="1"/>
        <pt x="20" y="-185" on="1"/>
      </contour>
      <contour>
        <pt x="372" y="561" on="1"/>
        <pt x="370" y="507" on="0"/>
        <pt x="360" y="393" on="0"/>
        <pt x="340" y="282" on="0"/>
        <pt x="307" y="177" on="0"/>
        <pt x="282" y="132" on="1"/>
        <pt x="531" y="132" on="1"/>
        <pt x="531" y="561" on="1"/>
      </contour>
    </TTGlyph>
    <TTGlyph name="afii10022" xMin="80" yMin="0" xMax="571" yMax="693">
      <component glyphName="E" x="0" y="0" flags="0x204"/>
    </TTGlyph>
    <TTGlyph name="afii10023" xMin="80" yMin="0" xMax="571" yMax="924">
      <component glyphName="E" x="0" y="0" flags="0x204"/>
      <component glyphName="dieresis" x="44" y="170" flags="0x4"/>
    </TTGlyph>
    <TTGlyph name="afii10024" xMin="10" yMin="0" xMax="973" yMax="693">
      <contour>
        <pt x="10" y="0" on="1"/>
        <pt x="39" y="51" on="0"/>
        <pt x="105" y="153" on="0"/>
        <pt x="174" y="248" on="0"/>
        <pt x="247" y="331" on="0"/>
        <pt x="284" y="364" on="1"/>
        <pt x="242" y="407" on="0"/>
        <pt x="170" y="489" on="0"/>
        <pt x="105" y="569" on="0"/>
        <pt x="43" y="650" on="0"/>
        <pt x="11" y="693" on="1"/>
        <pt x="199" y="693" on="1"/>
        <pt x="229" y="651" on="0"/>
        <pt x="282" y="581" on="0"/>
        <pt x="333" y="515" on="0"/>
        <pt x="385" y="451" on="0"/>
        <pt x="415" y="415" on="1"/>
        <pt x="415" y="693" on="1"/>
        <pt x="567" y="693" on="1"/>
        <pt x="567" y="415" on="1"/>
        <pt x="597" y="452" on="0"/>
        <pt x="652" y="519" on="0"/>
        <pt x="704" y="585" on="0"/>
        <pt x="756" y="654" on="0"/>
        <pt x="783" y="693" on="1"/>
        <pt x="970" y="693" on="1"/>
        <pt x="934" y="646" on="0"/>
        <pt x="871" y="564" on="0"/>
        <pt x="807" y="486" on="0"/>
        <pt x="740" y="408" on="0"/>
        <pt x="700" y="365" on="1"/>
        <pt x="781" y="290" on="0"/>
        <pt x="915" y="103" on="0"/>
        <pt x="973" y="0" on="1"/>
        <pt x="799" y="0" on="1"/>
        <pt x="768" y="47" on="0"/>
        <pt x="714" y="127" on="0"/>
        <pt x="660" y="201" on="0"/>
        <pt x="602" y="272" on="0"/>
        <pt x="567" y="310" on="1"/>
        <pt x="567" y="0" on="1"/>
        <pt x="415" y="0" on="1"/>
        <pt x="415" y="310" on="1"/>
        <pt x="379" y="268" on="0"/>
        <pt x="321" y="196" on="0"/>
        <pt x="268" y="124" on="0"/>
        <pt x="214" y="47" on="0"/>
        <pt x="183" y="0" on="1"/>
      </contour>
    </TTGlyph>
    <TTGlyph name="afii10025" xMin="25" yMin="-14" xMax="565" yMax="708">
      <contour>
        <pt x="142" y="423" on="1"/>
        <pt x="247" y="423" on="1"/>
        <pt x="274" y="423" on="0"/>
        <pt x="321" y="431" on="0"/>
        <pt x="356" y="451" on="0"/>
        <pt x="376" y="483" on="0"/>
        <pt x="376" y="507" on="1"/>
        <pt x="376" y="541" on="0"/>
        <pt x="322" y="575" on="0"/>
        <pt x="273" y="575" on="1"/>
        <pt x="218" y="575" on="0"/>
        <pt x="136" y="550" on="0"/>
        <pt x="99" y="529" on="1"/>
        <pt x="49" y="652" on="1"/>
        <pt x="89" y="677" on="0"/>
        <pt x="202" y="708" on="0"/>
        <pt x="274" y="708" on="1"/>
        <pt x="330" y="708" on="0"/>
        <pt x="426" y="683" on="0"/>
        <pt x="496" y="634" on="0"/>
        <pt x="535" y="559" on="0"/>
        <pt x="535" y="509" on="1"/>
        <pt x="535" y="471" on="0"/>
        <pt x="494" y="396" on="0"/>
        <pt x="452" y="370" on="1"/>
        <pt x="475" y="358" on="0"/>
        <pt x="516" y="326" on="0"/>
        <pt x="547" y="284" on="0"/>
        <pt x="565" y="231" on="0"/>
        <pt x="565" y="198" on="1"/>
        <pt x="565" y="87" on="0"/>
        <pt x="408" y="-14" on="0"/>
        <pt x="268" y="-14" on="1"/>
        <pt x="233" y="-14" on="0"/>
        <pt x="164" y="-4" on="0"/>
        <pt x="101" y="11" on="0"/>
        <pt x="46" y="31" on="0"/>
        <pt x="25" y="42" on="1"/>
        <pt x="71" y="164" on="1"/>
        <pt x="85" y="158" on="0"/>
        <pt x="126" y="143" on="0"/>
        <pt x="176" y="129" on="0"/>
        <pt x="230" y="119" on="0"/>
        <pt x="257" y="119" on="1"/>
        <pt x="323" y="119" on="0"/>
        <pt x="404" y="157" on="0"/>
        <pt x="404" y="204" on="1"/>
        <pt x="404" y="233" on="0"/>
        <pt x="378" y="269" on="0"/>
        <pt x="333" y="288" on="0"/>
        <pt x="272" y="295" on="0"/>
        <pt x="236" y="295" on="1"/>
        <pt x="142" y="295" on="1"/>
      </contour>
    </TTGlyph>
    <TTGlyph name="afii10026" xMin="80" yMin="0" xMax="676" yMax="693">
      <contour>
        <pt x="80" y="0" on="1"/>
        <pt x="80" y="693" on="1"/>
        <pt x="235" y="693" on="1"/>
        <pt x="235" y="284" on="1"/>
        <pt x="271" y="338" on="0"/>
        <pt x="353" y="455" on="0"/>
        <pt x="436" y="564" on="0"/>
        <pt x="516" y="660" on="0"/>
        <pt x="549" y="693" on="1"/>
        <pt x="676" y="693" on="1"/>
        <pt x="676" y="0" on="1"/>
        <pt x="522" y="0" on="1"/>
        <pt x="522" y="454" on="1"/>
        <pt x="434" y="351" on="0"/>
        <pt x="278" y="119" on="0"/>
        <pt x="211" y="0" on="1"/>
      </contour>
    </TTGlyph>
    <TTGlyph name="afii10027" xMin="80" yMin="0" xMax="676" yMax="924">
      <component glyphName="afii10026" x="0" y="0" flags="0x204"/>
      <component glyphName="kratka" x="208" y="156" flags="0x4"/>
    </TTGlyph>
    <TTGlyph name="afii10028" xMin="80" yMin="0" xMax="674" yMax="693">
      <component glyphName="K" x="0" y="0" flags="0x204"/>
    </TTGlyph>
    <TTGlyph name="afii10029" xMin="20" yMin="-14" xMax="709" yMax="693">
      <contour>
        <pt x="383" y="561" on="1"/>
        <pt x="380" y="494" on="0"/>
        <pt x="371" y="359" on="0"/>
        <pt x="348" y="233" on="0"/>
        <pt x="305" y="123" on="0"/>
        <pt x="230" y="39" on="0"/>
        <pt x="118" y="-11" on="0"/>
        <pt x="37" y="-14" on="1"/>
        <pt x="20" y="122" on="1"/>
        <pt x="92" y="130" on="0"/>
        <pt x="170" y="187" on="0"/>
        <pt x="190" y="246" on="1"/>
        <pt x="215" y="319" on="0"/>
        <pt x="236" y="550" on="0"/>
        <pt x="236" y="693" on="1"/>
        <pt x="709" y="693" on="1"/>
        <pt x="709" y="0" on="1"/>
        <pt x="553" y="0" on="1"/>
        <pt x="553" y="561" on="1"/>
      </contour>
    </TTGlyph>
    <TTGlyph name="afii10030" xMin="60" yMin="0" xMax="837" yMax="693">
      <component glyphName="M" x="0" y="0" flags="0x204"/>
    </TTGlyph>
    <TTGlyph name="afii10031" xMin="80" yMin="0" xMax="654" yMax="693">
      <component glyphName="H" x="0" y="0" flags="0x204"/>
    </TTGlyph>
    <TTGlyph name="afii10032" xMin="50" yMin="-14" xMax="740" yMax="709">
      <component glyphName="O" x="0" y="0" flags="0x204"/>
    </TTGlyph>
    <TTGlyph name="afii10033" xMin="80" yMin="0" xMax="650" yMax="693">
      <component glyphName="Pi" x="0" y="0" flags="0x204"/>
    </TTGlyph>
    <TTGlyph name="afii10034" xMin="80" yMin="0" xMax="609" yMax="701">
      <component glyphName="P" x="0" y="0" flags="0x204"/>
    </TTGlyph>
    <TTGlyph name="afii10035" xMin="50" yMin="-14" xMax="628" yMax="709">
      <component glyphName="C" x="0" y="0" flags="0x204"/>
    </TTGlyph>
    <TTGlyph name="afii10036" xMin="20" yMin="0" xMax="594" yMax="693">
      <component glyphName="T" x="0" y="0" flags="0x204"/>
    </TTGlyph>
    <TTGlyph name="afii10037" xMin="20" yMin="-14" xMax="642" yMax="693">
      <contour>
        <pt x="449" y="203" on="1"/>
        <pt x="420" y="137" on="0"/>
        <pt x="356" y="52" on="0"/>
        <pt x="288" y="4" on="0"/>
        <pt x="218" y="-14" on="0"/>
        <pt x="182" y="-14" on="1"/>
        <pt x="148" y="-14" on="0"/>
        <pt x="75" y="-1" on="0"/>
        <pt x="43" y="11" on="1"/>
        <pt x="71" y="136" on="1"/>
        <pt x="120" y="118" on="0"/>
        <pt x="168" y="118" on="1"/>
        <pt x="199" y="118" on="0"/>
        <pt x="256" y="146" on="0"/>
        <pt x="282" y="192" on="1"/>
        <pt x="241" y="256" on="0"/>
        <pt x="166" y="391" on="0"/>
        <pt x="99" y="522" on="0"/>
        <pt x="42" y="643" on="0"/>
        <pt x="20" y="693" on="1"/>
        <pt x="193" y="693" on="1"/>
        <pt x="209" y="654" on="0"/>
        <pt x="248" y="565" on="0"/>
        <pt x="292" y="470" on="0"/>
        <pt x="337" y="375" on="0"/>
        <pt x="358" y="330" on="1"/>
        <pt x="390" y="418" on="0"/>
        <pt x="448" y="602" on="0"/>
        <pt x="475" y="693" on="1"/>
        <pt x="642" y="693" on="1"/>
        <pt x="616" y="616" on="0"/>
        <pt x="566" y="482" on="0"/>
        <pt x="518" y="362" on="0"/>
        <pt x="471" y="254" on="0"/>
      </contour>
    </TTGlyph>
    <TTGlyph name="afii10038" xMin="46" yMin="0" xMax="824" yMax="738">
      <component glyphName="Phi" x="0" y="0" flags="0x204"/>
    </TTGlyph>
    <TTGlyph name="afii10039" xMin="10" yMin="0" xMax="665" yMax="693">
      <component glyphName="X" x="0" y="0" flags="0x204"/>
    </TTGlyph>
    <TTGlyph name="afii10040" xMin="80" yMin="-185" xMax="770" yMax="693">
      <contour>
        <pt x="650" y="132" on="1"/>
        <pt x="770" y="132" on="1"/>
        <pt x="770" y="-185" on="1"/>
        <pt x="620" y="-185" on="1"/>
        <pt x="620" y="0" on="1"/>
        <pt x="80" y="0" on="1"/>
        <pt x="80" y="693" on="1"/>
        <pt x="236" y="693" on="1"/>
        <pt x="236" y="132" on="1"/>
        <pt x="494" y="132" on="1"/>
        <pt x="494" y="693" on="1"/>
        <pt x="650" y="693" on="1"/>
      </contour>
    </TTGlyph>
    <TTGlyph name="afii10041" xMin="40" yMin="0" xMax="600" yMax="693">
      <contour>
        <pt x="196" y="489" on="1"/>
        <pt x="196" y="448" on="0"/>
        <pt x="216" y="397" on="0"/>
        <pt x="253" y="367" on="0"/>
        <pt x="305" y="356" on="0"/>
        <pt x="336" y="356" on="1"/>
        <pt x="360" y="356" on="0"/>
        <pt x="415" y="360" on="0"/>
        <pt x="444" y="364" on="1"/>
        <pt x="444" y="693" on="1"/>
        <pt x="600" y="693" on="1"/>
        <pt x="600" y="0" on="1"/>
        <pt x="444" y="0" on="1"/>
        <pt x="444" y="232" on="1"/>
        <pt x="410" y="228" on="0"/>
        <pt x="346" y="224" on="0"/>
        <pt x="317" y="224" on="1"/>
        <pt x="254" y="224" on="0"/>
        <pt x="151" y="247" on="0"/>
        <pt x="79" y="306" on="0"/>
        <pt x="40" y="405" on="0"/>
        <pt x="40" y="481" on="1"/>
        <pt x="40" y="693" on="1"/>
        <pt x="196" y="693" on="1"/>
      </contour>
    </TTGlyph>
    <TTGlyph name="afii10042" xMin="80" yMin="0" xMax="940" yMax="693">
      <contour>
        <pt x="940" y="0" on="1"/>
        <pt x="80" y="0" on="1"/>
        <pt x="80" y="693" on="1"/>
        <pt x="236" y="693" on="1"/>
        <pt x="236" y="132" on="1"/>
        <pt x="432" y="132" on="1"/>
        <pt x="432" y="693" on="1"/>
        <pt x="588" y="693" on="1"/>
        <pt x="588" y="132" on="1"/>
        <pt x="784" y="132" on="1"/>
        <pt x="784" y="693" on="1"/>
        <pt x="940" y="693" on="1"/>
      </contour>
    </TTGlyph>
    <TTGlyph name="afii10043" xMin="80" yMin="-185" xMax="1060" yMax="693">
      <contour>
        <pt x="80" y="693" on="1"/>
        <pt x="236" y="693" on="1"/>
        <pt x="236" y="132" on="1"/>
        <pt x="432" y="132" on="1"/>
        <pt x="432" y="693" on="1"/>
        <pt x="588" y="693" on="1"/>
        <pt x="588" y="132" on="1"/>
        <pt x="784" y="132" on="1"/>
        <pt x="784" y="693" on="1"/>
        <pt x="940" y="693" on="1"/>
        <pt x="940" y="132" on="1"/>
        <pt x="1060" y="132" on="1"/>
        <pt x="1060" y="-185" on="1"/>
        <pt x="910" y="-185" on="1"/>
        <pt x="910" y="0" on="1"/>
        <pt x="80" y="0" on="1"/>
      </contour>
    </TTGlyph>
    <TTGlyph name="afii10044" xMin="20" yMin="-9" xMax="728" yMax="693">
      <contour>
        <pt x="728" y="227" on="1"/>
        <pt x="728" y="110" on="0"/>
        <pt x="556" y="-9" on="0"/>
        <pt x="401" y="-9" on="1"/>
        <pt x="358" y="-9" on="0"/>
        <pt x="247" y="3" on="0"/>
        <pt x="193" y="16" on="1"/>
        <pt x="193" y="561" on="1"/>
        <pt x="20" y="561" on="1"/>
        <pt x="20" y="693" on="1"/>
        <pt x="349" y="693" on="1"/>
        <pt x="349" y="463" on="1"/>
        <pt x="362" y="464" on="0"/>
        <pt x="383" y="464" on="0"/>
        <pt x="394" y="464" on="1"/>
        <pt x="563" y="464" on="0"/>
        <pt x="728" y="348" on="0"/>
      </contour>
      <contour>
        <pt x="380" y="332" on="1"/>
        <pt x="375" y="332" on="0"/>
        <pt x="357" y="332" on="0"/>
        <pt x="349" y="331" on="1"/>
        <pt x="349" y="124" on="1"/>
        <pt x="360" y="123" on="0"/>
        <pt x="388" y="123" on="0"/>
        <pt x="408" y="123" on="1"/>
        <pt x="439" y="123" on="0"/>
        <pt x="497" y="133" on="0"/>
        <pt x="541" y="157" on="0"/>
        <pt x="567" y="197" on="0"/>
        <pt x="567" y="227" on="1"/>
        <pt x="567" y="258" on="0"/>
        <pt x="541" y="298" on="0"/>
        <pt x="492" y="322" on="0"/>
        <pt x="423" y="332" on="0"/>
      </contour>
    </TTGlyph>
    <TTGlyph name="afii10045" xMin="80" yMin="-9" xMax="847" yMax="693">
      <contour>
        <pt x="604" y="227" on="1"/>
        <pt x="604" y="169" on="0"/>
        <pt x="559" y="81" on="0"/>
        <pt x="476" y="21" on="0"/>
        <pt x="357" y="-9" on="0"/>
        <pt x="284" y="-9" on="1"/>
        <pt x="242" y="-9" on="0"/>
        <pt x="135" y="3" on="0"/>
        <pt x="80" y="16" on="1"/>
        <pt x="80" y="693" on="1"/>
        <pt x="236" y="693" on="1"/>
        <pt x="236" y="463" on="1"/>
        <pt x="247" y="464" on="0"/>
        <pt x="266" y="464" on="0"/>
        <pt x="277" y="464" on="1"/>
        <pt x="440" y="464" on="0"/>
        <pt x="604" y="348" on="0"/>
      </contour>
      <contour>
        <pt x="691" y="693" on="1"/>
        <pt x="847" y="693" on="1"/>
        <pt x="847" y="0" on="1"/>
        <pt x="691" y="0" on="1"/>
      </contour>
      <contour>
        <pt x="267" y="332" on="1"/>
        <pt x="262" y="332" on="0"/>
        <pt x="244" y="332" on="0"/>
        <pt x="236" y="331" on="1"/>
        <pt x="236" y="124" on="1"/>
        <pt x="247" y="123" on="0"/>
        <pt x="275" y="123" on="0"/>
        <pt x="295" y="123" on="1"/>
        <pt x="326" y="123" on="0"/>
        <pt x="380" y="133" on="0"/>
        <pt x="421" y="157" on="0"/>
        <pt x="444" y="197" on="0"/>
        <pt x="444" y="227" on="1"/>
        <pt x="444" y="288" on="0"/>
        <pt x="353" y="332" on="0"/>
      </contour>
    </TTGlyph>
    <TTGlyph name="afii10046" xMin="80" yMin="-9" xMax="614" yMax="693">
      <contour>
        <pt x="614" y="227" on="1"/>
        <pt x="614" y="111" on="0"/>
        <pt x="442" y="-9" on="0"/>
        <pt x="288" y="-9" on="1"/>
        <pt x="245" y="-9" on="0"/>
        <pt x="134" y="3" on="0"/>
        <pt x="80" y="16" on="1"/>
        <pt x="80" y="693" on="1"/>
        <pt x="236" y="693" on="1"/>
        <pt x="236" y="463" on="1"/>
        <pt x="249" y="464" on="0"/>
        <pt x="270" y="464" on="0"/>
        <pt x="281" y="464" on="1"/>
        <pt x="450" y="464" on="0"/>
        <pt x="614" y="348" on="0"/>
      </contour>
      <contour>
        <pt x="267" y="332" on="1"/>
        <pt x="262" y="332" on="0"/>
        <pt x="244" y="332" on="0"/>
        <pt x="236" y="331" on="1"/>
        <pt x="236" y="124" on="1"/>
        <pt x="247" y="123" on="0"/>
        <pt x="275" y="123" on="0"/>
        <pt x="295" y="123" on="1"/>
        <pt x="326" y="123" on="0"/>
        <pt x="384" y="133" on="0"/>
        <pt x="428" y="157" on="0"/>
        <pt x="454" y="197" on="0"/>
        <pt x="454" y="227" on="1"/>
        <pt x="454" y="258" on="0"/>
        <pt x="428" y="298" on="0"/>
        <pt x="379" y="322" on="0"/>
        <pt x="310" y="332" on="0"/>
      </contour>
    </TTGlyph>
    <TTGlyph name="afii10047" xMin="40" yMin="-14" xMax="631" yMax="710">
      <contour>
        <pt x="631" y="347" on="1"/>
        <pt x="631" y="251" on="0"/>
        <pt x="576" y="115" on="0"/>
        <pt x="481" y="27" on="0"/>
        <pt x="353" y="-14" on="0"/>
        <pt x="281" y="-14" on="1"/>
        <pt x="212" y="-14" on="0"/>
        <pt x="97" y="16" on="0"/>
        <pt x="40" y="45" on="1"/>
        <pt x="90" y="170" on="1"/>
        <pt x="104" y="164" on="0"/>
        <pt x="142" y="147" on="0"/>
        <pt x="189" y="132" on="0"/>
        <pt x="246" y="122" on="0"/>
        <pt x="278" y="122" on="1"/>
        <pt x="358" y="122" on="0"/>
        <pt x="454" y="205" on="0"/>
        <pt x="466" y="286" on="1"/>
        <pt x="176" y="286" on="1"/>
        <pt x="176" y="418" on="1"/>
        <pt x="463" y="418" on="1"/>
        <pt x="451" y="498" on="0"/>
        <pt x="358" y="574" on="0"/>
        <pt x="278" y="574" on="1"/>
        <pt x="219" y="574" on="0"/>
        <pt x="121" y="545" on="0"/>
        <pt x="93" y="531" on="1"/>
        <pt x="47" y="653" on="1"/>
        <pt x="104" y="683" on="0"/>
        <pt x="225" y="710" on="0"/>
        <pt x="284" y="710" on="1"/>
        <pt x="357" y="710" on="0"/>
        <pt x="483" y="666" on="0"/>
        <pt x="577" y="577" on="0"/>
        <pt x="631" y="440" on="0"/>
      </contour>
    </TTGlyph>
    <TTGlyph name="afii10048" xMin="80" yMin="-14" xMax="1031" yMax="710">
      <contour>
        <pt x="696" y="710" on="1"/>
        <pt x="764" y="710" on="0"/>
        <pt x="886" y="663" on="0"/>
        <pt x="977" y="572" on="0"/>
        <pt x="1031" y="436" on="0"/>
        <pt x="1031" y="347" on="1"/>
        <pt x="1031" y="258" on="0"/>
        <pt x="978" y="123" on="0"/>
        <pt x="886" y="32" on="0"/>
        <pt x="765" y="-14" on="0"/>
        <pt x="696" y="-14" on="1"/>
        <pt x="633" y="-14" on="0"/>
        <pt x="519" y="25" on="0"/>
        <pt x="429" y="103" on="0"/>
        <pt x="371" y="219" on="0"/>
        <pt x="363" y="295" on="1"/>
        <pt x="236" y="295" on="1"/>
        <pt x="236" y="0" on="1"/>
        <pt x="80" y="0" on="1"/>
        <pt x="80" y="693" on="1"/>
        <pt x="236" y="693" on="1"/>
        <pt x="236" y="427" on="1"/>
        <pt x="366" y="427" on="1"/>
        <pt x="378" y="496" on="0"/>
        <pt x="439" y="602" on="0"/>
        <pt x="527" y="674" on="0"/>
        <pt x="636" y="710" on="0"/>
      </contour>
      <contour>
        <pt x="696" y="122" on="1"/>
        <pt x="779" y="122" on="0"/>
        <pt x="870" y="242" on="0"/>
        <pt x="870" y="347" on="1"/>
        <pt x="870" y="452" on="0"/>
        <pt x="779" y="574" on="0"/>
        <pt x="696" y="574" on="1"/>
        <pt x="613" y="574" on="0"/>
        <pt x="520" y="452" on="0"/>
        <pt x="520" y="347" on="1"/>
        <pt x="520" y="242" on="0"/>
        <pt x="613" y="122" on="0"/>
      </contour>
    </TTGlyph>
    <TTGlyph name="afii10049" xMin="40" yMin="0" xMax="609" yMax="700">
      <contour>
        <pt x="392" y="566" on="1"/>
        <pt x="362" y="566" on="0"/>
        <pt x="307" y="557" on="0"/>
        <pt x="265" y="536" on="0"/>
        <pt x="239" y="499" on="0"/>
        <pt x="239" y="471" on="1"/>
        <pt x="239" y="418" on="0"/>
        <pt x="314" y="378" on="0"/>
        <pt x="388" y="378" on="1"/>
        <pt x="453" y="378" on="1"/>
        <pt x="453" y="565" on="1"/>
        <pt x="441" y="566" on="0"/>
        <pt x="413" y="566" on="0"/>
      </contour>
      <contour>
        <pt x="399" y="700" on="1"/>
        <pt x="441" y="700" on="0"/>
        <pt x="554" y="690" on="0"/>
        <pt x="609" y="678" on="1"/>
        <pt x="609" y="0" on="1"/>
        <pt x="453" y="0" on="1"/>
        <pt x="453" y="249" on="1"/>
        <pt x="405" y="249" on="1"/>
        <pt x="392" y="249" on="0"/>
        <pt x="368" y="249" on="0"/>
        <pt x="351" y="251" on="1"/>
        <pt x="318" y="206" on="0"/>
        <pt x="239" y="71" on="0"/>
        <pt x="205" y="0" on="1"/>
        <pt x="40" y="0" on="1"/>
        <pt x="58" y="41" on="0"/>
        <pt x="99" y="121" on="0"/>
        <pt x="141" y="193" on="0"/>
        <pt x="181" y="254" on="0"/>
        <pt x="198" y="277" on="1"/>
        <pt x="176" y="287" on="0"/>
        <pt x="133" y="320" on="0"/>
        <pt x="99" y="366" on="0"/>
        <pt x="78" y="429" on="0"/>
        <pt x="78" y="470" on="1"/>
        <pt x="78" y="527" on="0"/>
        <pt x="123" y="613" on="0"/>
        <pt x="206" y="671" on="0"/>
        <pt x="325" y="700" on="0"/>
      </contour>
    </TTGlyph>
    <TTGlyph name="afii10050" xMin="80" yMin="0" xMax="553" yMax="825">
      <contour>
        <pt x="236" y="0" on="1"/>
        <pt x="80" y="0" on="1"/>
        <pt x="80" y="693" on="1"/>
        <pt x="403" y="693" on="1"/>
        <pt x="403" y="825" on="1"/>
        <pt x="553" y="825" on="1"/>
        <pt x="553" y="561" on="1"/>
        <pt x="236" y="561" on="1"/>
      </contour>
    </TTGlyph>
    <TTGlyph name="afii10051" xMin="20" yMin="-7" xMax="769" yMax="693">
      <contour>
        <pt x="594" y="693" on="1"/>
        <pt x="594" y="560" on="1"/>
        <pt x="365" y="560" on="1"/>
        <pt x="365" y="429" on="1"/>
        <pt x="375" y="430" on="0"/>
        <pt x="404" y="433" on="0"/>
        <pt x="433" y="435" on="0"/>
        <pt x="461" y="437" on="0"/>
        <pt x="471" y="437" on="1"/>
        <pt x="552" y="437" on="0"/>
        <pt x="665" y="406" on="0"/>
        <pt x="737" y="346" on="0"/>
        <pt x="769" y="261" on="0"/>
        <pt x="769" y="207" on="1"/>
        <pt x="769" y="151" on="0"/>
        <pt x="732" y="70" on="0"/>
        <pt x="668" y="18" on="0"/>
        <pt x="583" y="-7" on="0"/>
        <pt x="534" y="-7" on="1"/>
        <pt x="518" y="-7" on="0"/>
        <pt x="476" y="-4" on="0"/>
        <pt x="459" y="-1" on="1"/>
        <pt x="464" y="115" on="1"/>
        <pt x="483" y="112" on="0"/>
        <pt x="510" y="112" on="1"/>
        <pt x="561" y="112" on="0"/>
        <pt x="621" y="150" on="0"/>
        <pt x="621" y="205" on="1"/>
        <pt x="621" y="259" on="0"/>
        <pt x="547" y="307" on="0"/>
        <pt x="462" y="307" on="1"/>
        <pt x="452" y="307" on="0"/>
        <pt x="426" y="306" on="0"/>
        <pt x="399" y="304" on="0"/>
        <pt x="374" y="302" on="0"/>
        <pt x="365" y="301" on="1"/>
        <pt x="365" y="0" on="1"/>
        <pt x="209" y="0" on="1"/>
        <pt x="209" y="560" on="1"/>
        <pt x="20" y="560" on="1"/>
        <pt x="20" y="693" on="1"/>
      </contour>
    </TTGlyph>
    <TTGlyph name="afii10052" xMin="80" yMin="0" xMax="553" yMax="959">
      <component glyphName="afii10020" x="0" y="0" flags="0x204"/>
      <component glyphName="acute" x="188" y="160" flags="0x4"/>
    </TTGlyph>
    <TTGlyph name="afii10053" xMin="50" yMin="-14" xMax="641" yMax="710">
      <contour>
        <pt x="50" y="347" on="1"/>
        <pt x="50" y="440" on="0"/>
        <pt x="104" y="577" on="0"/>
        <pt x="198" y="666" on="0"/>
        <pt x="324" y="710" on="0"/>
        <pt x="397" y="710" on="1"/>
        <pt x="457" y="710" on="0"/>
        <pt x="577" y="683" on="0"/>
        <pt x="634" y="653" on="1"/>
        <pt x="588" y="531" on="1"/>
        <pt x="560" y="545" on="0"/>
        <pt x="463" y="574" on="0"/>
        <pt x="403" y="574" on="1"/>
        <pt x="322" y="574" on="0"/>
        <pt x="230" y="499" on="0"/>
        <pt x="218" y="418" on="1"/>
        <pt x="505" y="418" on="1"/>
        <pt x="505" y="286" on="1"/>
        <pt x="215" y="286" on="1"/>
        <pt x="227" y="205" on="0"/>
        <pt x="322" y="122" on="0"/>
        <pt x="403" y="122" on="1"/>
        <pt x="436" y="122" on="0"/>
        <pt x="492" y="132" on="0"/>
        <pt x="539" y="147" on="0"/>
        <pt x="577" y="164" on="0"/>
        <pt x="591" y="170" on="1"/>
        <pt x="641" y="45" on="1"/>
        <pt x="584" y="16" on="0"/>
        <pt x="469" y="-14" on="0"/>
        <pt x="400" y="-14" on="1"/>
        <pt x="328" y="-14" on="0"/>
        <pt x="200" y="27" on="0"/>
        <pt x="105" y="115" on="0"/>
        <pt x="50" y="251" on="0"/>
      </contour>
    </TTGlyph>
    <TTGlyph name="afii10054" xMin="37" yMin="-14" xMax="542" yMax="709">
      <component glyphName="S" x="0" y="0" flags="0x204"/>
    </TTGlyph>
    <TTGlyph name="afii10055" xMin="80" yMin="0" xMax="236" yMax="693">
      <component glyphName="I" x="0" y="0" flags="0x204"/>
    </TTGlyph>
    <TTGlyph name="afii10056" xMin="-28" yMin="0" xMax="349" yMax="914">
      <component glyphName="I" x="0" y="0" flags="0x204"/>
      <component glyphName="dieresis" x="-107" y="160" flags="0x4"/>
    </TTGlyph>
    <TTGlyph name="afii10057" xMin="10" yMin="-14" xMax="459" yMax="693">
      <component glyphName="J" x="0" y="0" flags="0x204"/>
    </TTGlyph>
    <TTGlyph name="afii10058" xMin="20" yMin="-14" xMax="1085" yMax="693">
      <contour>
        <pt x="709" y="693" on="1"/>
        <pt x="709" y="447" on="1"/>
        <pt x="760" y="447" on="1"/>
        <pt x="837" y="447" on="0"/>
        <pt x="958" y="423" on="0"/>
        <pt x="1041" y="369" on="0"/>
        <pt x="1085" y="283" on="0"/>
        <pt x="1085" y="221" on="1"/>
        <pt x="1085" y="106" on="0"/>
        <pt x="918" y="-7" on="0"/>
        <pt x="763" y="-7" on="1"/>
        <pt x="722" y="-7" on="0"/>
        <pt x="607" y="3" on="0"/>
        <pt x="553" y="16" on="1"/>
        <pt x="553" y="561" on="1"/>
        <pt x="383" y="561" on="1"/>
        <pt x="380" y="494" on="0"/>
        <pt x="371" y="359" on="0"/>
        <pt x="348" y="233" on="0"/>
        <pt x="305" y="122" on="0"/>
        <pt x="230" y="39" on="0"/>
        <pt x="118" y="-11" on="0"/>
        <pt x="37" y="-14" on="1"/>
        <pt x="20" y="122" on="1"/>
        <pt x="92" y="130" on="0"/>
        <pt x="170" y="187" on="0"/>
        <pt x="190" y="246" on="1"/>
        <pt x="215" y="319" on="0"/>
        <pt x="236" y="551" on="0"/>
        <pt x="236" y="693" on="1"/>
      </contour>
      <contour>
        <pt x="771" y="126" on="1"/>
        <pt x="802" y="126" on="0"/>
        <pt x="858" y="134" on="0"/>
        <pt x="901" y="155" on="0"/>
        <pt x="927" y="191" on="0"/>
        <pt x="927" y="220" on="1"/>
        <pt x="927" y="250" on="0"/>
        <pt x="903" y="288" on="0"/>
        <pt x="859" y="310" on="0"/>
        <pt x="795" y="318" on="0"/>
        <pt x="755" y="318" on="1"/>
        <pt x="709" y="318" on="1"/>
        <pt x="709" y="128" on="1"/>
        <pt x="720" y="127" on="0"/>
        <pt x="751" y="126" on="0"/>
      </contour>
    </TTGlyph>
    <TTGlyph name="afii10059" xMin="80" yMin="-7" xMax="1030" yMax="693">
      <contour>
        <pt x="498" y="693" on="1"/>
        <pt x="654" y="693" on="1"/>
        <pt x="654" y="447" on="1"/>
        <pt x="705" y="447" on="1"/>
        <pt x="782" y="447" on="0"/>
        <pt x="903" y="423" on="0"/>
        <pt x="986" y="369" on="0"/>
        <pt x="1030" y="283" on="0"/>
        <pt x="1030" y="221" on="1"/>
        <pt x="1030" y="106" on="0"/>
        <pt x="863" y="-7" on="0"/>
        <pt x="708" y="-7" on="1"/>
        <pt x="667" y="-7" on="0"/>
        <pt x="552" y="3" on="0"/>
        <pt x="498" y="16" on="1"/>
        <pt x="498" y="294" on="1"/>
        <pt x="236" y="294" on="1"/>
        <pt x="236" y="0" on="1"/>
        <pt x="80" y="0" on="1"/>
        <pt x="80" y="693" on="1"/>
        <pt x="236" y="693" on="1"/>
        <pt x="236" y="428" on="1"/>
        <pt x="498" y="428" on="1"/>
      </contour>
      <contour>
        <pt x="716" y="126" on="1"/>
        <pt x="747" y="126" on="0"/>
        <pt x="803" y="134" on="0"/>
        <pt x="846" y="155" on="0"/>
        <pt x="872" y="191" on="0"/>
        <pt x="872" y="220" on="1"/>
        <pt x="872" y="250" on="0"/>
        <pt x="848" y="288" on="0"/>
        <pt x="804" y="310" on="0"/>
        <pt x="740" y="318" on="0"/>
        <pt x="700" y="318" on="1"/>
        <pt x="654" y="318" on="1"/>
        <pt x="654" y="128" on="1"/>
        <pt x="665" y="127" on="0"/>
        <pt x="696" y="126" on="0"/>
      </contour>
    </TTGlyph>
    <TTGlyph name="afii10060" xMin="20" yMin="0" xMax="731" yMax="693">
      <contour>
        <pt x="594" y="693" on="1"/>
        <pt x="594" y="560" on="1"/>
        <pt x="365" y="560" on="1"/>
        <pt x="365" y="429" on="1"/>
        <pt x="388" y="432" on="0"/>
        <pt x="438" y="437" on="0"/>
        <pt x="459" y="437" on="1"/>
        <pt x="537" y="437" on="0"/>
        <pt x="642" y="403" on="0"/>
        <pt x="705" y="341" on="0"/>
        <pt x="731" y="253" on="0"/>
        <pt x="731" y="199" on="1"/>
        <pt x="731" y="0" on="1"/>
        <pt x="575" y="0" on="1"/>
        <pt x="575" y="199" on="1"/>
        <pt x="575" y="253" on="0"/>
        <pt x="519" y="305" on="0"/>
        <pt x="450" y="305" on="1"/>
        <pt x="429" y="305" on="0"/>
        <pt x="383" y="301" on="0"/>
        <pt x="365" y="299" on="1"/>
        <pt x="365" y="0" on="1"/>
        <pt x="209" y="0" on="1"/>
        <pt x="209" y="560" on="1"/>
        <pt x="20" y="560" on="1"/>
        <pt x="20" y="693" on="1"/>
      </contour>
    </TTGlyph>
    <TTGlyph name="afii10061" xMin="80" yMin="0" xMax="674" yMax="959">
      <component glyphName="K" x="0" y="0" flags="0x204"/>
      <component glyphName="acute" x="271" y="160" flags="0x4"/>
    </TTGlyph>
    <TTGlyph name="afii10062" xMin="20" yMin="-14" xMax="642" yMax="921">
      <component glyphName="afii10037" x="0" y="0" flags="0x204"/>
      <component glyphName="kratka" x="167" y="153" flags="0x4"/>
    </TTGlyph>
    <TTGlyph name="afii10065" xMin="35" yMin="-11" xMax="488" yMax="540">
      <component glyphName="a" x="0" y="0" flags="0x204"/>
    </TTGlyph>
    <TTGlyph name="afii10066" xMin="45" yMin="-14" xMax="556" yMax="776">
      <contour>
        <pt x="529" y="649" on="1"/>
        <pt x="492" y="641" on="0"/>
        <pt x="426" y="635" on="0"/>
        <pt x="391" y="629" on="1"/>
        <pt x="361" y="624" on="0"/>
        <pt x="301" y="604" on="0"/>
        <pt x="250" y="569" on="0"/>
        <pt x="212" y="516" on="0"/>
        <pt x="204" y="477" on="1"/>
        <pt x="269" y="508" on="0"/>
        <pt x="330" y="508" on="1"/>
        <pt x="378" y="508" on="0"/>
        <pt x="460" y="476" on="0"/>
        <pt x="521" y="412" on="0"/>
        <pt x="556" y="317" on="0"/>
        <pt x="556" y="254" on="1"/>
        <pt x="556" y="186" on="0"/>
        <pt x="516" y="86" on="0"/>
        <pt x="447" y="19" on="0"/>
        <pt x="356" y="-14" on="0"/>
        <pt x="304" y="-14" on="1"/>
        <pt x="165" y="-14" on="0"/>
        <pt x="45" y="155" on="0"/>
        <pt x="45" y="319" on="1"/>
        <pt x="45" y="427" on="0"/>
        <pt x="87" y="578" on="0"/>
        <pt x="171" y="679" on="0"/>
        <pt x="295" y="737" on="0"/>
        <pt x="377" y="754" on="1"/>
        <pt x="410" y="761" on="0"/>
        <pt x="477" y="768" on="0"/>
        <pt x="512" y="776" on="1"/>
      </contour>
      <contour>
        <pt x="201" y="355" on="1"/>
        <pt x="199" y="341" on="0"/>
        <pt x="198" y="305" on="0"/>
        <pt x="198" y="291" on="1"/>
        <pt x="198" y="203" on="0"/>
        <pt x="247" y="113" on="0"/>
        <pt x="305" y="113" on="1"/>
        <pt x="354" y="113" on="0"/>
        <pt x="406" y="189" on="0"/>
        <pt x="406" y="253" on="1"/>
        <pt x="406" y="278" on="0"/>
        <pt x="394" y="325" on="0"/>
        <pt x="368" y="361" on="0"/>
        <pt x="330" y="383" on="0"/>
        <pt x="304" y="383" on="1"/>
        <pt x="278" y="383" on="0"/>
        <pt x="221" y="371" on="0"/>
      </contour>
    </TTGlyph>
    <TTGlyph name="afii10066.locl" xMin="45" yMin="-14" xMax="562" yMax="775">
      <contour>
        <pt x="45" y="244" on="1"/>
        <pt x="45" y="322" on="0"/>
        <pt x="126" y="445" on="0"/>
        <pt x="196" y="481" on="1"/>
        <pt x="164" y="507" on="0"/>
        <pt x="125" y="572" on="0"/>
        <pt x="125" y="617" on="1"/>
        <pt x="125" y="650" on="0"/>
        <pt x="148" y="706" on="0"/>
        <pt x="194" y="747" on="0"/>
        <pt x="266" y="771" on="0"/>
        <pt x="314" y="771" on="1"/>
        <pt x="330" y="771" on="0"/>
        <pt x="373" y="771" on="0"/>
        <pt x="421" y="772" on="0"/>
        <pt x="470" y="774" on="0"/>
        <pt x="491" y="775" on="1"/>
        <pt x="505" y="659" on="1"/>
        <pt x="445" y="655" on="0"/>
        <pt x="350" y="654" on="0"/>
        <pt x="333" y="654" on="1"/>
        <pt x="309" y="654" on="0"/>
        <pt x="274" y="641" on="0"/>
        <pt x="274" y="615" on="1"/>
        <pt x="274" y="598" on="0"/>
        <pt x="302" y="569" on="0"/>
        <pt x="345" y="539" on="0"/>
        <pt x="395" y="509" on="0"/>
        <pt x="418" y="493" on="1"/>
        <pt x="450" y="470" on="0"/>
        <pt x="503" y="422" on="0"/>
        <pt x="541" y="365" on="0"/>
        <pt x="562" y="296" on="0"/>
        <pt x="562" y="253" on="1"/>
        <pt x="562" y="191" on="0"/>
        <pt x="526" y="92" on="0"/>
        <pt x="458" y="23" on="0"/>
        <pt x="363" y="-14" on="0"/>
        <pt x="304" y="-14" on="1"/>
        <pt x="246" y="-14" on="0"/>
        <pt x="151" y="21" on="0"/>
        <pt x="83" y="87" on="0"/>
        <pt x="45" y="183" on="0"/>
      </contour>
      <contour>
        <pt x="410" y="255" on="1"/>
        <pt x="410" y="352" on="0"/>
        <pt x="298" y="417" on="1"/>
        <pt x="247" y="396" on="0"/>
        <pt x="197" y="308" on="0"/>
        <pt x="197" y="255" on="1"/>
        <pt x="197" y="186" on="0"/>
        <pt x="253" y="114" on="0"/>
        <pt x="304" y="114" on="1"/>
        <pt x="355" y="114" on="0"/>
        <pt x="410" y="186" on="0"/>
      </contour>
    </TTGlyph>
    <TTGlyph name="afii10067" xMin="70" yMin="-10" xMax="553" yMax="538">
      <contour>
        <pt x="219" y="110" on="1"/>
        <pt x="233" y="108" on="0"/>
        <pt x="280" y="105" on="0"/>
        <pt x="300" y="105" on="1"/>
        <pt x="350" y="105" on="0"/>
        <pt x="406" y="130" on="0"/>
        <pt x="406" y="163" on="1"/>
        <pt x="406" y="195" on="0"/>
        <pt x="355" y="220" on="0"/>
        <pt x="306" y="220" on="1"/>
        <pt x="219" y="220" on="1"/>
      </contour>
      <contour>
        <pt x="303" y="320" on="1"/>
        <pt x="340" y="320" on="0"/>
        <pt x="386" y="339" on="0"/>
        <pt x="386" y="371" on="1"/>
        <pt x="386" y="401" on="0"/>
        <pt x="334" y="423" on="0"/>
        <pt x="292" y="423" on="1"/>
        <pt x="278" y="423" on="0"/>
        <pt x="233" y="420" on="0"/>
        <pt x="219" y="418" on="1"/>
        <pt x="219" y="320" on="1"/>
      </contour>
      <contour>
        <pt x="298" y="-10" on="1"/>
        <pt x="270" y="-10" on="0"/>
        <pt x="206" y="-6" on="0"/>
        <pt x="144" y="1" on="0"/>
        <pt x="89" y="10" on="0"/>
        <pt x="70" y="14" on="1"/>
        <pt x="70" y="518" on="1"/>
        <pt x="89" y="522" on="0"/>
        <pt x="144" y="529" on="0"/>
        <pt x="206" y="535" on="0"/>
        <pt x="270" y="538" on="0"/>
        <pt x="298" y="538" on="1"/>
        <pt x="363" y="538" on="0"/>
        <pt x="452" y="512" on="0"/>
        <pt x="507" y="470" on="0"/>
        <pt x="531" y="418" on="0"/>
        <pt x="531" y="392" on="1"/>
        <pt x="531" y="357" on="0"/>
        <pt x="497" y="299" on="0"/>
        <pt x="471" y="286" on="1"/>
        <pt x="485" y="280" on="0"/>
        <pt x="514" y="258" on="0"/>
        <pt x="538" y="227" on="0"/>
        <pt x="553" y="184" on="0"/>
        <pt x="553" y="156" on="1"/>
        <pt x="553" y="124" on="0"/>
        <pt x="528" y="64" on="0"/>
        <pt x="468" y="18" on="0"/>
        <pt x="370" y="-10" on="0"/>
      </contour>
    </TTGlyph>
    <TTGlyph name="afii10068" xMin="70" yMin="0" xMax="443" yMax="526">
      <contour>
        <pt x="443" y="404" on="1"/>
        <pt x="219" y="404" on="1"/>
        <pt x="219" y="0" on="1"/>
        <pt x="70" y="0" on="1"/>
        <pt x="70" y="526" on="1"/>
        <pt x="443" y="526" on="1"/>
      </contour>
    </TTGlyph>
    <TTGlyph name="afii10069" xMin="20" yMin="-150" xMax="658" yMax="526">
      <contour>
        <pt x="20" y="122" on="1"/>
        <pt x="85" y="122" on="1"/>
        <pt x="113" y="156" on="0"/>
        <pt x="144" y="257" on="0"/>
        <pt x="157" y="370" on="0"/>
        <pt x="159" y="482" on="0"/>
        <pt x="159" y="526" on="1"/>
        <pt x="569" y="526" on="1"/>
        <pt x="569" y="122" on="1"/>
        <pt x="658" y="122" on="1"/>
        <pt x="658" y="-150" on="1"/>
        <pt x="531" y="-150" on="1"/>
        <pt x="531" y="0" on="1"/>
        <pt x="147" y="0" on="1"/>
        <pt x="147" y="-150" on="1"/>
        <pt x="20" y="-150" on="1"/>
      </contour>
      <contour>
        <pt x="420" y="122" on="1"/>
        <pt x="420" y="404" on="1"/>
        <pt x="298" y="404" on="1"/>
        <pt x="296" y="369" on="0"/>
        <pt x="291" y="294" on="0"/>
        <pt x="278" y="221" on="0"/>
        <pt x="256" y="151" on="0"/>
        <pt x="238" y="122" on="1"/>
      </contour>
    </TTGlyph>
    <TTGlyph name="afii10070" xMin="45" yMin="-14" xMax="539" yMax="540">
      <component glyphName="e" x="0" y="0" flags="0x204"/>
    </TTGlyph>
    <TTGlyph name="afii10071" xMin="45" yMin="-14" xMax="539" yMax="754">
      <component glyphName="e" x="0" y="0" flags="0x204"/>
      <component glyphName="dieresis" x="30" y="0" flags="0x4"/>
    </TTGlyph>
    <TTGlyph name="afii10072" xMin="10" yMin="0" xMax="839" yMax="526">
      <contour>
        <pt x="10" y="0" on="1"/>
        <pt x="60" y="81" on="0"/>
        <pt x="166" y="217" on="0"/>
        <pt x="226" y="281" on="1"/>
        <pt x="163" y="346" on="0"/>
        <pt x="60" y="471" on="0"/>
        <pt x="20" y="526" on="1"/>
        <pt x="194" y="526" on="1"/>
        <pt x="220" y="489" on="0"/>
        <pt x="293" y="392" on="0"/>
        <pt x="352" y="318" on="1"/>
        <pt x="352" y="526" on="1"/>
        <pt x="497" y="526" on="1"/>
        <pt x="497" y="318" on="1"/>
        <pt x="558" y="391" on="0"/>
        <pt x="630" y="490" on="0"/>
        <pt x="656" y="526" on="1"/>
        <pt x="828" y="526" on="1"/>
        <pt x="791" y="469" on="0"/>
        <pt x="691" y="348" on="0"/>
        <pt x="624" y="282" on="1"/>
        <pt x="660" y="244" on="0"/>
        <pt x="717" y="177" on="0"/>
        <pt x="768" y="111" on="0"/>
        <pt x="814" y="40" on="0"/>
        <pt x="839" y="0" on="1"/>
        <pt x="673" y="0" on="1"/>
        <pt x="598" y="113" on="0"/>
        <pt x="497" y="238" on="1"/>
        <pt x="497" y="0" on="1"/>
        <pt x="352" y="0" on="1"/>
        <pt x="352" y="238" on="1"/>
        <pt x="301" y="170" on="0"/>
        <pt x="209" y="50" on="0"/>
        <pt x="176" y="0" on="1"/>
      </contour>
    </TTGlyph>
    <TTGlyph name="afii10073" xMin="30" yMin="-14" xMax="460" yMax="538">
      <contour>
        <pt x="45" y="509" on="1"/>
        <pt x="80" y="522" on="0"/>
        <pt x="172" y="538" on="0"/>
        <pt x="226" y="538" on="1"/>
        <pt x="267" y="538" on="0"/>
        <pt x="345" y="523" on="0"/>
        <pt x="406" y="488" on="0"/>
        <pt x="443" y="431" on="0"/>
        <pt x="443" y="388" on="1"/>
        <pt x="443" y="349" on="0"/>
        <pt x="407" y="294" on="0"/>
        <pt x="374" y="276" on="1"/>
        <pt x="418" y="257" on="0"/>
        <pt x="460" y="195" on="0"/>
        <pt x="460" y="147" on="1"/>
        <pt x="460" y="102" on="0"/>
        <pt x="422" y="41" on="0"/>
        <pt x="358" y="3" on="0"/>
        <pt x="276" y="-14" on="0"/>
        <pt x="232" y="-14" on="1"/>
        <pt x="206" y="-14" on="0"/>
        <pt x="150" y="-9" on="0"/>
        <pt x="97" y="0" on="0"/>
        <pt x="49" y="14" on="0"/>
        <pt x="30" y="22" on="1"/>
        <pt x="57" y="138" on="1"/>
        <pt x="78" y="130" on="0"/>
        <pt x="165" y="108" on="0"/>
        <pt x="220" y="108" on="1"/>
        <pt x="310" y="108" on="0"/>
        <pt x="310" y="158" on="1"/>
        <pt x="310" y="175" on="0"/>
        <pt x="296" y="196" on="0"/>
        <pt x="273" y="208" on="0"/>
        <pt x="243" y="212" on="0"/>
        <pt x="228" y="212" on="1"/>
        <pt x="111" y="212" on="1"/>
        <pt x="111" y="318" on="1"/>
        <pt x="229" y="318" on="1"/>
        <pt x="265" y="318" on="0"/>
        <pt x="294" y="347" on="0"/>
        <pt x="294" y="366" on="1"/>
        <pt x="294" y="385" on="0"/>
        <pt x="261" y="416" on="0"/>
        <pt x="217" y="416" on="1"/>
        <pt x="173" y="416" on="0"/>
        <pt x="95" y="400" on="0"/>
        <pt x="71" y="393" on="1"/>
      </contour>
    </TTGlyph>
    <TTGlyph name="afii10074" xMin="70" yMin="0" xMax="549" yMax="526">
      <contour>
        <pt x="549" y="526" on="1"/>
        <pt x="549" y="0" on="1"/>
        <pt x="399" y="0" on="1"/>
        <pt x="399" y="50" on="0"/>
        <pt x="401" y="149" on="0"/>
        <pt x="403" y="233" on="0"/>
        <pt x="406" y="296" on="0"/>
        <pt x="406" y="311" on="1"/>
        <pt x="377" y="270" on="0"/>
        <pt x="319" y="186" on="0"/>
        <pt x="266" y="105" on="0"/>
        <pt x="219" y="31" on="0"/>
        <pt x="201" y="0" on="1"/>
        <pt x="70" y="0" on="1"/>
        <pt x="70" y="526" on="1"/>
        <pt x="219" y="526" on="1"/>
        <pt x="219" y="476" on="0"/>
        <pt x="218" y="385" on="0"/>
        <pt x="216" y="311" on="0"/>
        <pt x="214" y="256" on="0"/>
        <pt x="214" y="241" on="1"/>
        <pt x="274" y="329" on="0"/>
        <pt x="375" y="469" on="0"/>
        <pt x="423" y="526" on="1"/>
      </contour>
    </TTGlyph>
    <TTGlyph name="afii10075" xMin="70" yMin="0" xMax="549" yMax="768">
      <component glyphName="afii10074" x="0" y="0" flags="0x204"/>
      <component glyphName="kratka" x="130" y="0" flags="0x4"/>
    </TTGlyph>
    <TTGlyph name="afii10076" xMin="70" yMin="0" xMax="576" yMax="526">
      <contour>
        <pt x="219" y="342" on="1"/>
        <pt x="241" y="363" on="0"/>
        <pt x="290" y="413" on="0"/>
        <pt x="336" y="462" on="0"/>
        <pt x="378" y="508" on="0"/>
        <pt x="394" y="526" on="1"/>
        <pt x="575" y="526" on="1"/>
        <pt x="555" y="505" on="0"/>
        <pt x="496" y="443" on="0"/>
        <pt x="430" y="376" on="0"/>
        <pt x="363" y="310" on="0"/>
        <pt x="333" y="284" on="1"/>
        <pt x="363" y="261" on="0"/>
        <pt x="431" y="193" on="0"/>
        <pt x="496" y="115" on="0"/>
        <pt x="555" y="35" on="0"/>
        <pt x="576" y="0" on="1"/>
        <pt x="406" y="0" on="1"/>
        <pt x="388" y="27" on="0"/>
        <pt x="342" y="86" on="0"/>
        <pt x="292" y="143" on="0"/>
        <pt x="241" y="193" on="0"/>
        <pt x="219" y="211" on="1"/>
        <pt x="219" y="0" on="1"/>
        <pt x="70" y="0" on="1"/>
        <pt x="70" y="526" on="1"/>
        <pt x="219" y="526" on="1"/>
      </contour>
    </TTGlyph>
    <TTGlyph name="afii10077" xMin="10" yMin="-9" xMax="557" yMax="526">
      <contour>
        <pt x="306" y="404" on="1"/>
        <pt x="305" y="375" on="0"/>
        <pt x="302" y="310" on="0"/>
        <pt x="294" y="245" on="0"/>
        <pt x="281" y="183" on="0"/>
        <pt x="271" y="156" on="1"/>
        <pt x="259" y="124" on="0"/>
        <pt x="222" y="69" on="0"/>
        <pt x="165" y="25" on="0"/>
        <pt x="84" y="-4" on="0"/>
        <pt x="30" y="-9" on="1"/>
        <pt x="10" y="115" on="1"/>
        <pt x="61" y="125" on="0"/>
        <pt x="117" y="162" on="0"/>
        <pt x="131" y="191" on="1"/>
        <pt x="142" y="216" on="0"/>
        <pt x="155" y="282" on="0"/>
        <pt x="161" y="355" on="0"/>
        <pt x="162" y="431" on="0"/>
        <pt x="162" y="466" on="1"/>
        <pt x="162" y="526" on="1"/>
        <pt x="557" y="526" on="1"/>
        <pt x="557" y="0" on="1"/>
        <pt x="408" y="0" on="1"/>
        <pt x="408" y="404" on="1"/>
      </contour>
    </TTGlyph>
    <TTGlyph name="afii10078" xMin="60" yMin="0" xMax="701" yMax="526">
      <contour>
        <pt x="218" y="303" on="1"/>
        <pt x="216" y="268" on="0"/>
        <pt x="212" y="186" on="0"/>
        <pt x="209" y="103" on="0"/>
        <pt x="206" y="28" on="0"/>
        <pt x="205" y="0" on="1"/>
        <pt x="60" y="0" on="1"/>
        <pt x="62" y="55" on="0"/>
        <pt x="71" y="193" on="0"/>
        <pt x="82" y="336" on="0"/>
        <pt x="95" y="472" on="0"/>
        <pt x="101" y="526" on="1"/>
        <pt x="225" y="526" on="1"/>
        <pt x="268" y="456" on="0"/>
        <pt x="340" y="306" on="0"/>
        <pt x="380" y="216" on="1"/>
        <pt x="422" y="312" on="0"/>
        <pt x="502" y="475" on="0"/>
        <pt x="534" y="526" on="1"/>
        <pt x="660" y="526" on="1"/>
        <pt x="667" y="472" on="0"/>
        <pt x="680" y="336" on="0"/>
        <pt x="691" y="193" on="0"/>
        <pt x="699" y="55" on="0"/>
        <pt x="701" y="0" on="1"/>
        <pt x="553" y="0" on="1"/>
        <pt x="551" y="78" on="0"/>
        <pt x="544" y="232" on="0"/>
        <pt x="541" y="304" on="1"/>
        <pt x="431" y="62" on="1"/>
        <pt x="328" y="62" on="1"/>
      </contour>
    </TTGlyph>
    <TTGlyph name="afii10079" xMin="70" yMin="0" xMax="523" yMax="526">
      <contour>
        <pt x="523" y="0" on="1"/>
        <pt x="374" y="0" on="1"/>
        <pt x="374" y="208" on="1"/>
        <pt x="219" y="208" on="1"/>
        <pt x="219" y="0" on="1"/>
        <pt x="70" y="0" on="1"/>
        <pt x="70" y="526" on="1"/>
        <pt x="219" y="526" on="1"/>
        <pt x="219" y="330" on="1"/>
        <pt x="374" y="330" on="1"/>
        <pt x="374" y="526" on="1"/>
        <pt x="523" y="526" on="1"/>
      </contour>
    </TTGlyph>
    <TTGlyph name="afii10080" xMin="45" yMin="-14" xMax="562" yMax="540">
      <component glyphName="o" x="0" y="0" flags="0x204"/>
    </TTGlyph>
    <TTGlyph name="afii10081" xMin="70" yMin="0" xMax="523" yMax="526">
      <component glyphName="pi" x="0" y="0" flags="0x204"/>
    </TTGlyph>
    <TTGlyph name="afii10082" xMin="70" yMin="-185" xMax="559" yMax="538">
      <component glyphName="p" x="0" y="0" flags="0x204"/>
    </TTGlyph>
    <TTGlyph name="afii10083" xMin="45" yMin="-14" xMax="470" yMax="540">
      <component glyphName="c" x="0" y="0" flags="0x204"/>
    </TTGlyph>
    <TTGlyph name="afii10084" xMin="20" yMin="0" xMax="505" yMax="526">
      <contour>
        <pt x="505" y="404" on="1"/>
        <pt x="337" y="404" on="1"/>
        <pt x="337" y="0" on="1"/>
        <pt x="188" y="0" on="1"/>
        <pt x="188" y="404" on="1"/>
        <pt x="20" y="404" on="1"/>
        <pt x="20" y="526" on="1"/>
        <pt x="505" y="526" on="1"/>
      </contour>
    </TTGlyph>
    <TTGlyph name="afii10085" xMin="5" yMin="-185" xMax="537" yMax="526">
      <component glyphName="y" x="0" y="0" flags="0x204"/>
    </TTGlyph>
    <TTGlyph name="afii10086" xMin="45" yMin="-185" xMax="749" yMax="776">
      <contour>
        <pt x="324" y="397" on="1"/>
        <pt x="264" y="392" on="0"/>
        <pt x="195" y="328" on="0"/>
        <pt x="195" y="259" on="1"/>
        <pt x="195" y="193" on="0"/>
        <pt x="261" y="131" on="0"/>
        <pt x="324" y="124" on="1"/>
      </contour>
      <contour>
        <pt x="469" y="124" on="1"/>
        <pt x="492" y="124" on="0"/>
        <pt x="538" y="138" on="0"/>
        <pt x="575" y="169" on="0"/>
        <pt x="598" y="221" on="0"/>
        <pt x="598" y="260" on="1"/>
        <pt x="598" y="299" on="0"/>
        <pt x="575" y="351" on="0"/>
        <pt x="538" y="382" on="0"/>
        <pt x="492" y="396" on="0"/>
        <pt x="469" y="397" on="1"/>
      </contour>
      <contour>
        <pt x="469" y="-185" on="1"/>
        <pt x="324" y="-185" on="1"/>
        <pt x="324" y="-2" on="1"/>
        <pt x="255" y="3" on="0"/>
        <pt x="150" y="47" on="0"/>
        <pt x="80" y="117" on="0"/>
        <pt x="45" y="209" on="0"/>
        <pt x="45" y="261" on="1"/>
        <pt x="45" y="311" on="0"/>
        <pt x="78" y="399" on="0"/>
        <pt x="146" y="468" on="0"/>
        <pt x="252" y="513" on="0"/>
        <pt x="324" y="521" on="1"/>
        <pt x="324" y="751" on="1"/>
        <pt x="469" y="776" on="1"/>
        <pt x="469" y="521" on="1"/>
        <pt x="525" y="516" on="0"/>
        <pt x="627" y="480" on="0"/>
        <pt x="704" y="416" on="0"/>
        <pt x="749" y="323" on="0"/>
        <pt x="749" y="260" on="1"/>
        <pt x="749" y="196" on="0"/>
        <pt x="704" y="102" on="0"/>
        <pt x="628" y="38" on="0"/>
        <pt x="526" y="3" on="0"/>
        <pt x="469" y="-2" on="1"/>
      </contour>
    </TTGlyph>
    <TTGlyph name="afii10087" xMin="10" yMin="0" xMax="544" yMax="526">
      <component glyphName="x" x="0" y="0" flags="0x204"/>
    </TTGlyph>
    <TTGlyph name="afii10088" xMin="70" yMin="-150" xMax="612" yMax="526">
      <contour>
        <pt x="523" y="122" on="1"/>
        <pt x="612" y="122" on="1"/>
        <pt x="612" y="-150" on="1"/>
        <pt x="485" y="-150" on="1"/>
        <pt x="485" y="0" on="1"/>
        <pt x="70" y="0" on="1"/>
        <pt x="70" y="526" on="1"/>
        <pt x="219" y="526" on="1"/>
        <pt x="219" y="122" on="1"/>
        <pt x="374" y="122" on="1"/>
        <pt x="374" y="526" on="1"/>
        <pt x="523" y="526" on="1"/>
      </contour>
    </TTGlyph>
    <TTGlyph name="afii10089" xMin="45" yMin="0" xMax="498" yMax="526">
      <contour>
        <pt x="194" y="526" on="1"/>
        <pt x="194" y="356" on="1"/>
        <pt x="194" y="318" on="0"/>
        <pt x="243" y="288" on="0"/>
        <pt x="287" y="288" on="1"/>
        <pt x="296" y="288" on="0"/>
        <pt x="334" y="291" on="0"/>
        <pt x="349" y="293" on="1"/>
        <pt x="349" y="526" on="1"/>
        <pt x="498" y="526" on="1"/>
        <pt x="498" y="0" on="1"/>
        <pt x="349" y="0" on="1"/>
        <pt x="349" y="173" on="1"/>
        <pt x="329" y="170" on="0"/>
        <pt x="282" y="166" on="0"/>
        <pt x="270" y="166" on="1"/>
        <pt x="219" y="166" on="0"/>
        <pt x="136" y="185" on="0"/>
        <pt x="77" y="228" on="0"/>
        <pt x="45" y="301" on="0"/>
        <pt x="45" y="355" on="1"/>
        <pt x="45" y="526" on="1"/>
      </contour>
    </TTGlyph>
    <TTGlyph name="afii10090" xMin="70" yMin="0" xMax="790" yMax="526">
      <contour>
        <pt x="70" y="0" on="1"/>
        <pt x="70" y="526" on="1"/>
        <pt x="219" y="526" on="1"/>
        <pt x="219" y="122" on="1"/>
        <pt x="356" y="122" on="1"/>
        <pt x="356" y="526" on="1"/>
        <pt x="505" y="526" on="1"/>
        <pt x="505" y="122" on="1"/>
        <pt x="641" y="122" on="1"/>
        <pt x="641" y="526" on="1"/>
        <pt x="790" y="526" on="1"/>
        <pt x="790" y="0" on="1"/>
      </contour>
    </TTGlyph>
    <TTGlyph name="afii10091" xMin="70" yMin="-150" xMax="879" yMax="526">
      <contour>
        <pt x="752" y="0" on="1"/>
        <pt x="70" y="0" on="1"/>
        <pt x="70" y="526" on="1"/>
        <pt x="219" y="526" on="1"/>
        <pt x="219" y="122" on="1"/>
        <pt x="356" y="122" on="1"/>
        <pt x="356" y="526" on="1"/>
        <pt x="505" y="526" on="1"/>
        <pt x="505" y="122" on="1"/>
        <pt x="641" y="122" on="1"/>
        <pt x="641" y="526" on="1"/>
        <pt x="790" y="526" on="1"/>
        <pt x="790" y="122" on="1"/>
        <pt x="879" y="122" on="1"/>
        <pt x="879" y="-150" on="1"/>
        <pt x="752" y="-150" on="1"/>
      </contour>
    </TTGlyph>
    <TTGlyph name="afii10092" xMin="20" yMin="-11" xMax="604" yMax="526">
      <contour>
        <pt x="368" y="104" on="1"/>
        <pt x="409" y="104" on="0"/>
        <pt x="456" y="135" on="0"/>
        <pt x="456" y="170" on="1"/>
        <pt x="456" y="188" on="0"/>
        <pt x="440" y="213" on="0"/>
        <pt x="412" y="228" on="0"/>
        <pt x="375" y="234" on="0"/>
        <pt x="354" y="234" on="1"/>
        <pt x="339" y="234" on="0"/>
        <pt x="303" y="230" on="0"/>
        <pt x="294" y="228" on="1"/>
        <pt x="294" y="108" on="1"/>
        <pt x="306" y="106" on="0"/>
        <pt x="346" y="104" on="0"/>
      </contour>
      <contour>
        <pt x="294" y="339" on="1"/>
        <pt x="308" y="343" on="0"/>
        <pt x="353" y="348" on="0"/>
        <pt x="382" y="348" on="1"/>
        <pt x="430" y="348" on="0"/>
        <pt x="511" y="326" on="0"/>
        <pt x="570" y="281" on="0"/>
        <pt x="604" y="212" on="0"/>
        <pt x="604" y="166" on="1"/>
        <pt x="604" y="120" on="0"/>
        <pt x="572" y="53" on="0"/>
        <pt x="512" y="10" on="0"/>
        <pt x="429" y="-11" on="0"/>
        <pt x="378" y="-11" on="1"/>
        <pt x="312" y="-11" on="0"/>
        <pt x="202" y="2" on="0"/>
        <pt x="145" y="16" on="1"/>
        <pt x="145" y="404" on="1"/>
        <pt x="20" y="404" on="1"/>
        <pt x="20" y="526" on="1"/>
        <pt x="294" y="526" on="1"/>
      </contour>
    </TTGlyph>
    <TTGlyph name="afii10093" xMin="70" yMin="-11" xMax="754" yMax="526">
      <contour>
        <pt x="754" y="0" on="1"/>
        <pt x="605" y="0" on="1"/>
        <pt x="605" y="526" on="1"/>
        <pt x="754" y="526" on="1"/>
      </contour>
      <contour>
        <pt x="293" y="104" on="1"/>
        <pt x="334" y="104" on="0"/>
        <pt x="381" y="135" on="0"/>
        <pt x="381" y="170" on="1"/>
        <pt x="381" y="188" on="0"/>
        <pt x="365" y="213" on="0"/>
        <pt x="337" y="228" on="0"/>
        <pt x="300" y="234" on="0"/>
        <pt x="279" y="234" on="1"/>
        <pt x="264" y="234" on="0"/>
        <pt x="228" y="230" on="0"/>
        <pt x="219" y="228" on="1"/>
        <pt x="219" y="108" on="1"/>
        <pt x="231" y="106" on="0"/>
        <pt x="271" y="104" on="0"/>
      </contour>
      <contour>
        <pt x="219" y="339" on="1"/>
        <pt x="233" y="343" on="0"/>
        <pt x="278" y="348" on="0"/>
        <pt x="307" y="348" on="1"/>
        <pt x="353" y="348" on="0"/>
        <pt x="434" y="326" on="0"/>
        <pt x="494" y="281" on="0"/>
        <pt x="529" y="212" on="0"/>
        <pt x="529" y="166" on="1"/>
        <pt x="529" y="120" on="0"/>
        <pt x="497" y="53" on="0"/>
        <pt x="437" y="10" on="0"/>
        <pt x="354" y="-11" on="0"/>
        <pt x="303" y="-11" on="1"/>
        <pt x="237" y="-11" on="0"/>
        <pt x="127" y="2" on="0"/>
        <pt x="70" y="16" on="1"/>
        <pt x="70" y="526" on="1"/>
        <pt x="219" y="526" on="1"/>
      </contour>
    </TTGlyph>
    <TTGlyph name="afii10094" xMin="70" yMin="-11" xMax="529" yMax="526">
      <contour>
        <pt x="293" y="104" on="1"/>
        <pt x="334" y="104" on="0"/>
        <pt x="381" y="135" on="0"/>
        <pt x="381" y="170" on="1"/>
        <pt x="381" y="188" on="0"/>
        <pt x="365" y="213" on="0"/>
        <pt x="337" y="228" on="0"/>
        <pt x="300" y="234" on="0"/>
        <pt x="279" y="234" on="1"/>
        <pt x="264" y="234" on="0"/>
        <pt x="228" y="230" on="0"/>
        <pt x="219" y="228" on="1"/>
        <pt x="219" y="108" on="1"/>
        <pt x="231" y="106" on="0"/>
        <pt x="271" y="104" on="0"/>
      </contour>
      <contour>
        <pt x="219" y="339" on="1"/>
        <pt x="233" y="343" on="0"/>
        <pt x="278" y="348" on="0"/>
        <pt x="307" y="348" on="1"/>
        <pt x="354" y="348" on="0"/>
        <pt x="435" y="326" on="0"/>
        <pt x="495" y="281" on="0"/>
        <pt x="529" y="212" on="0"/>
        <pt x="529" y="166" on="1"/>
        <pt x="529" y="120" on="0"/>
        <pt x="497" y="53" on="0"/>
        <pt x="437" y="10" on="0"/>
        <pt x="354" y="-11" on="0"/>
        <pt x="303" y="-11" on="1"/>
        <pt x="237" y="-11" on="0"/>
        <pt x="127" y="2" on="0"/>
        <pt x="70" y="16" on="1"/>
        <pt x="70" y="526" on="1"/>
        <pt x="219" y="526" on="1"/>
      </contour>
    </TTGlyph>
    <TTGlyph name="afii10095" xMin="29" yMin="-12" xMax="486" yMax="540">
      <contour>
        <pt x="486" y="266" on="1"/>
        <pt x="486" y="199" on="0"/>
        <pt x="446" y="95" on="0"/>
        <pt x="375" y="25" on="0"/>
        <pt x="276" y="-12" on="0"/>
        <pt x="216" y="-12" on="1"/>
        <pt x="166" y="-12" on="0"/>
        <pt x="79" y="2" on="0"/>
        <pt x="29" y="21" on="1"/>
        <pt x="57" y="138" on="1"/>
        <pt x="86" y="128" on="0"/>
        <pt x="164" y="112" on="0"/>
        <pt x="199" y="112" on="1"/>
        <pt x="224" y="112" on="0"/>
        <pt x="270" y="122" on="0"/>
        <pt x="307" y="146" on="0"/>
        <pt x="332" y="185" on="0"/>
        <pt x="336" y="213" on="1"/>
        <pt x="136" y="213" on="1"/>
        <pt x="136" y="320" on="1"/>
        <pt x="335" y="320" on="1"/>
        <pt x="327" y="376" on="0"/>
        <pt x="256" y="418" on="0"/>
        <pt x="205" y="418" on="1"/>
        <pt x="167" y="418" on="0"/>
        <pt x="106" y="405" on="0"/>
        <pt x="73" y="395" on="1"/>
        <pt x="45" y="510" on="1"/>
        <pt x="90" y="526" on="0"/>
        <pt x="174" y="540" on="0"/>
        <pt x="213" y="540" on="1"/>
        <pt x="274" y="540" on="0"/>
        <pt x="374" y="503" on="0"/>
        <pt x="446" y="432" on="0"/>
        <pt x="486" y="330" on="0"/>
      </contour>
    </TTGlyph>
    <TTGlyph name="afii10096" xMin="70" yMin="-14" xMax="827" yMax="540">
      <contour>
        <pt x="575" y="-14" on="1"/>
        <pt x="527" y="-14" on="0"/>
        <pt x="443" y="17" on="0"/>
        <pt x="378" y="74" on="0"/>
        <pt x="335" y="157" on="0"/>
        <pt x="327" y="208" on="1"/>
        <pt x="219" y="208" on="1"/>
        <pt x="219" y="0" on="1"/>
        <pt x="70" y="0" on="1"/>
        <pt x="70" y="526" on="1"/>
        <pt x="219" y="526" on="1"/>
        <pt x="219" y="330" on="1"/>
        <pt x="329" y="330" on="1"/>
        <pt x="338" y="378" on="0"/>
        <pt x="382" y="456" on="0"/>
        <pt x="447" y="511" on="0"/>
        <pt x="528" y="540" on="0"/>
        <pt x="575" y="540" on="1"/>
        <pt x="629" y="540" on="0"/>
        <pt x="721" y="501" on="0"/>
        <pt x="789" y="429" on="0"/>
        <pt x="827" y="327" on="0"/>
        <pt x="827" y="264" on="1"/>
        <pt x="827" y="201" on="0"/>
        <pt x="789" y="98" on="0"/>
        <pt x="721" y="25" on="0"/>
        <pt x="629" y="-14" on="0"/>
      </contour>
      <contour>
        <pt x="575" y="412" on="1"/>
        <pt x="529" y="412" on="0"/>
        <pt x="475" y="331" on="0"/>
        <pt x="475" y="264" on="1"/>
        <pt x="475" y="197" on="0"/>
        <pt x="529" y="114" on="0"/>
        <pt x="575" y="114" on="1"/>
        <pt x="621" y="114" on="0"/>
        <pt x="675" y="197" on="0"/>
        <pt x="675" y="264" on="1"/>
        <pt x="675" y="331" on="0"/>
        <pt x="621" y="412" on="0"/>
      </contour>
    </TTGlyph>
    <TTGlyph name="afii10097" xMin="30" yMin="0" xMax="514" yMax="537">
      <contour>
        <pt x="288" y="187" on="1"/>
        <pt x="256" y="140" on="0"/>
        <pt x="206" y="45" on="0"/>
        <pt x="183" y="0" on="1"/>
        <pt x="30" y="0" on="1"/>
        <pt x="59" y="65" on="0"/>
        <pt x="119" y="173" on="0"/>
        <pt x="147" y="212" on="1"/>
        <pt x="105" y="234" on="0"/>
        <pt x="55" y="303" on="0"/>
        <pt x="55" y="355" on="1"/>
        <pt x="55" y="443" on="0"/>
        <pt x="182" y="537" on="0"/>
        <pt x="294" y="537" on="1"/>
        <pt x="319" y="537" on="0"/>
        <pt x="380" y="533" on="0"/>
        <pt x="440" y="525" on="0"/>
        <pt x="495" y="516" on="0"/>
        <pt x="514" y="511" on="1"/>
        <pt x="514" y="0" on="1"/>
        <pt x="365" y="0" on="1"/>
        <pt x="365" y="187" on="1"/>
      </contour>
      <contour>
        <pt x="365" y="419" on="1"/>
        <pt x="355" y="420" on="0"/>
        <pt x="313" y="423" on="0"/>
        <pt x="298" y="423" on="1"/>
        <pt x="243" y="423" on="0"/>
        <pt x="203" y="386" on="0"/>
        <pt x="203" y="357" on="1"/>
        <pt x="203" y="339" on="0"/>
        <pt x="219" y="314" on="0"/>
        <pt x="245" y="299" on="0"/>
        <pt x="277" y="293" on="0"/>
        <pt x="293" y="293" on="1"/>
        <pt x="365" y="293" on="1"/>
      </contour>
    </TTGlyph>
    <TTGlyph name="afii10098" xMin="70" yMin="0" xMax="443" yMax="650">
      <contour>
        <pt x="443" y="404" on="1"/>
        <pt x="219" y="404" on="1"/>
        <pt x="219" y="0" on="1"/>
        <pt x="70" y="0" on="1"/>
        <pt x="70" y="526" on="1"/>
        <pt x="316" y="526" on="1"/>
        <pt x="316" y="650" on="1"/>
        <pt x="443" y="650" on="1"/>
      </contour>
    </TTGlyph>
    <TTGlyph name="afii10099" xMin="18" yMin="-185" xMax="534" yMax="776">
      <contour>
        <pt x="18" y="689" on="1"/>
        <pt x="80" y="689" on="1"/>
        <pt x="80" y="752" on="1"/>
        <pt x="229" y="776" on="1"/>
        <pt x="229" y="689" on="1"/>
        <pt x="372" y="689" on="1"/>
        <pt x="372" y="596" on="1"/>
        <pt x="229" y="596" on="1"/>
        <pt x="229" y="509" on="1"/>
        <pt x="244" y="514" on="0"/>
        <pt x="291" y="523" on="0"/>
        <pt x="313" y="523" on="1"/>
        <pt x="375" y="523" on="0"/>
        <pt x="459" y="489" on="0"/>
        <pt x="510" y="428" on="0"/>
        <pt x="533" y="343" on="0"/>
        <pt x="534" y="291" on="1"/>
        <pt x="534" y="13" on="1"/>
        <pt x="534" y="-90" on="0"/>
        <pt x="437" y="-185" on="0"/>
        <pt x="346" y="-185" on="1"/>
        <pt x="332" y="-185" on="0"/>
        <pt x="281" y="-180" on="0"/>
        <pt x="257" y="-172" on="1"/>
        <pt x="277" y="-51" on="1"/>
        <pt x="292" y="-56" on="0"/>
        <pt x="313" y="-59" on="0"/>
        <pt x="332" y="-59" on="1"/>
        <pt x="361" y="-59" on="0"/>
        <pt x="385" y="-21" on="0"/>
        <pt x="385" y="17" on="1"/>
        <pt x="385" y="264" on="1"/>
        <pt x="385" y="336" on="0"/>
        <pt x="348" y="396" on="0"/>
        <pt x="298" y="396" on="1"/>
        <pt x="278" y="396" on="0"/>
        <pt x="243" y="389" on="0"/>
        <pt x="229" y="385" on="1"/>
        <pt x="229" y="0" on="1"/>
        <pt x="80" y="0" on="1"/>
        <pt x="80" y="596" on="1"/>
        <pt x="18" y="596" on="1"/>
      </contour>
    </TTGlyph>
    <TTGlyph name="afii10100" xMin="70" yMin="0" xMax="443" yMax="799">
      <component glyphName="afii10068" x="0" y="0" flags="0x204"/>
      <component glyphName="acute" x="122" y="0" flags="0x4"/>
    </TTGlyph>
    <TTGlyph name="afii10101" xMin="35" yMin="-12" xMax="492" yMax="540">
      <contour>
        <pt x="35" y="266" on="1"/>
        <pt x="35" y="330" on="0"/>
        <pt x="75" y="432" on="0"/>
        <pt x="147" y="503" on="0"/>
        <pt x="247" y="540" on="0"/>
        <pt x="308" y="540" on="1"/>
        <pt x="347" y="540" on="0"/>
        <pt x="431" y="526" on="0"/>
        <pt x="476" y="510" on="1"/>
        <pt x="448" y="395" on="1"/>
        <pt x="415" y="405" on="0"/>
        <pt x="354" y="418" on="0"/>
        <pt x="316" y="418" on="1"/>
        <pt x="265" y="418" on="0"/>
        <pt x="194" y="376" on="0"/>
        <pt x="186" y="320" on="1"/>
        <pt x="385" y="320" on="1"/>
        <pt x="385" y="213" on="1"/>
        <pt x="185" y="213" on="1"/>
        <pt x="189" y="184" on="0"/>
        <pt x="214" y="146" on="0"/>
        <pt x="251" y="122" on="0"/>
        <pt x="297" y="112" on="0"/>
        <pt x="322" y="112" on="1"/>
        <pt x="357" y="112" on="0"/>
        <pt x="435" y="128" on="0"/>
        <pt x="464" y="138" on="1"/>
        <pt x="492" y="21" on="1"/>
        <pt x="441" y="2" on="0"/>
        <pt x="356" y="-12" on="0"/>
        <pt x="305" y="-12" on="1"/>
        <pt x="245" y="-12" on="0"/>
        <pt x="146" y="25" on="0"/>
        <pt x="75" y="95" on="0"/>
        <pt x="35" y="199" on="0"/>
      </contour>
    </TTGlyph>
    <TTGlyph name="afii10102" xMin="39" yMin="-14" xMax="444" yMax="540">
      <component glyphName="s" x="0" y="0" flags="0x204"/>
    </TTGlyph>
    <TTGlyph name="afii10103" xMin="55" yMin="0" xMax="233" yMax="766">
      <component glyphName="i" x="0" y="0" flags="0x204"/>
    </TTGlyph>
    <TTGlyph name="afii10104" xMin="-48" yMin="0" xMax="329" yMax="754">
      <component glyphName="dotlessi" x="0" y="0" flags="0x204"/>
      <component glyphName="dieresis" x="-127" y="0" flags="0x4"/>
    </TTGlyph>
    <TTGlyph name="afii10105" xMin="-72" yMin="-185" xMax="233" yMax="766">
      <component glyphName="j" x="0" y="0" flags="0x204"/>
    </TTGlyph>
    <TTGlyph name="afii10106" xMin="10" yMin="-11" xMax="867" yMax="526">
      <contour>
        <pt x="306" y="404" on="1"/>
        <pt x="305" y="375" on="0"/>
        <pt x="302" y="310" on="0"/>
        <pt x="294" y="245" on="0"/>
        <pt x="281" y="183" on="0"/>
        <pt x="271" y="156" on="1"/>
        <pt x="259" y="124" on="0"/>
        <pt x="222" y="69" on="0"/>
        <pt x="165" y="25" on="0"/>
        <pt x="84" y="-4" on="0"/>
        <pt x="30" y="-9" on="1"/>
        <pt x="10" y="115" on="1"/>
        <pt x="61" y="125" on="0"/>
        <pt x="117" y="162" on="0"/>
        <pt x="131" y="191" on="1"/>
        <pt x="142" y="216" on="0"/>
        <pt x="155" y="282" on="0"/>
        <pt x="161" y="355" on="0"/>
        <pt x="162" y="431" on="0"/>
        <pt x="162" y="466" on="1"/>
        <pt x="162" y="526" on="1"/>
        <pt x="557" y="526" on="1"/>
        <pt x="557" y="329" on="1"/>
        <pt x="571" y="333" on="0"/>
        <pt x="616" y="338" on="0"/>
        <pt x="645" y="338" on="1"/>
        <pt x="688" y="338" on="0"/>
        <pt x="768" y="319" on="0"/>
        <pt x="830" y="278" on="0"/>
        <pt x="867" y="212" on="0"/>
        <pt x="867" y="166" on="1"/>
        <pt x="867" y="120" on="0"/>
        <pt x="835" y="53" on="0"/>
        <pt x="775" y="10" on="0"/>
        <pt x="692" y="-11" on="0"/>
        <pt x="641" y="-11" on="1"/>
        <pt x="575" y="-11" on="0"/>
        <pt x="465" y="2" on="0"/>
        <pt x="408" y="16" on="1"/>
        <pt x="408" y="404" on="1"/>
      </contour>
      <contour>
        <pt x="631" y="104" on="1"/>
        <pt x="672" y="104" on="0"/>
        <pt x="719" y="135" on="0"/>
        <pt x="719" y="170" on="1"/>
        <pt x="719" y="188" on="0"/>
        <pt x="703" y="213" on="0"/>
        <pt x="675" y="228" on="0"/>
        <pt x="638" y="234" on="0"/>
        <pt x="617" y="234" on="1"/>
        <pt x="602" y="234" on="0"/>
        <pt x="566" y="230" on="0"/>
        <pt x="557" y="228" on="1"/>
        <pt x="557" y="108" on="1"/>
        <pt x="569" y="106" on="0"/>
        <pt x="609" y="104" on="0"/>
      </contour>
    </TTGlyph>
    <TTGlyph name="afii10107" xMin="70" yMin="-11" xMax="833" yMax="526">
      <contour>
        <pt x="523" y="329" on="1"/>
        <pt x="537" y="333" on="0"/>
        <pt x="582" y="338" on="0"/>
        <pt x="611" y="338" on="1"/>
        <pt x="654" y="338" on="0"/>
        <pt x="734" y="319" on="0"/>
        <pt x="796" y="278" on="0"/>
        <pt x="833" y="212" on="0"/>
        <pt x="833" y="166" on="1"/>
        <pt x="833" y="120" on="0"/>
        <pt x="801" y="53" on="0"/>
        <pt x="741" y="10" on="0"/>
        <pt x="658" y="-11" on="0"/>
        <pt x="607" y="-11" on="1"/>
        <pt x="541" y="-11" on="0"/>
        <pt x="431" y="2" on="0"/>
        <pt x="374" y="16" on="1"/>
        <pt x="374" y="208" on="1"/>
        <pt x="219" y="208" on="1"/>
        <pt x="219" y="0" on="1"/>
        <pt x="70" y="0" on="1"/>
        <pt x="70" y="526" on="1"/>
        <pt x="219" y="526" on="1"/>
        <pt x="219" y="330" on="1"/>
        <pt x="374" y="330" on="1"/>
        <pt x="374" y="526" on="1"/>
        <pt x="523" y="526" on="1"/>
      </contour>
      <contour>
        <pt x="597" y="104" on="1"/>
        <pt x="638" y="104" on="0"/>
        <pt x="685" y="135" on="0"/>
        <pt x="685" y="170" on="1"/>
        <pt x="685" y="188" on="0"/>
        <pt x="669" y="213" on="0"/>
        <pt x="641" y="228" on="0"/>
        <pt x="604" y="234" on="0"/>
        <pt x="583" y="234" on="1"/>
        <pt x="568" y="234" on="0"/>
        <pt x="532" y="230" on="0"/>
        <pt x="523" y="228" on="1"/>
        <pt x="523" y="108" on="1"/>
        <pt x="535" y="106" on="0"/>
        <pt x="575" y="104" on="0"/>
      </contour>
    </TTGlyph>
    <TTGlyph name="afii10108" xMin="18" yMin="0" xMax="534" yMax="776">
      <component glyphName="hbar" x="0" y="0" flags="0x204"/>
    </TTGlyph>
    <TTGlyph name="afii10109" xMin="70" yMin="0" xMax="576" yMax="799">
      <component glyphName="afii10076" x="0" y="0" flags="0x204"/>
      <component glyphName="acute" x="188" y="0" flags="0x4"/>
    </TTGlyph>
    <TTGlyph name="afii10110" xMin="5" yMin="-185" xMax="537" yMax="768">
      <component glyphName="y" x="0" y="0" flags="0x204"/>
      <component glyphName="kratka" x="90" y="0" flags="0x4"/>
    </TTGlyph>
    <TTGlyph name="afii10145" xMin="80" yMin="-185" xMax="650" yMax="693">
      <contour>
        <pt x="236" y="132" on="1"/>
        <pt x="494" y="132" on="1"/>
        <pt x="494" y="693" on="1"/>
        <pt x="650" y="693" on="1"/>
        <pt x="650" y="0" on="1"/>
        <pt x="441" y="0" on="1"/>
        <pt x="441" y="-185" on="1"/>
        <pt x="291" y="-185" on="1"/>
        <pt x="291" y="0" on="1"/>
        <pt x="80" y="0" on="1"/>
        <pt x="80" y="693" on="1"/>
        <pt x="236" y="693" on="1"/>
      </contour>
    </TTGlyph>
    <TTGlyph name="afii10193" xMin="70" yMin="-150" xMax="523" yMax="526">
      <contour>
        <pt x="523" y="0" on="1"/>
        <pt x="358" y="0" on="1"/>
        <pt x="358" y="-150" on="1"/>
        <pt x="231" y="-150" on="1"/>
        <pt x="231" y="0" on="1"/>
        <pt x="70" y="0" on="1"/>
        <pt x="70" y="526" on="1"/>
        <pt x="219" y="526" on="1"/>
        <pt x="219" y="122" on="1"/>
        <pt x="374" y="122" on="1"/>
        <pt x="374" y="526" on="1"/>
        <pt x="523" y="526" on="1"/>
      </contour>
    </TTGlyph>
    <TTGlyph name="afii61289" xMin="26" yMin="-14" xMax="506" yMax="776">
      <contour>
        <pt x="506" y="61" on="1"/>
        <pt x="468" y="25" on="0"/>
        <pt x="370" y="-14" on="0"/>
        <pt x="310" y="-14" on="1"/>
        <pt x="225" y="-14" on="0"/>
        <pt x="129" y="66" on="0"/>
        <pt x="119" y="154" on="1"/>
        <pt x="74" y="122" on="1"/>
        <pt x="26" y="194" on="1"/>
        <pt x="50" y="213" on="0"/>
        <pt x="95" y="246" on="0"/>
        <pt x="117" y="264" on="1"/>
        <pt x="117" y="504" on="1"/>
        <pt x="117" y="645" on="0"/>
        <pt x="222" y="776" on="0"/>
        <pt x="310" y="776" on="1"/>
        <pt x="352" y="776" on="0"/>
        <pt x="413" y="746" on="0"/>
        <pt x="454" y="695" on="0"/>
        <pt x="473" y="627" on="0"/>
        <pt x="473" y="589" on="1"/>
        <pt x="473" y="498" on="0"/>
        <pt x="358" y="330" on="0"/>
        <pt x="255" y="239" on="1"/>
        <pt x="255" y="206" on="1"/>
        <pt x="255" y="112" on="0"/>
        <pt x="340" y="112" on="1"/>
        <pt x="368" y="112" on="0"/>
        <pt x="424" y="139" on="0"/>
        <pt x="445" y="157" on="1"/>
      </contour>
      <contour>
        <pt x="255" y="372" on="1"/>
        <pt x="307" y="428" on="0"/>
        <pt x="372" y="544" on="0"/>
        <pt x="372" y="593" on="1"/>
        <pt x="372" y="632" on="0"/>
        <pt x="348" y="672" on="0"/>
        <pt x="318" y="672" on="1"/>
        <pt x="306" y="672" on="0"/>
        <pt x="283" y="658" on="0"/>
        <pt x="266" y="623" on="0"/>
        <pt x="255" y="564" on="0"/>
        <pt x="255" y="520" on="1"/>
      </contour>
    </TTGlyph>
    <TTGlyph name="afii61352" xMin="80" yMin="0" xMax="1101" yMax="708">
      <contour>
        <pt x="525" y="0" on="1"/>
        <pt x="458" y="120" on="0"/>
        <pt x="315" y="341" on="0"/>
        <pt x="234" y="444" on="1"/>
        <pt x="234" y="0" on="1"/>
        <pt x="80" y="0" on="1"/>
        <pt x="80" y="693" on="1"/>
        <pt x="207" y="693" on="1"/>
        <pt x="240" y="660" on="0"/>
        <pt x="316" y="567" on="0"/>
        <pt x="394" y="462" on="0"/>
        <pt x="469" y="348" on="0"/>
        <pt x="501" y="294" on="1"/>
        <pt x="501" y="693" on="1"/>
        <pt x="656" y="693" on="1"/>
        <pt x="656" y="0" on="1"/>
      </contour>
      <contour>
        <pt x="1101" y="518" on="1"/>
        <pt x="1101" y="475" on="0"/>
        <pt x="1072" y="405" on="0"/>
        <pt x="1020" y="355" on="0"/>
        <pt x="948" y="328" on="0"/>
        <pt x="906" y="328" on="1"/>
        <pt x="864" y="328" on="0"/>
        <pt x="792" y="355" on="0"/>
        <pt x="740" y="405" on="0"/>
        <pt x="711" y="475" on="0"/>
        <pt x="711" y="518" on="1"/>
        <pt x="711" y="561" on="0"/>
        <pt x="740" y="632" on="0"/>
        <pt x="792" y="681" on="0"/>
        <pt x="864" y="708" on="0"/>
        <pt x="906" y="708" on="1"/>
        <pt x="948" y="708" on="0"/>
        <pt x="1020" y="681" on="0"/>
        <pt x="1072" y="632" on="0"/>
        <pt x="1101" y="561" on="0"/>
      </contour>
      <contour>
        <pt x="980" y="518" on="1"/>
        <pt x="980" y="556" on="0"/>
        <pt x="941" y="602" on="0"/>
        <pt x="905" y="602" on="1"/>
        <pt x="870" y="602" on="0"/>
        <pt x="832" y="556" on="0"/>
        <pt x="832" y="518" on="1"/>
        <pt x="832" y="481" on="0"/>
        <pt x="870" y="435" on="0"/>
        <pt x="905" y="435" on="1"/>
        <pt x="941" y="435" on="0"/>
        <pt x="980" y="481" on="0"/>
      </contour>
      <contour>
        <pt x="736" y="245" on="1"/>
        <pt x="1076" y="245" on="1"/>
        <pt x="1076" y="122" on="1"/>
        <pt x="736" y="122" on="1"/>
      </contour>
    </TTGlyph>
    <TTGlyph name="agrave" xMin="35" yMin="-11" xMax="488" yMax="799">
      <component glyphName="a" x="0" y="0" flags="0x204"/>
      <component glyphName="grave" x="123" y="0" flags="0x4"/>
    </TTGlyph>
    <TTGlyph name="alpha" xMin="45" yMin="-11" xMax="603" yMax="538">
      <contour>
        <pt x="583" y="-11" on="1"/>
        <pt x="528" y="-11" on="0"/>
        <pt x="454" y="15" on="0"/>
        <pt x="430" y="39" on="1"/>
        <pt x="409" y="23" on="0"/>
        <pt x="332" y="-11" on="0"/>
        <pt x="278" y="-11" on="1"/>
        <pt x="166" y="-11" on="0"/>
        <pt x="45" y="134" on="0"/>
        <pt x="45" y="263" on="1"/>
        <pt x="45" y="324" on="0"/>
        <pt x="82" y="425" on="0"/>
        <pt x="152" y="498" on="0"/>
        <pt x="252" y="538" on="0"/>
        <pt x="315" y="538" on="1"/>
        <pt x="370" y="538" on="0"/>
        <pt x="485" y="520" on="0"/>
        <pt x="526" y="508" on="1"/>
        <pt x="526" y="198" on="1"/>
        <pt x="526" y="173" on="0"/>
        <pt x="534" y="142" on="0"/>
        <pt x="552" y="123" on="0"/>
        <pt x="582" y="115" on="0"/>
        <pt x="603" y="113" on="1"/>
      </contour>
      <contour>
        <pt x="299" y="114" on="1"/>
        <pt x="325" y="114" on="0"/>
        <pt x="367" y="128" on="0"/>
        <pt x="384" y="139" on="1"/>
        <pt x="378" y="173" on="0"/>
        <pt x="378" y="213" on="1"/>
        <pt x="378" y="406" on="1"/>
        <pt x="365" y="408" on="0"/>
        <pt x="339" y="411" on="0"/>
        <pt x="316" y="411" on="1"/>
        <pt x="259" y="411" on="0"/>
        <pt x="196" y="328" on="0"/>
        <pt x="196" y="259" on="1"/>
        <pt x="196" y="187" on="0"/>
        <pt x="251" y="114" on="0"/>
      </contour>
    </TTGlyph>
    <TTGlyph name="alphatonos" xMin="45" yMin="-11" xMax="603" yMax="819">
      <component glyphName="alpha" x="0" y="0" flags="0x204"/>
      <component glyphName="tonos" x="110" y="0" flags="0x4"/>
    </TTGlyph>
    <TTGlyph name="amacron" xMin="35" yMin="-11" xMax="488" yMax="725">
      <component glyphName="a" x="0" y="0" flags="0x204"/>
      <component glyphName="macron" x="84" y="0" flags="0x4"/>
    </TTGlyph>
    <TTGlyph name="ampersand" xMin="35" yMin="-9" xMax="695" yMax="709">
      <contour>
        <pt x="35" y="184" on="1"/>
        <pt x="35" y="222" on="0"/>
        <pt x="57" y="285" on="0"/>
        <pt x="94" y="336" on="0"/>
        <pt x="143" y="375" on="0"/>
        <pt x="170" y="390" on="1"/>
        <pt x="146" y="419" on="0"/>
        <pt x="108" y="486" on="0"/>
        <pt x="108" y="526" on="1"/>
        <pt x="108" y="614" on="0"/>
        <pt x="214" y="709" on="0"/>
        <pt x="307" y="709" on="1"/>
        <pt x="354" y="709" on="0"/>
        <pt x="424" y="684" on="0"/>
        <pt x="471" y="641" on="0"/>
        <pt x="495" y="584" on="0"/>
        <pt x="495" y="551" on="1"/>
        <pt x="495" y="490" on="0"/>
        <pt x="426" y="395" on="0"/>
        <pt x="373" y="363" on="1"/>
        <pt x="485" y="251" on="1"/>
        <pt x="494" y="271" on="0"/>
        <pt x="511" y="332" on="0"/>
        <pt x="513" y="355" on="1"/>
        <pt x="637" y="339" on="1"/>
        <pt x="635" y="320" on="0"/>
        <pt x="625" y="275" on="0"/>
        <pt x="610" y="229" on="0"/>
        <pt x="591" y="183" on="0"/>
        <pt x="580" y="164" on="1"/>
        <pt x="612" y="128" on="0"/>
        <pt x="673" y="43" on="0"/>
        <pt x="695" y="0" on="1"/>
        <pt x="542" y="0" on="1"/>
        <pt x="534" y="13" on="0"/>
        <pt x="506" y="52" on="0"/>
        <pt x="492" y="66" on="1"/>
        <pt x="452" y="34" on="0"/>
        <pt x="346" y="-9" on="0"/>
        <pt x="280" y="-9" on="1"/>
        <pt x="210" y="-9" on="0"/>
        <pt x="116" y="26" on="0"/>
        <pt x="59" y="81" on="0"/>
        <pt x="35" y="150" on="0"/>
      </contour>
      <contour>
        <pt x="174" y="199" on="1"/>
        <pt x="174" y="184" on="0"/>
        <pt x="186" y="152" on="0"/>
        <pt x="213" y="125" on="0"/>
        <pt x="255" y="108" on="0"/>
        <pt x="285" y="108" on="1"/>
        <pt x="327" y="108" on="0"/>
        <pt x="390" y="130" on="0"/>
        <pt x="411" y="148" on="1"/>
        <pt x="251" y="309" on="1"/>
        <pt x="237" y="302" on="0"/>
        <pt x="210" y="282" on="0"/>
        <pt x="188" y="255" on="0"/>
        <pt x="174" y="221" on="0"/>
      </contour>
      <contour>
        <pt x="368" y="544" on="1"/>
        <pt x="368" y="567" on="0"/>
        <pt x="338" y="603" on="0"/>
        <pt x="303" y="603" on="1"/>
        <pt x="271" y="603" on="0"/>
        <pt x="236" y="564" on="0"/>
        <pt x="236" y="533" on="1"/>
        <pt x="236" y="507" on="0"/>
        <pt x="266" y="458" on="0"/>
        <pt x="290" y="436" on="1"/>
        <pt x="322" y="454" on="0"/>
        <pt x="368" y="504" on="0"/>
      </contour>
    </TTGlyph>
    <TTGlyph name="aogonek" xMin="35" yMin="-221" xMax="490" yMax="540">
      <contour>
        <pt x="271" y="104" on="1"/>
        <pt x="293" y="104" on="0"/>
        <pt x="333" y="106" on="0"/>
        <pt x="345" y="108" on="1"/>
        <pt x="345" y="221" on="1"/>
        <pt x="336" y="223" on="0"/>
        <pt x="300" y="227" on="0"/>
        <pt x="285" y="227" on="1"/>
        <pt x="264" y="227" on="0"/>
        <pt x="227" y="222" on="0"/>
        <pt x="199" y="208" on="0"/>
        <pt x="183" y="184" on="0"/>
        <pt x="183" y="166" on="1"/>
        <pt x="183" y="131" on="0"/>
        <pt x="230" y="104" on="0"/>
      </contour>
      <contour>
        <pt x="259" y="540" on="1"/>
        <pt x="325" y="540" on="0"/>
        <pt x="413" y="510" on="0"/>
        <pt x="466" y="454" on="0"/>
        <pt x="488" y="374" on="0"/>
        <pt x="488" y="325" on="1"/>
        <pt x="488" y="15" on="1"/>
        <pt x="478" y="7" on="0"/>
        <pt x="442" y="-24" on="0"/>
        <pt x="425" y="-41" on="1"/>
        <pt x="412" y="-54" on="0"/>
        <pt x="397" y="-77" on="0"/>
        <pt x="397" y="-88" on="1"/>
        <pt x="397" y="-99" on="0"/>
        <pt x="410" y="-113" on="0"/>
        <pt x="427" y="-113" on="1"/>
        <pt x="436" y="-113" on="0"/>
        <pt x="461" y="-110" on="0"/>
        <pt x="478" y="-105" on="1"/>
        <pt x="490" y="-205" on="1"/>
        <pt x="470" y="-213" on="0"/>
        <pt x="414" y="-221" on="0"/>
        <pt x="391" y="-221" on="1"/>
        <pt x="324" y="-221" on="0"/>
        <pt x="266" y="-171" on="0"/>
        <pt x="266" y="-130" on="1"/>
        <pt x="266" y="-109" on="0"/>
        <pt x="284" y="-69" on="0"/>
        <pt x="299" y="-50" on="1"/>
        <pt x="317" y="-27" on="0"/>
        <pt x="340" y="-8" on="1"/>
        <pt x="323" y="-10" on="0"/>
        <pt x="281" y="-11" on="0"/>
        <pt x="261" y="-11" on="1"/>
        <pt x="210" y="-11" on="0"/>
        <pt x="127" y="7" on="0"/>
        <pt x="67" y="48" on="0"/>
        <pt x="35" y="114" on="0"/>
        <pt x="35" y="162" on="1"/>
        <pt x="35" y="208" on="0"/>
        <pt x="72" y="272" on="0"/>
        <pt x="134" y="310" on="0"/>
        <pt x="214" y="327" on="0"/>
        <pt x="257" y="327" on="1"/>
        <pt x="286" y="327" on="0"/>
        <pt x="331" y="322" on="0"/>
        <pt x="345" y="318" on="1"/>
        <pt x="345" y="332" on="1"/>
        <pt x="345" y="370" on="0"/>
        <pt x="299" y="416" on="0"/>
        <pt x="242" y="416" on="1"/>
        <pt x="204" y="416" on="0"/>
        <pt x="130" y="405" on="0"/>
        <pt x="103" y="395" on="1"/>
        <pt x="84" y="515" on="1"/>
        <pt x="97" y="519" on="0"/>
        <pt x="136" y="528" on="0"/>
        <pt x="182" y="535" on="0"/>
        <pt x="233" y="540" on="0"/>
      </contour>
    </TTGlyph>
    <TTGlyph name="apostrophe" xMin="64" yMin="540" xMax="229" yMax="776">
      <contour>
        <pt x="229" y="776" on="1"/>
        <pt x="229" y="763" on="0"/>
        <pt x="229" y="745" on="0"/>
        <pt x="228" y="733" on="1"/>
        <pt x="224" y="671" on="0"/>
        <pt x="190" y="584" on="0"/>
        <pt x="161" y="540" on="1"/>
        <pt x="64" y="567" on="1"/>
        <pt x="85" y="612" on="0"/>
        <pt x="102" y="688" on="0"/>
        <pt x="102" y="731" on="1"/>
        <pt x="102" y="743" on="0"/>
        <pt x="101" y="768" on="0"/>
        <pt x="99" y="776" on="1"/>
      </contour>
    </TTGlyph>
    <TTGlyph name="approxequal" xMin="23" yMin="71" xMax="546" yMax="517">
      <contour>
        <pt x="386" y="315" on="1"/>
        <pt x="356" y="315" on="0"/>
        <pt x="303" y="338" on="0"/>
        <pt x="254" y="367" on="0"/>
        <pt x="209" y="390" on="0"/>
        <pt x="187" y="390" on="1"/>
        <pt x="178" y="390" on="0"/>
        <pt x="162" y="386" on="0"/>
        <pt x="146" y="371" on="0"/>
        <pt x="131" y="342" on="0"/>
        <pt x="125" y="317" on="1"/>
        <pt x="23" y="345" on="1"/>
        <pt x="28" y="373" on="0"/>
        <pt x="50" y="433" on="0"/>
        <pt x="87" y="484" on="0"/>
        <pt x="143" y="517" on="0"/>
        <pt x="182" y="517" on="1"/>
        <pt x="212" y="517" on="0"/>
        <pt x="265" y="494" on="0"/>
        <pt x="314" y="465" on="0"/>
        <pt x="359" y="442" on="0"/>
        <pt x="381" y="442" on="1"/>
        <pt x="390" y="442" on="0"/>
        <pt x="406" y="446" on="0"/>
        <pt x="422" y="461" on="0"/>
        <pt x="437" y="490" on="0"/>
        <pt x="443" y="515" on="1"/>
        <pt x="545" y="487" on="1"/>
        <pt x="540" y="459" on="0"/>
        <pt x="518" y="399" on="0"/>
        <pt x="480" y="348" on="0"/>
        <pt x="425" y="315" on="0"/>
      </contour>
      <contour>
        <pt x="387" y="71" on="1"/>
        <pt x="357" y="71" on="0"/>
        <pt x="304" y="94" on="0"/>
        <pt x="255" y="123" on="0"/>
        <pt x="210" y="146" on="0"/>
        <pt x="188" y="146" on="1"/>
        <pt x="179" y="146" on="0"/>
        <pt x="163" y="142" on="0"/>
        <pt x="147" y="127" on="0"/>
        <pt x="132" y="98" on="0"/>
        <pt x="126" y="73" on="1"/>
        <pt x="24" y="101" on="1"/>
        <pt x="29" y="129" on="0"/>
        <pt x="51" y="189" on="0"/>
        <pt x="88" y="240" on="0"/>
        <pt x="144" y="273" on="0"/>
        <pt x="183" y="273" on="1"/>
        <pt x="213" y="273" on="0"/>
        <pt x="266" y="250" on="0"/>
        <pt x="315" y="221" on="0"/>
        <pt x="360" y="198" on="0"/>
        <pt x="382" y="198" on="1"/>
        <pt x="391" y="198" on="0"/>
        <pt x="407" y="202" on="0"/>
        <pt x="423" y="217" on="0"/>
        <pt x="438" y="246" on="0"/>
        <pt x="444" y="271" on="1"/>
        <pt x="546" y="243" on="1"/>
        <pt x="541" y="215" on="0"/>
        <pt x="519" y="155" on="0"/>
        <pt x="481" y="104" on="0"/>
        <pt x="426" y="71" on="0"/>
      </contour>
    </TTGlyph>
    <TTGlyph name="aring" xMin="35" yMin="-11" xMax="488" yMax="814">
      <component glyphName="a" x="0" y="0" flags="0x204"/>
      <component glyphName="ring" x="115" y="0" flags="0x4"/>
    </TTGlyph>
    <TTGlyph name="aringacute" xMin="35" yMin="-11" xMax="488" yMax="949">
      <component glyphName="a" x="0" y="0" flags="0x204"/>
      <component glyphName="ring_acute" x="142" y="0" flags="0x4"/>
    </TTGlyph>
    <TTGlyph name="asciicircum" xMin="18" yMin="289" xMax="550" yMax="697">
      <contour>
        <pt x="550" y="350" on="1"/>
        <pt x="425" y="289" on="1"/>
        <pt x="284" y="534" on="1"/>
        <pt x="143" y="289" on="1"/>
        <pt x="18" y="350" on="1"/>
        <pt x="225" y="697" on="1"/>
        <pt x="343" y="697" on="1"/>
      </contour>
    </TTGlyph>
    <TTGlyph name="asciitilde" xMin="23" yMin="196" xMax="545" yMax="403">
      <contour>
        <pt x="386" y="196" on="1"/>
        <pt x="356" y="196" on="0"/>
        <pt x="303" y="220" on="0"/>
        <pt x="254" y="248" on="0"/>
        <pt x="209" y="272" on="0"/>
        <pt x="187" y="272" on="1"/>
        <pt x="179" y="272" on="0"/>
        <pt x="162" y="268" on="0"/>
        <pt x="146" y="253" on="0"/>
        <pt x="131" y="224" on="0"/>
        <pt x="125" y="199" on="1"/>
        <pt x="23" y="227" on="1"/>
        <pt x="28" y="255" on="0"/>
        <pt x="50" y="317" on="0"/>
        <pt x="87" y="369" on="0"/>
        <pt x="143" y="403" on="0"/>
        <pt x="182" y="403" on="1"/>
        <pt x="212" y="403" on="0"/>
        <pt x="265" y="379" on="0"/>
        <pt x="314" y="351" on="0"/>
        <pt x="359" y="327" on="0"/>
        <pt x="381" y="327" on="1"/>
        <pt x="389" y="327" on="0"/>
        <pt x="406" y="331" on="0"/>
        <pt x="422" y="346" on="0"/>
        <pt x="437" y="375" on="0"/>
        <pt x="443" y="400" on="1"/>
        <pt x="545" y="372" on="1"/>
        <pt x="540" y="344" on="0"/>
        <pt x="518" y="282" on="0"/>
        <pt x="480" y="230" on="0"/>
        <pt x="425" y="196" on="0"/>
      </contour>
    </TTGlyph>
    <TTGlyph name="asterisk" xMin="40" yMin="292" xMax="462" yMax="693">
      <contour>
        <pt x="283" y="536" on="1"/>
        <pt x="293" y="545" on="0"/>
        <pt x="323" y="566" on="0"/>
        <pt x="354" y="587" on="0"/>
        <pt x="386" y="604" on="0"/>
        <pt x="398" y="608" on="1"/>
        <pt x="422" y="616" on="1"/>
        <pt x="462" y="492" on="1"/>
        <pt x="438" y="484" on="1"/>
        <pt x="425" y="480" on="0"/>
        <pt x="391" y="476" on="0"/>
        <pt x="353" y="475" on="0"/>
        <pt x="317" y="475" on="0"/>
        <pt x="303" y="475" on="1"/>
        <pt x="315" y="467" on="0"/>
        <pt x="344" y="446" on="0"/>
        <pt x="373" y="423" on="0"/>
        <pt x="399" y="399" on="0"/>
        <pt x="407" y="388" on="1"/>
        <pt x="423" y="367" on="1"/>
        <pt x="317" y="292" on="1"/>
        <pt x="302" y="312" on="1"/>
        <pt x="294" y="322" on="0"/>
        <pt x="279" y="354" on="0"/>
        <pt x="265" y="389" on="0"/>
        <pt x="255" y="423" on="0"/>
        <pt x="251" y="437" on="1"/>
        <pt x="247" y="423" on="0"/>
        <pt x="237" y="389" on="0"/>
        <pt x="223" y="354" on="0"/>
        <pt x="208" y="322" on="0"/>
        <pt x="200" y="312" on="1"/>
        <pt x="185" y="292" on="1"/>
        <pt x="79" y="367" on="1"/>
        <pt x="95" y="388" on="1"/>
        <pt x="103" y="399" on="0"/>
        <pt x="129" y="423" on="0"/>
        <pt x="158" y="446" on="0"/>
        <pt x="187" y="467" on="0"/>
        <pt x="199" y="475" on="1"/>
        <pt x="185" y="475" on="0"/>
        <pt x="149" y="475" on="0"/>
        <pt x="111" y="476" on="0"/>
        <pt x="77" y="480" on="0"/>
        <pt x="64" y="484" on="1"/>
        <pt x="40" y="492" on="1"/>
        <pt x="80" y="616" on="1"/>
        <pt x="104" y="608" on="1"/>
        <pt x="116" y="604" on="0"/>
        <pt x="148" y="587" on="0"/>
        <pt x="179" y="566" on="0"/>
        <pt x="208" y="545" on="0"/>
        <pt x="219" y="536" on="1"/>
        <pt x="214" y="549" on="0"/>
        <pt x="203" y="584" on="0"/>
        <pt x="193" y="620" on="0"/>
        <pt x="186" y="655" on="0"/>
        <pt x="186" y="668" on="1"/>
        <pt x="186" y="693" on="1"/>
        <pt x="316" y="693" on="1"/>
        <pt x="316" y="668" on="1"/>
        <pt x="316" y="655" on="0"/>
        <pt x="309" y="620" on="0"/>
        <pt x="299" y="584" on="0"/>
        <pt x="288" y="549" on="0"/>
      </contour>
    </TTGlyph>
    <TTGlyph name="at" xMin="50" yMin="-164" xMax="924" yMax="718">
      <contour>
        <pt x="701" y="28" on="1"/>
        <pt x="672" y="28" on="0"/>
        <pt x="614" y="42" on="0"/>
        <pt x="595" y="60" on="1"/>
        <pt x="551" y="29" on="0"/>
        <pt x="484" y="29" on="1"/>
        <pt x="434" y="29" on="0"/>
        <pt x="351" y="60" on="0"/>
        <pt x="292" y="122" on="0"/>
        <pt x="259" y="213" on="0"/>
        <pt x="259" y="273" on="1"/>
        <pt x="259" y="324" on="0"/>
        <pt x="292" y="412" on="0"/>
        <pt x="356" y="477" on="0"/>
        <pt x="449" y="515" on="0"/>
        <pt x="508" y="515" on="1"/>
        <pt x="567" y="515" on="0"/>
        <pt x="658" y="494" on="0"/>
        <pt x="688" y="483" on="1"/>
        <pt x="688" y="169" on="1"/>
        <pt x="688" y="146" on="0"/>
        <pt x="707" y="130" on="0"/>
        <pt x="725" y="130" on="1"/>
        <pt x="741" y="130" on="0"/>
        <pt x="772" y="148" on="0"/>
        <pt x="794" y="195" on="0"/>
        <pt x="808" y="276" on="0"/>
        <pt x="808" y="338" on="1"/>
        <pt x="808" y="400" on="0"/>
        <pt x="765" y="503" on="0"/>
        <pt x="684" y="576" on="0"/>
        <pt x="567" y="617" on="0"/>
        <pt x="493" y="617" on="1"/>
        <pt x="422" y="617" on="0"/>
        <pt x="303" y="569" on="0"/>
        <pt x="216" y="480" on="0"/>
        <pt x="167" y="352" on="0"/>
        <pt x="167" y="272" on="1"/>
        <pt x="167" y="189" on="0"/>
        <pt x="215" y="64" on="0"/>
        <pt x="304" y="-20" on="0"/>
        <pt x="431" y="-63" on="0"/>
        <pt x="511" y="-63" on="1"/>
        <pt x="561" y="-63" on="0"/>
        <pt x="650" y="-50" on="0"/>
        <pt x="680" y="-44" on="1"/>
        <pt x="695" y="-138" on="1"/>
        <pt x="670" y="-146" on="0"/>
        <pt x="568" y="-164" on="0"/>
        <pt x="511" y="-164" on="1"/>
        <pt x="415" y="-164" on="0"/>
        <pt x="247" y="-114" on="0"/>
        <pt x="122" y="-8" on="0"/>
        <pt x="50" y="157" on="0"/>
        <pt x="50" y="272" on="1"/>
        <pt x="50" y="383" on="0"/>
        <pt x="126" y="550" on="0"/>
        <pt x="250" y="662" on="0"/>
        <pt x="409" y="718" on="0"/>
        <pt x="493" y="718" on="1"/>
        <pt x="585" y="718" on="0"/>
        <pt x="743" y="667" on="0"/>
        <pt x="858" y="569" on="0"/>
        <pt x="924" y="424" on="0"/>
        <pt x="924" y="330" on="1"/>
        <pt x="924" y="257" on="0"/>
        <pt x="893" y="144" on="0"/>
        <pt x="834" y="68" on="0"/>
        <pt x="752" y="28" on="0"/>
      </contour>
      <contour>
        <pt x="560" y="147" on="1"/>
        <pt x="558" y="155" on="0"/>
        <pt x="556" y="186" on="0"/>
        <pt x="556" y="200" on="1"/>
        <pt x="556" y="404" on="1"/>
        <pt x="536" y="408" on="0"/>
        <pt x="514" y="408" on="1"/>
        <pt x="481" y="408" on="0"/>
        <pt x="435" y="387" on="0"/>
        <pt x="407" y="351" on="0"/>
        <pt x="394" y="302" on="0"/>
        <pt x="394" y="273" on="1"/>
        <pt x="394" y="244" on="0"/>
        <pt x="404" y="195" on="0"/>
        <pt x="429" y="159" on="0"/>
        <pt x="471" y="138" on="0"/>
        <pt x="502" y="138" on="1"/>
        <pt x="520" y="138" on="0"/>
        <pt x="552" y="143" on="0"/>
      </contour>
    </TTGlyph>
    <TTGlyph name="atilde" xMin="35" yMin="-11" xMax="488" yMax="757">
      <component glyphName="a" x="0" y="0" flags="0x204"/>
      <component glyphName="tilde" x="81" y="0" flags="0x4"/>
    </TTGlyph>
</ttFont>
